  0
SECTION
  2
HEADER
  9
$ACADVER
  1
AC1014
  9
$HANDSEED
  5
FFFF
  9
$MEASUREMENT
 70
     1
  0
ENDSEC
  0
SECTION
  2
TABLES
  0
TABLE
  2
VPORT
  5
8
330
0
100
AcDbSymbolTable
 70
     4
  0
VPORT
  5
2E
330
8
100
AcDbSymbolTableRecord
100
AcDbViewportTableRecord
  2
*ACTIVE
 70
     0
 10
0.0
 20
0.0
 11
1.0
 21
1.0
 12
210.0
 22
148.5
 13
0.0
 23
0.0
 14
10.0
 24
10.0
 15
10.0
 25
10.0
 16
0.0
 26
0.0
 36
1.0
 17
0.0
 27
0.0
 37
0.0
 40
341.0
 41
1.24
 42
50.0
 43
0.0
 44
0.0
 50
0.0
 51
0.0
 71
     0
 72
   100
 73
     1
 74
     3
 75
     0
 76
     0
 77
     0
 78
     0
  0
ENDTAB
  0
TABLE
  2
LTYPE
  5
5
330
0
100
AcDbSymbolTable
 70
     1
  0
LTYPE
  5
14
330
5
100
AcDbSymbolTableRecord
100
AcDbLinetypeTableRecord
  2
BYBLOCK
 70
     0
  3

 72
    65
 73
     0
 40
0.0
  0
LTYPE
  5
15
330
5
100
AcDbSymbolTableRecord
100
AcDbLinetypeTableRecord
  2
BYLAYER
 70
     0
  3

 72
    65
 73
     0
 40
0.0
  0
LTYPE
  5
16
330
5
100
AcDbSymbolTableRecord
100
AcDbLinetypeTableRecord
  2
CONTINUOUS
 70
     0
  3
Solid line
 72
    65
 73
     0
 40
0.0
  0
ENDTAB
  0
TABLE
  2
LAYER
  5
2
100
AcDbSymbolTable
 70
1
  0
LAYER
  5
50
100
AcDbSymbolTableRecord
100
AcDbLayerTableRecord
  2
0
 70
0
  6
CONTINUOUS
  0
ENDTAB
  0
TABLE
  2
STYLE
  5
3
330
0
100
AcDbSymbolTable
 70
     1
  0
STYLE
  5
11
330
3
100
AcDbSymbolTableRecord
100
AcDbTextStyleTableRecord
  2
STANDARD
 70
     0
 40
0.0
 41
1.0
 50
0.0
 71
     0
 42
2.5
  3
txt
  4

  0
ENDTAB
  0
TABLE
  2
VIEW
  5
6
330
0
100
AcDbSymbolTable
 70
     0
  0
ENDTAB
  0
TABLE
  2
UCS
  5
7
330
0
100
AcDbSymbolTable
 70
     0
  0
ENDTAB
  0
TABLE
  2
APPID
  5
9
330
0
100
AcDbSymbolTable
 70
     2
  0
APPID
  5
12
330
9
100
AcDbSymbolTableRecord
100
AcDbRegAppTableRecord
  2
ACAD
 70
     0
  0
ENDTAB
  0
TABLE
  2
DIMSTYLE
  5
A
330
0
100
AcDbSymbolTable
 70
     1
  0
DIMSTYLE
105
27
330
A
100
AcDbSymbolTableRecord
100
AcDbDimStyleTableRecord
  2
ISO-25
 70
     0
  3

  4

  5

  6

  7

 40
1.0
 41
2.5
 42
0.625
 43
3.75
 44
1.25
 45
0.0
 46
0.0
 47
0.0
 48
0.0
140
2.5
141
2.5
142
0.0
143
0.03937007874016
144
1.0
145
0.0
146
1.0
147
0.625
 71
     0
 72
     0
 73
     0
 74
     0
 75
     0
 76
     0
 77
     1
 78
     8
170
     0
171
     3
172
     1
173
     0
174
     0
175
     0
176
     0
177
     0
178
     0
270
     2
271
     2
272
     2
273
     2
274
     3
340
11
275
     0
280
     0
281
     0
282
     0
283
     0
284
     8
285
     0
286
     0
287
     3
288
     0
  0
ENDTAB
  0
TABLE
  2
BLOCK_RECORD
  5
1
330
0
100
AcDbSymbolTable
 70
     1
  0
BLOCK_RECORD
  5
1F
330
1
100
AcDbSymbolTableRecord
100
AcDbBlockTableRecord
  2
*MODEL_SPACE
  0
BLOCK_RECORD
  5
1B
330
1
100
AcDbSymbolTableRecord
100
AcDbBlockTableRecord
  2
*PAPER_SPACE
  0
ENDTAB
  0
ENDSEC
  0
SECTION
  2
BLOCKS
  0
BLOCK
  5
20
330
1F
100
AcDbEntity
  8
0
100
AcDbBlockBegin
  2
*MODEL_SPACE
 70
     0
 10
0.0
 20
0.0
 30
0.0
  3
*MODEL_SPACE
  1

  0
ENDBLK
  5
21
330
1F
100
AcDbEntity
  8
0
100
AcDbBlockEnd
  0
BLOCK
  5
1C
330
1B
100
AcDbEntity
 67
     1
  8
0
100
AcDbBlockBegin
  2
*PAPER_SPACE
  1

  0
ENDBLK
  5
1D
330
1B
100
AcDbEntity
 67
     1
  8
0
100
AcDbBlockEnd
  0
ENDSEC
  0
SECTION
  2
ENTITIES
  0
SPLINE
  5
100
100
AcDbEntity
  8
0
 62
7
100
AcDbSpline
 70
8
 71
3
 72
8
 73
4
 74
0
 40
0
 40
0
 40
0
 40
0
 40
1
 40
1
 40
1
 40
1
 10
326.319444
 20
178.188056
 30
0.0
 10
360.362500
 20
176.882778
 30
0.0
 10
388.090833
 20
175.401111
 30
0.0
 10
409.751389
 20
173.743056
 30
0.0
  0
SPLINE
  5
101
100
AcDbEntity
  8
0
 62
7
100
AcDbSpline
 70
8
 71
3
 72
8
 73
4
 74
0
 40
0
 40
0
 40
0
 40
0
 40
1
 40
1
 40
1
 40
1
 10
409.751389
 20
173.743056
 30
0.0
 10
413.455556
 20
173.460833
 30
0.0
 10
416.806944
 20
173.213889
 30
0.0
 10
417.265556
 20
173.213889
 30
0.0
  0
LWPOLYLINE
  5
102
100
AcDbEntity
  8
0
 62
7
100
AcDbPolyline
 90
9
 70
1
 10
0.000000
 20
100.718056
 30
0.0
 10
0.000000
 20
0.000000
 30
0.0
 10
322.615278
 20
0.000000
 30
0.0
 10
645.230556
 20
0.000000
 30
0.0
 10
645.230556
 20
100.718056
 30
0.0
 10
645.230556
 20
201.436111
 30
0.0
 10
322.615278
 20
201.436111
 30
0.0
 10
0.000000
 20
201.436111
 30
0.0
 10
0.000000
 20
100.718056
 30
0.0
  0
SPLINE
  5
103
100
AcDbEntity
  8
0
 62
7
100
AcDbSpline
 70
8
 71
3
 72
8
 73
4
 74
0
 40
0
 40
0
 40
0
 40
0
 40
1
 40
1
 40
1
 40
1
 10
418.041667
 20
166.863889
 30
0.0
 10
418.041667
 20
163.371389
 30
0.0
 10
417.935833
 20
160.513889
 30
0.0
 10
417.794722
 20
160.513889
 30
0.0
  0
SPLINE
  5
104
100
AcDbEntity
  8
0
 62
7
100
AcDbSpline
 70
8
 71
3
 72
8
 73
4
 74
0
 40
0
 40
0
 40
0
 40
0
 40
1
 40
1
 40
1
 40
1
 10
417.794722
 20
160.513889
 30
0.0
 10
417.618333
 20
160.513889
 30
0.0
 10
413.385000
 20
160.831389
 30
0.0
 10
408.340278
 20
161.219444
 30
0.0
  0
SPLINE
  5
105
100
AcDbEntity
  8
0
 62
7
100
AcDbSpline
 70
8
 71
3
 72
8
 73
4
 74
0
 40
0
 40
0
 40
0
 40
0
 40
1
 40
1
 40
1
 40
1
 10
408.340278
 20
161.219444
 30
0.0
 10
380.823611
 20
163.265556
 30
0.0
 10
349.391111
 20
164.853056
 30
0.0
 10
316.265278
 20
165.840833
 30
0.0
  0
SPLINE
  5
106
100
AcDbEntity
  8
0
 62
7
100
AcDbSpline
 70
8
 71
3
 72
8
 73
4
 74
0
 40
0
 40
0
 40
0
 40
0
 40
1
 40
1
 40
1
 40
1
 10
316.265278
 20
165.840833
 30
0.0
 10
288.078333
 20
166.687500
 30
0.0
 10
237.490000
 20
166.334722
 30
0.0
 10
213.959722
 20
165.100000
 30
0.0
  0
SPLINE
  5
107
100
AcDbEntity
  8
0
 62
7
100
AcDbSpline
 70
8
 71
3
 72
8
 73
4
 74
0
 40
0
 40
0
 40
0
 40
0
 40
1
 40
1
 40
1
 40
1
 10
213.959722
 20
165.100000
 30
0.0
 10
210.678889
 20
164.923611
 30
0.0
 10
207.927222
 20
164.817778
 30
0.0
 10
207.927222
 20
164.853056
 30
0.0
  0
SPLINE
  5
108
100
AcDbEntity
  8
0
 62
7
100
AcDbSpline
 70
8
 71
3
 72
8
 73
4
 74
0
 40
0
 40
0
 40
0
 40
0
 40
1
 40
1
 40
1
 40
1
 10
207.927222
 20
164.853056
 30
0.0
 10
207.891944
 20
164.888333
 30
0.0
 10
208.350556
 20
167.710556
 30
0.0
 10
208.950278
 20
171.097222
 30
0.0
  0
LWPOLYLINE
  5
109
100
AcDbEntity
  8
0
 62
7
100
AcDbPolyline
 90
2
 70
0
 10
417.265556
 20
173.213889
 30
0.0
 10
418.041667
 20
166.863889
 30
0.0
  0
SPLINE
  5
10a
100
AcDbEntity
  8
0
 62
7
100
AcDbSpline
 70
8
 71
3
 72
8
 73
4
 74
0
 40
0
 40
0
 40
0
 40
0
 40
1
 40
1
 40
1
 40
1
 10
211.243333
 20
177.482500
 30
0.0
 10
211.878333
 20
177.623611
 30
0.0
 10
218.228333
 20
177.905833
 30
0.0
 10
225.354444
 20
178.117500
 30
0.0
  0
SPLINE
  5
10b
100
AcDbEntity
  8
0
 62
7
100
AcDbSpline
 70
8
 71
3
 72
8
 73
4
 74
0
 40
0
 40
0
 40
0
 40
0
 40
1
 40
1
 40
1
 40
1
 10
225.354444
 20
178.117500
 30
0.0
 10
232.480556
 20
178.364444
 30
0.0
 10
239.430278
 20
178.576111
 30
0.0
 10
240.770833
 20
178.646667
 30
0.0
  0
SPLINE
  5
10c
100
AcDbEntity
  8
0
 62
7
100
AcDbSpline
 70
8
 71
3
 72
8
 73
4
 74
0
 40
0
 40
0
 40
0
 40
0
 40
1
 40
1
 40
1
 40
1
 10
240.770833
 20
178.646667
 30
0.0
 10
246.521111
 20
178.893611
 30
0.0
 10
317.429444
 20
178.540833
 30
0.0
 10
326.319444
 20
178.188056
 30
0.0
  0
LWPOLYLINE
  5
10d
100
AcDbEntity
  8
0
 62
7
100
AcDbPolyline
 90
3
 70
0
 10
208.950278
 20
171.097222
 30
0.0
 10
210.079167
 20
177.235556
 30
0.0
 10
211.243333
 20
177.482500
 30
0.0
  0
SPLINE
  5
10e
100
AcDbEntity
  8
0
 62
7
100
AcDbSpline
 70
8
 71
3
 72
8
 73
4
 74
0
 40
0
 40
0
 40
0
 40
0
 40
1
 40
1
 40
1
 40
1
 10
197.096944
 20
175.965556
 30
0.0
 10
196.991111
 20
175.506944
 30
0.0
 10
196.461944
 20
172.684722
 30
0.0
 10
195.932778
 20
169.686111
 30
0.0
  0
SPLINE
  5
10f
100
AcDbEntity
  8
0
 62
7
100
AcDbSpline
 70
8
 71
3
 72
8
 73
4
 74
0
 40
0
 40
0
 40
0
 40
0
 40
1
 40
1
 40
1
 40
1
 10
195.932778
 20
169.686111
 30
0.0
 10
195.403611
 20
166.687500
 30
0.0
 10
194.945000
 20
164.182778
 30
0.0
 10
194.945000
 20
164.147500
 30
0.0
  0
SPLINE
  5
110
100
AcDbEntity
  8
0
 62
7
100
AcDbSpline
 70
8
 71
3
 72
8
 73
4
 74
0
 40
0
 40
0
 40
0
 40
0
 40
1
 40
1
 40
1
 40
1
 10
194.945000
 20
164.147500
 30
0.0
 10
194.909722
 20
164.112222
 30
0.0
 10
192.687222
 20
163.935833
 30
0.0
 10
189.970833
 20
163.724167
 30
0.0
  0
SPLINE
  5
111
100
AcDbEntity
  8
0
 62
7
100
AcDbSpline
 70
8
 71
3
 72
8
 73
4
 74
0
 40
0
 40
0
 40
0
 40
0
 40
1
 40
1
 40
1
 40
1
 10
189.970833
 20
163.724167
 30
0.0
 10
187.254444
 20
163.512500
 30
0.0
 10
184.044167
 20
163.230278
 30
0.0
 10
182.844722
 20
163.124444
 30
0.0
  0
LWPOLYLINE
  5
112
100
AcDbEntity
  8
0
 62
7
100
AcDbPolyline
 90
1
 70
1
 10
326.319444
 20
178.188056
 30
0.0
  0
SPLINE
  5
113
100
AcDbEntity
  8
0
 62
7
100
AcDbSpline
 70
8
 71
3
 72
8
 73
4
 74
0
 40
0
 40
0
 40
0
 40
0
 40
1
 40
1
 40
1
 40
1
 10
181.786389
 20
175.718611
 30
0.0
 10
182.386111
 20
175.718611
 30
0.0
 10
185.314167
 20
175.965556
 30
0.0
 10
188.206944
 20
176.212500
 30
0.0
  0
SPLINE
  5
114
100
AcDbEntity
  8
0
 62
7
100
AcDbSpline
 70
8
 71
3
 72
8
 73
4
 74
0
 40
0
 40
0
 40
0
 40
0
 40
1
 40
1
 40
1
 40
1
 10
188.206944
 20
176.212500
 30
0.0
 10
191.135000
 20
176.459444
 30
0.0
 10
194.345278
 20
176.671111
 30
0.0
 10
195.403611
 20
176.706389
 30
0.0
  0
SPLINE
  5
115
100
AcDbEntity
  8
0
 62
7
100
AcDbSpline
 70
8
 71
3
 72
8
 73
4
 74
0
 40
0
 40
0
 40
0
 40
0
 40
1
 40
1
 40
1
 40
1
 10
195.403611
 20
176.706389
 30
0.0
 10
197.167500
 20
176.741667
 30
0.0
 10
197.273333
 20
176.706389
 30
0.0
 10
197.096944
 20
175.965556
 30
0.0
  0
LWPOLYLINE
  5
116
100
AcDbEntity
  8
0
 62
7
100
AcDbPolyline
 90
5
 70
0
 10
182.844722
 20
163.124444
 30
0.0
 10
180.622222
 20
162.912778
 30
0.0
 10
180.622222
 20
169.298056
 30
0.0
 10
180.622222
 20
175.683333
 30
0.0
 10
181.786389
 20
175.718611
 30
0.0
  0
SPLINE
  5
117
100
AcDbEntity
  8
0
 62
7
100
AcDbSpline
 70
8
 71
3
 72
8
 73
4
 74
0
 40
0
 40
0
 40
0
 40
0
 40
1
 40
1
 40
1
 40
1
 10
168.275000
 20
168.098611
 30
0.0
 10
168.275000
 20
161.995556
 30
0.0
 10
168.275000
 20
161.925000
 30
0.0
 10
167.498889
 20
161.783889
 30
0.0
  0
SPLINE
  5
118
100
AcDbEntity
  8
0
 62
7
100
AcDbSpline
 70
8
 71
3
 72
8
 73
4
 74
0
 40
0
 40
0
 40
0
 40
0
 40
1
 40
1
 40
1
 40
1
 10
167.498889
 20
161.783889
 30
0.0
 10
166.652222
 20
161.607500
 30
0.0
 10
155.892500
 20
160.408056
 30
0.0
 10
154.693056
 20
160.372778
 30
0.0
  0
SPLINE
  5
119
100
AcDbEntity
  8
0
 62
7
100
AcDbSpline
 70
8
 71
3
 72
8
 73
4
 74
0
 40
0
 40
0
 40
0
 40
0
 40
1
 40
1
 40
1
 40
1
 10
154.693056
 20
160.372778
 30
0.0
 10
154.058056
 20
160.337500
 30
0.0
 10
153.952222
 20
160.831389
 30
0.0
 10
153.246667
 20
166.334722
 30
0.0
  0
SPLINE
  5
11a
100
AcDbEntity
  8
0
 62
7
100
AcDbSpline
 70
8
 71
3
 72
8
 73
4
 74
0
 40
0
 40
0
 40
0
 40
0
 40
1
 40
1
 40
1
 40
1
 10
153.246667
 20
166.334722
 30
0.0
 10
152.823333
 20
169.650833
 30
0.0
 10
152.576389
 20
172.437778
 30
0.0
 10
152.717500
 20
172.578889
 30
0.0
  0
SPLINE
  5
11b
100
AcDbEntity
  8
0
 62
7
100
AcDbSpline
 70
8
 71
3
 72
8
 73
4
 74
0
 40
0
 40
0
 40
0
 40
0
 40
1
 40
1
 40
1
 40
1
 10
152.717500
 20
172.578889
 30
0.0
 10
152.964444
 20
172.861111
 30
0.0
 10
164.112222
 20
174.166389
 30
0.0
 10
166.616944
 20
174.236944
 30
0.0
  0
LWPOLYLINE
  5
11c
100
AcDbEntity
  8
0
 62
7
100
AcDbPolyline
 90
1
 70
1
 10
197.096944
 20
175.965556
 30
0.0
  0
SPLINE
  5
11d
100
AcDbEntity
  8
0
 62
7
100
AcDbSpline
 70
8
 71
3
 72
8
 73
4
 74
0
 40
0
 40
0
 40
0
 40
0
 40
1
 40
1
 40
1
 40
1
 10
438.643889
 20
171.414722
 30
0.0
 10
442.348056
 20
171.132500
 30
0.0
 10
444.288333
 20
170.815000
 30
0.0
 10
444.394167
 20
170.532778
 30
0.0
  0
SPLINE
  5
11e
100
AcDbEntity
  8
0
 62
7
100
AcDbSpline
 70
8
 71
3
 72
8
 73
4
 74
0
 40
0
 40
0
 40
0
 40
0
 40
1
 40
1
 40
1
 40
1
 10
444.394167
 20
170.532778
 30
0.0
 10
444.570556
 20
170.074167
 30
0.0
 10
443.547500
 20
158.750000
 30
0.0
 10
443.300556
 20
158.503056
 30
0.0
  0
SPLINE
  5
11f
100
AcDbEntity
  8
0
 62
7
100
AcDbSpline
 70
8
 71
3
 72
8
 73
4
 74
0
 40
0
 40
0
 40
0
 40
0
 40
1
 40
1
 40
1
 40
1
 10
443.300556
 20
158.503056
 30
0.0
 10
443.230000
 20
158.432500
 30
0.0
 10
440.478333
 20
158.608889
 30
0.0
 10
437.162222
 20
158.891111
 30
0.0
  0
SPLINE
  5
120
100
AcDbEntity
  8
0
 62
7
100
AcDbSpline
 70
8
 71
3
 72
8
 73
4
 74
0
 40
0
 40
0
 40
0
 40
0
 40
1
 40
1
 40
1
 40
1
 10
437.162222
 20
158.891111
 30
0.0
 10
433.881389
 20
159.208611
 30
0.0
 10
431.094444
 20
159.455556
 30
0.0
 10
430.953333
 20
159.455556
 30
0.0
  0
SPLINE
  5
121
100
AcDbEntity
  8
0
 62
7
100
AcDbSpline
 70
8
 71
3
 72
8
 73
4
 74
0
 40
0
 40
0
 40
0
 40
0
 40
1
 40
1
 40
1
 40
1
 10
430.953333
 20
159.455556
 30
0.0
 10
430.847500
 20
159.455556
 30
0.0
 10
430.741667
 20
162.348333
 30
0.0
 10
430.741667
 20
165.840833
 30
0.0
  0
LWPOLYLINE
  5
122
100
AcDbEntity
  8
0
 62
7
100
AcDbPolyline
 90
4
 70
0
 10
166.616944
 20
174.236944
 30
0.0
 10
168.275000
 20
174.272222
 30
0.0
 10
168.275000
 20
168.098611
 30
0.0
 10
168.275000
 20
168.098611
 30
0.0
  0
SPLINE
  5
123
100
AcDbEntity
  8
0
 62
7
100
AcDbSpline
 70
8
 71
3
 72
8
 73
4
 74
0
 40
0
 40
0
 40
0
 40
0
 40
1
 40
1
 40
1
 40
1
 10
431.905833
 20
172.049722
 30
0.0
 10
432.505556
 20
171.943889
 30
0.0
 10
435.539444
 20
171.661667
 30
0.0
 10
438.643889
 20
171.414722
 30
0.0
  0
LWPOLYLINE
  5
124
100
AcDbEntity
  8
0
 62
7
100
AcDbPolyline
 90
3
 70
0
 10
430.741667
 20
165.840833
 30
0.0
 10
430.741667
 20
172.226111
 30
0.0
 10
431.905833
 20
172.049722
 30
0.0
  0
SPLINE
  5
125
100
AcDbEntity
  8
0
 62
7
100
AcDbSpline
 70
8
 71
3
 72
8
 73
4
 74
0
 40
0
 40
0
 40
0
 40
0
 40
1
 40
1
 40
1
 40
1
 10
140.052778
 20
170.744444
 30
0.0
 10
140.052778
 20
170.532778
 30
0.0
 10
140.370278
 20
167.745833
 30
0.0
 10
140.758333
 20
164.500278
 30
0.0
  0
SPLINE
  5
126
100
AcDbEntity
  8
0
 62
7
100
AcDbSpline
 70
8
 71
3
 72
8
 73
4
 74
0
 40
0
 40
0
 40
0
 40
0
 40
1
 40
1
 40
1
 40
1
 10
140.758333
 20
164.500278
 30
0.0
 10
141.181667
 20
161.290000
 30
0.0
 10
141.463889
 20
158.608889
 30
0.0
 10
141.393333
 20
158.573611
 30
0.0
  0
SPLINE
  5
127
100
AcDbEntity
  8
0
 62
7
100
AcDbSpline
 70
8
 71
3
 72
8
 73
4
 74
0
 40
0
 40
0
 40
0
 40
0
 40
1
 40
1
 40
1
 40
1
 10
141.393333
 20
158.573611
 30
0.0
 10
141.322778
 20
158.503056
 30
0.0
 10
138.676944
 20
158.044444
 30
0.0
 10
135.466667
 20
157.515278
 30
0.0
  0
SPLINE
  5
128
100
AcDbEntity
  8
0
 62
7
100
AcDbSpline
 70
8
 71
3
 72
8
 73
4
 74
0
 40
0
 40
0
 40
0
 40
0
 40
1
 40
1
 40
1
 40
1
 10
135.466667
 20
157.515278
 30
0.0
 10
91.263611
 20
150.248056
 30
0.0
 10
65.440278
 20
138.147778
 30
0.0
 10
62.794444
 20
123.542778
 30
0.0
  0
SPLINE
  5
129
100
AcDbEntity
  8
0
 62
7
100
AcDbSpline
 70
8
 71
3
 72
8
 73
4
 74
0
 40
0
 40
0
 40
0
 40
0
 40
1
 40
1
 40
1
 40
1
 10
62.794444
 20
123.542778
 30
0.0
 10
61.700833
 20
117.404444
 30
0.0
 10
65.263889
 20
109.149444
 30
0.0
 10
72.672222
 20
100.612222
 30
0.0
  0
SPLINE
  5
12a
100
AcDbEntity
  8
0
 62
7
100
AcDbSpline
 70
8
 71
3
 72
8
 73
4
 74
0
 40
0
 40
0
 40
0
 40
0
 40
1
 40
1
 40
1
 40
1
 10
72.672222
 20
100.612222
 30
0.0
 10
76.235278
 20
96.484722
 30
0.0
 10
76.835000
 20
94.650278
 30
0.0
 10
75.670833
 20
91.828056
 30
0.0
  0
SPLINE
  5
12b
100
AcDbEntity
  8
0
 62
7
100
AcDbSpline
 70
8
 71
3
 72
8
 73
4
 74
0
 40
0
 40
0
 40
0
 40
0
 40
1
 40
1
 40
1
 40
1
 10
75.670833
 20
91.828056
 30
0.0
 10
74.930000
 20
90.064167
 30
0.0
 10
74.189167
 20
89.288056
 30
0.0
 10
72.495833
 20
88.511944
 30
0.0
  0
SPLINE
  5
12c
100
AcDbEntity
  8
0
 62
7
100
AcDbSpline
 70
8
 71
3
 72
8
 73
4
 74
0
 40
0
 40
0
 40
0
 40
0
 40
1
 40
1
 40
1
 40
1
 10
72.495833
 20
88.511944
 30
0.0
 10
71.261111
 20
87.947500
 30
0.0
 10
70.096944
 20
87.841667
 30
0.0
 10
63.535278
 20
87.841667
 30
0.0
  0
LWPOLYLINE
  5
12d
100
AcDbEntity
  8
0
 62
7
100
AcDbPolyline
 90
1
 70
1
 10
438.643889
 20
171.414722
 30
0.0
  0
SPLINE
  5
12e
100
AcDbEntity
  8
0
 62
7
100
AcDbSpline
 70
8
 71
3
 72
8
 73
4
 74
0
 40
0
 40
0
 40
0
 40
0
 40
1
 40
1
 40
1
 40
1
 10
63.006111
 20
84.349167
 30
0.0
 10
71.296389
 20
80.256944
 30
0.0
 10
72.672222
 20
79.022222
 30
0.0
 10
72.672222
 20
75.847222
 30
0.0
  0
SPLINE
  5
12f
100
AcDbEntity
  8
0
 62
7
100
AcDbSpline
 70
8
 71
3
 72
8
 73
4
 74
0
 40
0
 40
0
 40
0
 40
0
 40
1
 40
1
 40
1
 40
1
 10
72.672222
 20
75.847222
 30
0.0
 10
72.672222
 20
73.801111
 30
0.0
 10
66.322222
 20
41.945278
 30
0.0
 10
65.722500
 20
40.886944
 30
0.0
  0
SPLINE
  5
130
100
AcDbEntity
  8
0
 62
7
100
AcDbSpline
 70
8
 71
3
 72
8
 73
4
 74
0
 40
0
 40
0
 40
0
 40
0
 40
1
 40
1
 40
1
 40
1
 10
65.722500
 20
40.886944
 30
0.0
 10
65.369722
 20
40.287222
 30
0.0
 10
61.242222
 20
36.865278
 30
0.0
 10
56.479722
 20
33.231667
 30
0.0
  0
SPLINE
  5
131
100
AcDbEntity
  8
0
 62
7
100
AcDbSpline
 70
8
 71
3
 72
8
 73
4
 74
0
 40
0
 40
0
 40
0
 40
0
 40
1
 40
1
 40
1
 40
1
 10
56.479722
 20
33.231667
 30
0.0
 10
51.752500
 20
29.598056
 30
0.0
 10
47.448611
 20
26.281944
 30
0.0
 10
46.954722
 20
25.823333
 30
0.0
  0
LWPOLYLINE
  5
132
100
AcDbEntity
  8
0
 62
7
100
AcDbPolyline
 90
3
 70
0
 10
63.535278
 20
87.841667
 30
0.0
 10
55.985833
 20
87.841667
 30
0.0
 10
63.006111
 20
84.349167
 30
0.0
  0
SPLINE
  5
133
100
AcDbEntity
  8
0
 62
7
100
AcDbSpline
 70
8
 71
3
 72
8
 73
4
 74
0
 40
0
 40
0
 40
0
 40
0
 40
1
 40
1
 40
1
 40
1
 10
79.516111
 20
25.188333
 30
0.0
 10
97.931111
 20
25.294167
 30
0.0
 10
219.286667
 20
25.400000
 30
0.0
 10
349.179444
 20
25.400000
 30
0.0
  0
LWPOLYLINE
  5
134
100
AcDbEntity
  8
0
 62
7
100
AcDbPolyline
 90
3
 70
0
 10
46.954722
 20
25.823333
 30
0.0
 10
46.037500
 20
25.011944
 30
0.0
 10
79.516111
 20
25.188333
 30
0.0
  0
SPLINE
  5
135
100
AcDbEntity
  8
0
 62
7
100
AcDbSpline
 70
8
 71
3
 72
8
 73
4
 74
0
 40
0
 40
0
 40
0
 40
0
 40
1
 40
1
 40
1
 40
1
 10
583.600278
 20
27.269722
 30
0.0
 10
579.437500
 20
31.679444
 30
0.0
 10
577.179722
 20
35.736389
 30
0.0
 10
576.403611
 20
40.075556
 30
0.0
  0
SPLINE
  5
136
100
AcDbEntity
  8
0
 62
7
100
AcDbSpline
 70
8
 71
3
 72
8
 73
4
 74
0
 40
0
 40
0
 40
0
 40
0
 40
1
 40
1
 40
1
 40
1
 10
576.403611
 20
40.075556
 30
0.0
 10
575.592222
 20
44.661667
 30
0.0
 10
576.474167
 20
52.070000
 30
0.0
 10
578.767222
 20
60.042778
 30
0.0
  0
SPLINE
  5
137
100
AcDbEntity
  8
0
 62
7
100
AcDbSpline
 70
8
 71
3
 72
8
 73
4
 74
0
 40
0
 40
0
 40
0
 40
0
 40
1
 40
1
 40
1
 40
1
 10
578.767222
 20
60.042778
 30
0.0
 10
580.107778
 20
64.699444
 30
0.0
 10
582.718333
 20
71.790278
 30
0.0
 10
583.635556
 20
73.130833
 30
0.0
  0
SPLINE
  5
138
100
AcDbEntity
  8
0
 62
7
100
AcDbSpline
 70
8
 71
3
 72
8
 73
4
 74
0
 40
0
 40
0
 40
0
 40
0
 40
1
 40
1
 40
1
 40
1
 10
583.635556
 20
73.130833
 30
0.0
 10
584.164722
 20
73.942222
 30
0.0
 10
586.210833
 20
75.282778
 30
0.0
 10
590.726389
 20
77.858056
 30
0.0
  0
SPLINE
  5
139
100
AcDbEntity
  8
0
 62
7
100
AcDbSpline
 70
8
 71
3
 72
8
 73
4
 74
0
 40
0
 40
0
 40
0
 40
0
 40
1
 40
1
 40
1
 40
1
 10
590.726389
 20
77.858056
 30
0.0
 10
594.218889
 20
79.833611
 30
0.0
 10
597.464444
 20
81.703333
 30
0.0
 10
597.958333
 20
81.985556
 30
0.0
  0
SPLINE
  5
13a
100
AcDbEntity
  8
0
 62
7
100
AcDbSpline
 70
8
 71
3
 72
8
 73
4
 74
0
 40
0
 40
0
 40
0
 40
0
 40
1
 40
1
 40
1
 40
1
 10
597.958333
 20
81.985556
 30
0.0
 10
598.769722
 20
82.479444
 30
0.0
 10
598.522778
 20
82.514722
 30
0.0
 10
594.324722
 20
82.550000
 30
0.0
  0
SPLINE
  5
13b
100
AcDbEntity
  8
0
 62
7
100
AcDbSpline
 70
8
 71
3
 72
8
 73
4
 74
0
 40
0
 40
0
 40
0
 40
0
 40
1
 40
1
 40
1
 40
1
 10
594.324722
 20
82.550000
 30
0.0
 10
589.280000
 20
82.550000
 30
0.0
 10
588.045278
 20
82.867500
 30
0.0
 10
586.563611
 20
84.631389
 30
0.0
  0
SPLINE
  5
13c
100
AcDbEntity
  8
0
 62
7
100
AcDbSpline
 70
8
 71
3
 72
8
 73
4
 74
0
 40
0
 40
0
 40
0
 40
0
 40
1
 40
1
 40
1
 40
1
 10
586.563611
 20
84.631389
 30
0.0
 10
584.588056
 20
87.030278
 30
0.0
 10
584.517500
 20
86.289444
 30
0.0
 10
588.962500
 20
111.936389
 30
0.0
  0
SPLINE
  5
13d
100
AcDbEntity
  8
0
 62
7
100
AcDbSpline
 70
8
 71
3
 72
8
 73
4
 74
0
 40
0
 40
0
 40
0
 40
0
 40
1
 40
1
 40
1
 40
1
 10
588.962500
 20
111.936389
 30
0.0
 10
591.185000
 20
124.848056
 30
0.0
 10
593.019444
 20
135.537222
 30
0.0
 10
593.019444
 20
135.713611
 30
0.0
  0
SPLINE
  5
13e
100
AcDbEntity
  8
0
 62
7
100
AcDbSpline
 70
8
 71
3
 72
8
 73
4
 74
0
 40
0
 40
0
 40
0
 40
0
 40
1
 40
1
 40
1
 40
1
 10
593.019444
 20
135.713611
 30
0.0
 10
593.019444
 20
136.172222
 30
0.0
 10
581.095556
 20
138.994444
 30
0.0
 10
568.677778
 20
141.463889
 30
0.0
  0
SPLINE
  5
13f
100
AcDbEntity
  8
0
 62
7
100
AcDbSpline
 70
8
 71
3
 72
8
 73
4
 74
0
 40
0
 40
0
 40
0
 40
0
 40
1
 40
1
 40
1
 40
1
 10
568.677778
 20
141.463889
 30
0.0
 10
549.028056
 20
145.415000
 30
0.0
 10
525.250833
 20
149.119167
 30
0.0
 10
498.651389
 20
152.400000
 30
0.0
  0
SPLINE
  5
140
100
AcDbEntity
  8
0
 62
7
100
AcDbSpline
 70
8
 71
3
 72
8
 73
4
 74
0
 40
0
 40
0
 40
0
 40
0
 40
1
 40
1
 40
1
 40
1
 10
498.651389
 20
152.400000
 30
0.0
 10
490.713889
 20
153.352500
 30
0.0
 10
483.552500
 20
154.234444
 30
0.0
 10
482.741111
 20
154.340278
 30
0.0
  0
LWPOLYLINE
  5
141
100
AcDbEntity
  8
0
 62
7
100
AcDbPolyline
 90
3
 70
0
 10
349.179444
 20
25.400000
 30
0.0
 10
585.364167
 20
25.400000
 30
0.0
 10
583.600278
 20
27.269722
 30
0.0
  0
SPLINE
  5
142
100
AcDbEntity
  8
0
 62
7
100
AcDbSpline
 70
8
 71
3
 72
8
 73
4
 74
0
 40
0
 40
0
 40
0
 40
0
 40
1
 40
1
 40
1
 40
1
 10
482.917500
 20
160.513889
 30
0.0
 10
483.834722
 20
163.794722
 30
0.0
 10
484.646111
 20
166.546389
 30
0.0
 10
484.716667
 20
166.652222
 30
0.0
  0
SPLINE
  5
143
100
AcDbEntity
  8
0
 62
7
100
AcDbSpline
 70
8
 71
3
 72
8
 73
4
 74
0
 40
0
 40
0
 40
0
 40
0
 40
1
 40
1
 40
1
 40
1
 10
484.716667
 20
166.652222
 30
0.0
 10
484.893056
 20
166.828611
 30
0.0
 10
507.294444
 20
164.112222
 30
0.0
 10
519.112500
 20
162.454167
 30
0.0
  0
SPLINE
  5
144
100
AcDbEntity
  8
0
 62
7
100
AcDbSpline
 70
8
 71
3
 72
8
 73
4
 74
0
 40
0
 40
0
 40
0
 40
0
 40
1
 40
1
 40
1
 40
1
 10
519.112500
 20
162.454167
 30
0.0
 10
538.797500
 20
159.737778
 30
0.0
 10
554.672500
 20
157.091944
 30
0.0
 10
571.147222
 20
153.811111
 30
0.0
  0
SPLINE
  5
145
100
AcDbEntity
  8
0
 62
7
100
AcDbSpline
 70
8
 71
3
 72
8
 73
4
 74
0
 40
0
 40
0
 40
0
 40
0
 40
1
 40
1
 40
1
 40
1
 10
571.147222
 20
153.811111
 30
0.0
 10
584.446944
 20
151.165278
 30
0.0
 10
600.710000
 20
147.214167
 30
0.0
 10
603.144167
 20
146.014722
 30
0.0
  0
SPLINE
  5
146
100
AcDbEntity
  8
0
 62
7
100
AcDbSpline
 70
8
 71
3
 72
8
 73
4
 74
0
 40
0
 40
0
 40
0
 40
0
 40
1
 40
1
 40
1
 40
1
 10
603.144167
 20
146.014722
 30
0.0
 10
605.119722
 20
145.062222
 30
0.0
 10
606.425000
 20
142.945556
 30
0.0
 10
606.425000
 20
140.617222
 30
0.0
  0
SPLINE
  5
147
100
AcDbEntity
  8
0
 62
7
100
AcDbSpline
 70
8
 71
3
 72
8
 73
4
 74
0
 40
0
 40
0
 40
0
 40
0
 40
1
 40
1
 40
1
 40
1
 10
606.425000
 20
140.617222
 30
0.0
 10
606.425000
 20
139.735278
 30
0.0
 10
604.766944
 20
129.328333
 30
0.0
 10
602.720833
 20
117.545556
 30
0.0
  0
SPLINE
  5
148
100
AcDbEntity
  8
0
 62
7
100
AcDbSpline
 70
8
 71
3
 72
8
 73
4
 74
0
 40
0
 40
0
 40
0
 40
0
 40
1
 40
1
 40
1
 40
1
 10
602.720833
 20
117.545556
 30
0.0
 10
600.674722
 20
105.762778
 30
0.0
 10
599.016667
 20
95.885000
 30
0.0
 10
599.016667
 20
95.602778
 30
0.0
  0
SPLINE
  5
149
100
AcDbEntity
  8
0
 62
7
100
AcDbSpline
 70
8
 71
3
 72
8
 73
4
 74
0
 40
0
 40
0
 40
0
 40
0
 40
1
 40
1
 40
1
 40
1
 10
599.016667
 20
95.602778
 30
0.0
 10
599.016667
 20
95.144167
 30
0.0
 10
600.604167
 20
95.073611
 30
0.0
 10
611.610833
 20
95.179444
 30
0.0
  0
SPLINE
  5
14a
100
AcDbEntity
  8
0
 62
7
100
AcDbSpline
 70
8
 71
3
 72
8
 73
4
 74
0
 40
0
 40
0
 40
0
 40
0
 40
1
 40
1
 40
1
 40
1
 10
611.610833
 20
95.179444
 30
0.0
 10
622.582222
 20
95.250000
 30
0.0
 10
624.451944
 20
95.214722
 30
0.0
 10
625.757222
 20
94.685556
 30
0.0
  0
SPLINE
  5
14b
100
AcDbEntity
  8
0
 62
7
100
AcDbSpline
 70
8
 71
3
 72
8
 73
4
 74
0
 40
0
 40
0
 40
0
 40
0
 40
1
 40
1
 40
1
 40
1
 10
625.757222
 20
94.685556
 30
0.0
 10
629.814167
 20
93.168611
 30
0.0
 10
630.801944
 20
87.383056
 30
0.0
 10
627.521111
 20
84.455000
 30
0.0
  0
SPLINE
  5
14c
100
AcDbEntity
  8
0
 62
7
100
AcDbSpline
 70
8
 71
3
 72
8
 73
4
 74
0
 40
0
 40
0
 40
0
 40
0
 40
1
 40
1
 40
1
 40
1
 10
627.521111
 20
84.455000
 30
0.0
 10
627.097778
 20
84.031667
 30
0.0
 10
620.430278
 20
80.186389
 30
0.0
 10
612.775000
 20
75.847222
 30
0.0
  0
SPLINE
  5
14d
100
AcDbEntity
  8
0
 62
7
100
AcDbSpline
 70
8
 71
3
 72
8
 73
4
 74
0
 40
0
 40
0
 40
0
 40
0
 40
1
 40
1
 40
1
 40
1
 10
612.775000
 20
75.847222
 30
0.0
 10
605.119722
 20
71.543333
 30
0.0
 10
597.711389
 20
67.345278
 30
0.0
 10
596.300278
 20
66.569167
 30
0.0
  0
LWPOLYLINE
  5
14e
100
AcDbEntity
  8
0
 62
7
100
AcDbPolyline
 90
3
 70
0
 10
482.741111
 20
154.340278
 30
0.0
 10
481.294722
 20
154.551944
 30
0.0
 10
482.917500
 20
160.513889
 30
0.0
  0
SPLINE
  5
14f
100
AcDbEntity
  8
0
 62
7
100
AcDbSpline
 70
8
 71
3
 72
8
 73
4
 74
0
 40
0
 40
0
 40
0
 40
0
 40
1
 40
1
 40
1
 40
1
 10
592.490278
 20
61.595000
 30
0.0
 10
589.209444
 20
52.281667
 30
0.0
 10
587.904167
 20
43.356389
 30
0.0
 10
589.421111
 20
40.393056
 30
0.0
  0
SPLINE
  5
150
100
AcDbEntity
  8
0
 62
7
100
AcDbSpline
 70
8
 71
3
 72
8
 73
4
 74
0
 40
0
 40
0
 40
0
 40
0
 40
1
 40
1
 40
1
 40
1
 10
589.421111
 20
40.393056
 30
0.0
 10
591.255556
 20
36.724167
 30
0.0
 10
596.476667
 20
31.855833
 30
0.0
 10
604.343611
 20
26.387778
 30
0.0
  0
SPLINE
  5
151
100
AcDbEntity
  8
0
 62
7
100
AcDbSpline
 70
8
 71
3
 72
8
 73
4
 74
0
 40
0
 40
0
 40
0
 40
0
 40
1
 40
1
 40
1
 40
1
 10
604.343611
 20
26.387778
 30
0.0
 10
609.317778
 20
22.930556
 30
0.0
 10
610.129167
 20
21.836944
 30
0.0
 10
609.882222
 20
18.697222
 30
0.0
  0
SPLINE
  5
152
100
AcDbEntity
  8
0
 62
7
100
AcDbSpline
 70
8
 71
3
 72
8
 73
4
 74
0
 40
0
 40
0
 40
0
 40
0
 40
1
 40
1
 40
1
 40
1
 10
609.882222
 20
18.697222
 30
0.0
 10
609.705833
 20
16.263056
 30
0.0
 10
608.612222
 20
14.569722
 30
0.0
 10
606.530833
 20
13.546667
 30
0.0
  0
SPLINE
  5
153
100
AcDbEntity
  8
0
 62
7
100
AcDbSpline
 70
8
 71
3
 72
8
 73
4
 74
0
 40
0
 40
0
 40
0
 40
0
 40
1
 40
1
 40
1
 40
1
 10
606.530833
 20
13.546667
 30
0.0
 10
605.225556
 20
12.876389
 30
0.0
 10
598.805000
 20
12.876389
 30
0.0
 10
316.088889
 20
12.770556
 30
0.0
  0
SPLINE
  5
154
100
AcDbEntity
  8
0
 62
7
100
AcDbSpline
 70
8
 71
3
 72
8
 73
4
 74
0
 40
0
 40
0
 40
0
 40
0
 40
1
 40
1
 40
1
 40
1
 10
316.088889
 20
12.770556
 30
0.0
 10
157.091944
 20
12.735278
 30
0.0
 10
26.458333
 20
12.770556
 30
0.0
 10
25.823333
 20
12.876389
 30
0.0
  0
SPLINE
  5
155
100
AcDbEntity
  8
0
 62
7
100
AcDbSpline
 70
8
 71
3
 72
8
 73
4
 74
0
 40
0
 40
0
 40
0
 40
0
 40
1
 40
1
 40
1
 40
1
 10
25.823333
 20
12.876389
 30
0.0
 10
24.412222
 20
13.123333
 30
0.0
 10
22.260278
 20
14.957778
 30
0.0
 10
21.660556
 20
16.474722
 30
0.0
  0
SPLINE
  5
156
100
AcDbEntity
  8
0
 62
7
100
AcDbSpline
 70
8
 71
3
 72
8
 73
4
 74
0
 40
0
 40
0
 40
0
 40
0
 40
1
 40
1
 40
1
 40
1
 10
21.660556
 20
16.474722
 30
0.0
 10
20.602222
 20
19.014722
 30
0.0
 10
21.272500
 20
21.625278
 30
0.0
 10
23.495000
 20
23.636111
 30
0.0
  0
SPLINE
  5
157
100
AcDbEntity
  8
0
 62
7
100
AcDbSpline
 70
8
 71
3
 72
8
 73
4
 74
0
 40
0
 40
0
 40
0
 40
0
 40
1
 40
1
 40
1
 40
1
 10
23.495000
 20
23.636111
 30
0.0
 10
24.235833
 20
24.306389
 30
0.0
 10
31.573611
 20
30.021389
 30
0.0
 10
39.793333
 20
36.265556
 30
0.0
  0
SPLINE
  5
158
100
AcDbEntity
  8
0
 62
7
100
AcDbSpline
 70
8
 71
3
 72
8
 73
4
 74
0
 40
0
 40
0
 40
0
 40
0
 40
1
 40
1
 40
1
 40
1
 10
39.793333
 20
36.265556
 30
0.0
 10
47.977778
 20
42.545000
 30
0.0
 10
54.680556
 20
47.766111
 30
0.0
 10
54.680556
 20
47.871944
 30
0.0
  0
SPLINE
  5
159
100
AcDbEntity
  8
0
 62
7
100
AcDbSpline
 70
8
 71
3
 72
8
 73
4
 74
0
 40
0
 40
0
 40
0
 40
0
 40
1
 40
1
 40
1
 40
1
 10
54.680556
 20
47.871944
 30
0.0
 10
54.680556
 20
47.977778
 30
0.0
 10
55.703611
 20
53.481111
 30
0.0
 10
56.973611
 20
60.078056
 30
0.0
  0
SPLINE
  5
15a
100
AcDbEntity
  8
0
 62
7
100
AcDbSpline
 70
8
 71
3
 72
8
 73
4
 74
0
 40
0
 40
0
 40
0
 40
0
 40
1
 40
1
 40
1
 40
1
 10
56.973611
 20
60.078056
 30
0.0
 10
58.278889
 20
66.639722
 30
0.0
 10
59.266667
 20
72.107778
 30
0.0
 10
59.196111
 20
72.143056
 30
0.0
  0
SPLINE
  5
15b
100
AcDbEntity
  8
0
 62
7
100
AcDbSpline
 70
8
 71
3
 72
8
 73
4
 74
0
 40
0
 40
0
 40
0
 40
0
 40
1
 40
1
 40
1
 40
1
 10
59.196111
 20
72.143056
 30
0.0
 10
58.913889
 20
72.425278
 30
0.0
 10
30.480000
 20
86.289444
 30
0.0
 10
28.292778
 20
87.206667
 30
0.0
  0
SPLINE
  5
15c
100
AcDbEntity
  8
0
 62
7
100
AcDbSpline
 70
8
 71
3
 72
8
 73
4
 74
0
 40
0
 40
0
 40
0
 40
0
 40
1
 40
1
 40
1
 40
1
 10
28.292778
 20
87.206667
 30
0.0
 10
26.740556
 20
87.876944
 30
0.0
 10
25.329444
 20
88.758889
 30
0.0
 10
24.694444
 20
89.464444
 30
0.0
  0
SPLINE
  5
15d
100
AcDbEntity
  8
0
 62
7
100
AcDbSpline
 70
8
 71
3
 72
8
 73
4
 74
0
 40
0
 40
0
 40
0
 40
0
 40
1
 40
1
 40
1
 40
1
 10
24.694444
 20
89.464444
 30
0.0
 10
22.225000
 20
92.286667
 30
0.0
 10
22.613056
 20
96.378889
 30
0.0
 10
25.576389
 20
98.601389
 30
0.0
  0
SPLINE
  5
15e
100
AcDbEntity
  8
0
 62
7
100
AcDbSpline
 70
8
 71
3
 72
8
 73
4
 74
0
 40
0
 40
0
 40
0
 40
0
 40
1
 40
1
 40
1
 40
1
 10
25.576389
 20
98.601389
 30
0.0
 10
27.305000
 20
99.941944
 30
0.0
 10
29.562778
 20
100.153611
 30
0.0
 10
44.203056
 20
100.400556
 30
0.0
  0
LWPOLYLINE
  5
15f
100
AcDbEntity
  8
0
 62
7
100
AcDbPolyline
 90
3
 70
0
 10
596.300278
 20
66.569167
 30
0.0
 10
593.760278
 20
65.158056
 30
0.0
 10
592.490278
 20
61.595000
 30
0.0
  0
SPLINE
  5
160
100
AcDbEntity
  8
0
 62
7
100
AcDbSpline
 70
8
 71
3
 72
8
 73
4
 74
0
 40
0
 40
0
 40
0
 40
0
 40
1
 40
1
 40
1
 40
1
 10
55.915278
 20
102.129167
 30
0.0
 10
54.010278
 20
105.410000
 30
0.0
 10
52.175833
 20
109.431667
 30
0.0
 10
51.258611
 20
112.395000
 30
0.0
  0
SPLINE
  5
161
100
AcDbEntity
  8
0
 62
7
100
AcDbSpline
 70
8
 71
3
 72
8
 73
4
 74
0
 40
0
 40
0
 40
0
 40
0
 40
1
 40
1
 40
1
 40
1
 10
51.258611
 20
112.395000
 30
0.0
 10
50.411944
 20
115.217222
 30
0.0
 10
50.306111
 20
116.063889
 30
0.0
 10
50.270833
 20
121.002778
 30
0.0
  0
SPLINE
  5
162
100
AcDbEntity
  8
0
 62
7
100
AcDbSpline
 70
8
 71
3
 72
8
 73
4
 74
0
 40
0
 40
0
 40
0
 40
0
 40
1
 40
1
 40
1
 40
1
 10
50.270833
 20
121.002778
 30
0.0
 10
50.270833
 20
125.800556
 30
0.0
 10
50.376667
 20
126.753056
 30
0.0
 10
51.082222
 20
128.905000
 30
0.0
  0
SPLINE
  5
163
100
AcDbEntity
  8
0
 62
7
100
AcDbSpline
 70
8
 71
3
 72
8
 73
4
 74
0
 40
0
 40
0
 40
0
 40
0
 40
1
 40
1
 40
1
 40
1
 10
51.082222
 20
128.905000
 30
0.0
 10
52.810833
 20
134.055556
 30
0.0
 10
55.456667
 20
138.359444
 30
0.0
 10
59.337222
 20
142.204722
 30
0.0
  0
SPLINE
  5
164
100
AcDbEntity
  8
0
 62
7
100
AcDbSpline
 70
8
 71
3
 72
8
 73
4
 74
0
 40
0
 40
0
 40
0
 40
0
 40
1
 40
1
 40
1
 40
1
 10
59.337222
 20
142.204722
 30
0.0
 10
71.649167
 20
154.516667
 30
0.0
 10
95.108889
 20
163.371389
 30
0.0
 10
132.820833
 20
169.862500
 30
0.0
  0
SPLINE
  5
165
100
AcDbEntity
  8
0
 62
7
100
AcDbSpline
 70
8
 71
3
 72
8
 73
4
 74
0
 40
0
 40
0
 40
0
 40
0
 40
1
 40
1
 40
1
 40
1
 10
132.820833
 20
169.862500
 30
0.0
 10
136.525000
 20
170.497500
 30
0.0
 10
139.629444
 20
171.026667
 30
0.0
 10
139.805833
 20
171.061944
 30
0.0
  0
SPLINE
  5
166
100
AcDbEntity
  8
0
 62
7
100
AcDbSpline
 70
8
 71
3
 72
8
 73
4
 74
0
 40
0
 40
0
 40
0
 40
0
 40
1
 40
1
 40
1
 40
1
 10
139.805833
 20
171.061944
 30
0.0
 10
139.946944
 20
171.097222
 30
0.0
 10
140.052778
 20
170.920833
 30
0.0
 10
140.052778
 20
170.744444
 30
0.0
  0
LWPOLYLINE
  5
167
100
AcDbEntity
  8
0
 62
7
100
AcDbPolyline
 90
3
 70
0
 10
44.203056
 20
100.400556
 30
0.0
 10
56.832500
 20
100.612222
 30
0.0
 10
55.915278
 20
102.129167
 30
0.0
  0
SPLINE
  5
168
100
AcDbEntity
  8
0
 62
7
100
AcDbSpline
 70
8
 71
3
 72
8
 73
4
 74
0
 40
0
 40
0
 40
0
 40
0
 40
1
 40
1
 40
1
 40
1
 10
466.195833
 20
168.768889
 30
0.0
 10
469.300278
 20
168.451389
 30
0.0
 10
471.875556
 20
168.169167
 30
0.0
 10
471.875556
 20
168.133889
 30
0.0
  0
SPLINE
  5
169
100
AcDbEntity
  8
0
 62
7
100
AcDbSpline
 70
8
 71
3
 72
8
 73
4
 74
0
 40
0
 40
0
 40
0
 40
0
 40
1
 40
1
 40
1
 40
1
 10
471.875556
 20
168.133889
 30
0.0
 10
471.946111
 20
168.098611
 30
0.0
 10
468.771111
 20
156.139444
 30
0.0
 10
468.665278
 20
155.998333
 30
0.0
  0
SPLINE
  5
16a
100
AcDbEntity
  8
0
 62
7
100
AcDbSpline
 70
8
 71
3
 72
8
 73
4
 74
0
 40
0
 40
0
 40
0
 40
0
 40
1
 40
1
 40
1
 40
1
 10
468.665278
 20
155.998333
 30
0.0
 10
468.594722
 20
155.927778
 30
0.0
 10
465.772500
 20
156.174722
 30
0.0
 10
462.350556
 20
156.527500
 30
0.0
  0
LWPOLYLINE
  5
16b
100
AcDbEntity
  8
0
 62
7
100
AcDbPolyline
 90
1
 70
1
 10
140.052778
 20
170.744444
 30
0.0
  0
SPLINE
  5
16c
100
AcDbEntity
  8
0
 62
7
100
AcDbSpline
 70
8
 71
3
 72
8
 73
4
 74
0
 40
0
 40
0
 40
0
 40
0
 40
1
 40
1
 40
1
 40
1
 10
456.141667
 20
158.185556
 30
0.0
 10
456.141667
 20
159.490833
 30
0.0
 10
456.811944
 20
166.934444
 30
0.0
 10
457.058889
 20
168.557222
 30
0.0
  0
LWPOLYLINE
  5
16d
100
AcDbEntity
  8
0
 62
7
100
AcDbPolyline
 90
3
 70
0
 10
462.350556
 20
156.527500
 30
0.0
 10
456.141667
 20
157.127222
 30
0.0
 10
456.141667
 20
158.185556
 30
0.0
  0
SPLINE
  5
16e
100
AcDbEntity
  8
0
 62
7
100
AcDbSpline
 70
8
 71
3
 72
8
 73
4
 74
0
 40
0
 40
0
 40
0
 40
0
 40
1
 40
1
 40
1
 40
1
 10
458.893333
 20
169.545000
 30
0.0
 10
459.810556
 20
169.439167
 30
0.0
 10
463.091389
 20
169.086389
 30
0.0
 10
466.195833
 20
168.768889
 30
0.0
  0
LWPOLYLINE
  5
16f
100
AcDbEntity
  8
0
 62
7
100
AcDbPolyline
 90
2
 70
0
 10
457.058889
 20
168.557222
 30
0.0
 10
458.893333
 20
169.545000
 30
0.0
  0
SPLINE
  5
170
100
AcDbEntity
  8
0
 62
7
100
AcDbSpline
 70
8
 71
3
 72
8
 73
4
 74
0
 40
0
 40
0
 40
0
 40
0
 40
1
 40
1
 40
1
 40
1
 10
225.777778
 20
125.765278
 30
0.0
 10
234.526667
 20
123.436944
 30
0.0
 10
238.795278
 20
117.898333
 30
0.0
 10
238.830556
 20
108.937778
 30
0.0
  0
SPLINE
  5
171
100
AcDbEntity
  8
0
 62
7
100
AcDbSpline
 70
8
 71
3
 72
8
 73
4
 74
0
 40
0
 40
0
 40
0
 40
0
 40
1
 40
1
 40
1
 40
1
 10
238.830556
 20
108.937778
 30
0.0
 10
238.830556
 20
104.245833
 30
0.0
 10
239.536111
 20
104.598611
 30
0.0
 10
229.764167
 20
104.104722
 30
0.0
  0
SPLINE
  5
172
100
AcDbEntity
  8
0
 62
7
100
AcDbSpline
 70
8
 71
3
 72
8
 73
4
 74
0
 40
0
 40
0
 40
0
 40
0
 40
1
 40
1
 40
1
 40
1
 10
229.764167
 20
104.104722
 30
0.0
 10
225.142778
 20
103.857778
 30
0.0
 10
220.944722
 20
103.610833
 30
0.0
 10
220.450833
 20
103.505000
 30
0.0
  0
LWPOLYLINE
  5
173
100
AcDbEntity
  8
0
 62
7
100
AcDbPolyline
 90
1
 70
1
 10
466.195833
 20
168.768889
 30
0.0
  0
SPLINE
  5
174
100
AcDbEntity
  8
0
 62
7
100
AcDbSpline
 70
8
 71
3
 72
8
 73
4
 74
0
 40
0
 40
0
 40
0
 40
0
 40
1
 40
1
 40
1
 40
1
 10
219.710000
 20
106.433056
 30
0.0
 10
219.886389
 20
110.207778
 30
0.0
 10
219.392500
 20
112.183333
 30
0.0
 10
217.875556
 20
113.841389
 30
0.0
  0
SPLINE
  5
175
100
AcDbEntity
  8
0
 62
7
100
AcDbSpline
 70
8
 71
3
 72
8
 73
4
 74
0
 40
0
 40
0
 40
0
 40
0
 40
1
 40
1
 40
1
 40
1
 10
217.875556
 20
113.841389
 30
0.0
 10
216.887778
 20
114.935000
 30
0.0
 10
216.464444
 20
115.146667
 30
0.0
 10
214.735833
 20
115.287778
 30
0.0
  0
SPLINE
  5
176
100
AcDbEntity
  8
0
 62
7
100
AcDbSpline
 70
8
 71
3
 72
8
 73
4
 74
0
 40
0
 40
0
 40
0
 40
0
 40
1
 40
1
 40
1
 40
1
 10
214.735833
 20
115.287778
 30
0.0
 10
211.878333
 20
115.534722
 30
0.0
 10
210.396667
 20
115.146667
 30
0.0
 10
208.844444
 20
113.735556
 30
0.0
  0
SPLINE
  5
177
100
AcDbEntity
  8
0
 62
7
100
AcDbSpline
 70
8
 71
3
 72
8
 73
4
 74
0
 40
0
 40
0
 40
0
 40
0
 40
1
 40
1
 40
1
 40
1
 10
208.844444
 20
113.735556
 30
0.0
 10
207.115833
 20
112.148056
 30
0.0
 10
205.951667
 20
109.255278
 30
0.0
 10
205.881111
 20
106.362500
 30
0.0
  0
SPLINE
  5
178
100
AcDbEntity
  8
0
 62
7
100
AcDbSpline
 70
8
 71
3
 72
8
 73
4
 74
0
 40
0
 40
0
 40
0
 40
0
 40
1
 40
1
 40
1
 40
1
 10
205.881111
 20
106.362500
 30
0.0
 10
205.845833
 20
102.481944
 30
0.0
 10
207.786111
 20
99.448056
 30
0.0
 10
216.852500
 20
89.393889
 30
0.0
  0
SPLINE
  5
179
100
AcDbEntity
  8
0
 62
7
100
AcDbSpline
 70
8
 71
3
 72
8
 73
4
 74
0
 40
0
 40
0
 40
0
 40
0
 40
1
 40
1
 40
1
 40
1
 10
216.852500
 20
89.393889
 30
0.0
 10
225.813056
 20
79.410278
 30
0.0
 10
229.270278
 20
74.612500
 30
0.0
 10
230.963611
 20
69.779444
 30
0.0
  0
SPLINE
  5
17a
100
AcDbEntity
  8
0
 62
7
100
AcDbSpline
 70
8
 71
3
 72
8
 73
4
 74
0
 40
0
 40
0
 40
0
 40
0
 40
1
 40
1
 40
1
 40
1
 10
230.963611
 20
69.779444
 30
0.0
 10
234.209167
 20
60.395556
 30
0.0
 10
228.035556
 20
48.260000
 30
0.0
 10
217.946111
 20
44.167778
 30
0.0
  0
SPLINE
  5
17b
100
AcDbEntity
  8
0
 62
7
100
AcDbSpline
 70
8
 71
3
 72
8
 73
4
 74
0
 40
0
 40
0
 40
0
 40
0
 40
1
 40
1
 40
1
 40
1
 10
217.946111
 20
44.167778
 30
0.0
 10
210.714167
 20
41.275000
 30
0.0
 10
198.684444
 20
40.569444
 30
0.0
 10
190.500000
 20
42.545000
 30
0.0
  0
SPLINE
  5
17c
100
AcDbEntity
  8
0
 62
7
100
AcDbSpline
 70
8
 71
3
 72
8
 73
4
 74
0
 40
0
 40
0
 40
0
 40
0
 40
1
 40
1
 40
1
 40
1
 10
190.500000
 20
42.545000
 30
0.0
 10
182.738889
 20
44.450000
 30
0.0
 10
178.399722
 20
48.895000
 30
0.0
 10
177.411944
 20
55.915278
 30
0.0
  0
SPLINE
  5
17d
100
AcDbEntity
  8
0
 62
7
100
AcDbSpline
 70
8
 71
3
 72
8
 73
4
 74
0
 40
0
 40
0
 40
0
 40
0
 40
1
 40
1
 40
1
 40
1
 10
177.411944
 20
55.915278
 30
0.0
 10
177.023889
 20
58.772778
 30
0.0
 10
177.270833
 20
64.381944
 30
0.0
 10
177.800000
 20
65.263889
 30
0.0
  0
SPLINE
  5
17e
100
AcDbEntity
  8
0
 62
7
100
AcDbSpline
 70
8
 71
3
 72
8
 73
4
 74
0
 40
0
 40
0
 40
0
 40
0
 40
1
 40
1
 40
1
 40
1
 10
177.800000
 20
65.263889
 30
0.0
 10
178.117500
 20
65.757778
 30
0.0
 10
188.136389
 20
66.604444
 30
0.0
 10
194.239444
 20
66.639722
 30
0.0
  0
LWPOLYLINE
  5
17f
100
AcDbEntity
  8
0
 62
7
100
AcDbPolyline
 90
3
 70
0
 10
220.450833
 20
103.505000
 30
0.0
 10
219.568889
 20
103.328611
 30
0.0
 10
219.710000
 20
106.433056
 30
0.0
  0
SPLINE
  5
180
100
AcDbEntity
  8
0
 62
7
100
AcDbSpline
 70
8
 71
3
 72
8
 73
4
 74
0
 40
0
 40
0
 40
0
 40
0
 40
1
 40
1
 40
1
 40
1
 10
196.426667
 20
64.487778
 30
0.0
 10
196.250278
 20
63.253056
 30
0.0
 10
196.179722
 20
61.206944
 30
0.0
 10
196.285556
 20
59.901667
 30
0.0
  0
SPLINE
  5
181
100
AcDbEntity
  8
0
 62
7
100
AcDbSpline
 70
8
 71
3
 72
8
 73
4
 74
0
 40
0
 40
0
 40
0
 40
0
 40
1
 40
1
 40
1
 40
1
 10
196.285556
 20
59.901667
 30
0.0
 10
196.567778
 20
55.985833
 30
0.0
 10
198.014167
 20
53.939722
 30
0.0
 10
201.012778
 20
53.057778
 30
0.0
  0
SPLINE
  5
182
100
AcDbEntity
  8
0
 62
7
100
AcDbSpline
 70
8
 71
3
 72
8
 73
4
 74
0
 40
0
 40
0
 40
0
 40
0
 40
1
 40
1
 40
1
 40
1
 10
201.012778
 20
53.057778
 30
0.0
 10
205.493056
 20
51.752500
 30
0.0
 10
209.796944
 20
53.692778
 30
0.0
 10
211.631389
 20
57.855556
 30
0.0
  0
SPLINE
  5
183
100
AcDbEntity
  8
0
 62
7
100
AcDbSpline
 70
8
 71
3
 72
8
 73
4
 74
0
 40
0
 40
0
 40
0
 40
0
 40
1
 40
1
 40
1
 40
1
 10
211.631389
 20
57.855556
 30
0.0
 10
214.488889
 20
64.311389
 30
0.0
 10
212.901389
 20
67.698056
 30
0.0
 10
200.765833
 20
80.856667
 30
0.0
  0
SPLINE
  5
184
100
AcDbEntity
  8
0
 62
7
100
AcDbSpline
 70
8
 71
3
 72
8
 73
4
 74
0
 40
0
 40
0
 40
0
 40
0
 40
1
 40
1
 40
1
 40
1
 10
200.765833
 20
80.856667
 30
0.0
 10
193.428056
 20
88.794167
 30
0.0
 10
189.618056
 20
94.332778
 30
0.0
 10
187.854167
 20
99.589167
 30
0.0
  0
SPLINE
  5
185
100
AcDbEntity
  8
0
 62
7
100
AcDbSpline
 70
8
 71
3
 72
8
 73
4
 74
0
 40
0
 40
0
 40
0
 40
0
 40
1
 40
1
 40
1
 40
1
 10
187.854167
 20
99.589167
 30
0.0
 10
183.903056
 20
111.371944
 30
0.0
 10
192.969444
 20
123.260556
 30
0.0
 10
208.103611
 20
126.118056
 30
0.0
  0
SPLINE
  5
186
100
AcDbEntity
  8
0
 62
7
100
AcDbSpline
 70
8
 71
3
 72
8
 73
4
 74
0
 40
0
 40
0
 40
0
 40
0
 40
1
 40
1
 40
1
 40
1
 10
208.103611
 20
126.118056
 30
0.0
 10
211.843056
 20
126.823611
 30
0.0
 10
222.602778
 20
126.611944
 30
0.0
 10
225.777778
 20
125.765278
 30
0.0
  0
LWPOLYLINE
  5
187
100
AcDbEntity
  8
0
 62
7
100
AcDbPolyline
 90
3
 70
0
 10
194.239444
 20
66.639722
 30
0.0
 10
196.744167
 20
66.675000
 30
0.0
 10
196.426667
 20
64.487778
 30
0.0
  0
SPLINE
  5
188
100
AcDbEntity
  8
0
 62
7
100
AcDbSpline
 70
8
 71
3
 72
8
 73
4
 74
0
 40
0
 40
0
 40
0
 40
0
 40
1
 40
1
 40
1
 40
1
 10
498.827778
 20
125.765278
 30
0.0
 10
504.719167
 20
124.213056
 30
0.0
 10
508.917222
 20
121.214444
 30
0.0
 10
510.963333
 20
117.122222
 30
0.0
  0
SPLINE
  5
189
100
AcDbEntity
  8
0
 62
7
100
AcDbSpline
 70
8
 71
3
 72
8
 73
4
 74
0
 40
0
 40
0
 40
0
 40
0
 40
1
 40
1
 40
1
 40
1
 10
510.963333
 20
117.122222
 30
0.0
 10
512.762500
 20
113.523889
 30
0.0
 10
512.868333
 20
111.654167
 30
0.0
 10
511.668889
 20
103.857778
 30
0.0
  0
LWPOLYLINE
  5
18a
100
AcDbEntity
  8
0
 62
7
100
AcDbPolyline
 90
1
 70
1
 10
225.777778
 20
125.765278
 30
0.0
  0
SPLINE
  5
18b
100
AcDbEntity
  8
0
 62
7
100
AcDbSpline
 70
8
 71
3
 72
8
 73
4
 74
0
 40
0
 40
0
 40
0
 40
0
 40
1
 40
1
 40
1
 40
1
 10
501.755833
 20
97.366667
 30
0.0
 10
493.500833
 20
97.366667
 30
0.0
 10
492.830556
 20
97.401944
 30
0.0
 10
492.830556
 20
98.001667
 30
0.0
  0
SPLINE
  5
18c
100
AcDbEntity
  8
0
 62
7
100
AcDbSpline
 70
8
 71
3
 72
8
 73
4
 74
0
 40
0
 40
0
 40
0
 40
0
 40
1
 40
1
 40
1
 40
1
 10
492.830556
 20
98.001667
 30
0.0
 10
492.830556
 20
98.319167
 30
0.0
 10
493.253889
 20
101.317778
 30
0.0
 10
493.783056
 20
104.633889
 30
0.0
  0
LWPOLYLINE
  5
18d
100
AcDbEntity
  8
0
 62
7
100
AcDbPolyline
 90
3
 70
0
 10
511.668889
 20
103.857778
 30
0.0
 10
510.645833
 20
97.366667
 30
0.0
 10
501.755833
 20
97.366667
 30
0.0
  0
SPLINE
  5
18e
100
AcDbEntity
  8
0
 62
7
100
AcDbSpline
 70
8
 71
3
 72
8
 73
4
 74
0
 40
0
 40
0
 40
0
 40
0
 40
1
 40
1
 40
1
 40
1
 10
494.030000
 20
112.042222
 30
0.0
 10
493.112778
 20
113.911944
 30
0.0
 10
491.348889
 20
114.758611
 30
0.0
 10
488.279722
 20
114.758611
 30
0.0
  0
SPLINE
  5
18f
100
AcDbEntity
  8
0
 62
7
100
AcDbSpline
 70
8
 71
3
 72
8
 73
4
 74
0
 40
0
 40
0
 40
0
 40
0
 40
1
 40
1
 40
1
 40
1
 10
488.279722
 20
114.758611
 30
0.0
 10
484.646111
 20
114.758611
 30
0.0
 10
482.282500
 20
113.241667
 30
0.0
 10
480.977222
 20
110.101944
 30
0.0
  0
SPLINE
  5
190
100
AcDbEntity
  8
0
 62
7
100
AcDbSpline
 70
8
 71
3
 72
8
 73
4
 74
0
 40
0
 40
0
 40
0
 40
0
 40
1
 40
1
 40
1
 40
1
 10
480.977222
 20
110.101944
 30
0.0
 10
480.306944
 20
108.514444
 30
0.0
 10
472.722222
 20
60.924722
 30
0.0
 10
472.722222
 20
58.349444
 30
0.0
  0
SPLINE
  5
191
100
AcDbEntity
  8
0
 62
7
100
AcDbSpline
 70
8
 71
3
 72
8
 73
4
 74
0
 40
0
 40
0
 40
0
 40
0
 40
1
 40
1
 40
1
 40
1
 10
472.722222
 20
58.349444
 30
0.0
 10
472.722222
 20
56.515000
 30
0.0
 10
472.828056
 20
56.268056
 30
0.0
 10
474.062778
 20
55.033333
 30
0.0
  0
SPLINE
  5
192
100
AcDbEntity
  8
0
 62
7
100
AcDbSpline
 70
8
 71
3
 72
8
 73
4
 74
0
 40
0
 40
0
 40
0
 40
0
 40
1
 40
1
 40
1
 40
1
 10
474.062778
 20
55.033333
 30
0.0
 10
475.085833
 20
54.010278
 30
0.0
 10
475.791389
 20
53.622222
 30
0.0
 10
477.096667
 20
53.445833
 30
0.0
  0
SPLINE
  5
193
100
AcDbEntity
  8
0
 62
7
100
AcDbSpline
 70
8
 71
3
 72
8
 73
4
 74
0
 40
0
 40
0
 40
0
 40
0
 40
1
 40
1
 40
1
 40
1
 10
477.096667
 20
53.445833
 30
0.0
 10
479.142778
 20
53.128333
 30
0.0
 10
482.247222
 20
53.692778
 30
0.0
 10
483.870000
 20
54.715833
 30
0.0
  0
SPLINE
  5
194
100
AcDbEntity
  8
0
 62
7
100
AcDbSpline
 70
8
 71
3
 72
8
 73
4
 74
0
 40
0
 40
0
 40
0
 40
0
 40
1
 40
1
 40
1
 40
1
 10
483.870000
 20
54.715833
 30
0.0
 10
485.704444
 20
55.844722
 30
0.0
 10
486.374722
 20
57.573333
 30
0.0
 10
487.362500
 20
63.746944
 30
0.0
  0
SPLINE
  5
195
100
AcDbEntity
  8
0
 62
7
100
AcDbSpline
 70
8
 71
3
 72
8
 73
4
 74
0
 40
0
 40
0
 40
0
 40
0
 40
1
 40
1
 40
1
 40
1
 10
487.362500
 20
63.746944
 30
0.0
 10
487.856389
 20
66.816111
 30
0.0
 10
488.315000
 20
69.673611
 30
0.0
 10
488.420833
 20
70.132222
 30
0.0
  0
LWPOLYLINE
  5
196
100
AcDbEntity
  8
0
 62
7
100
AcDbPolyline
 90
2
 70
0
 10
493.783056
 20
104.633889
 30
0.0
 10
494.030000
 20
112.042222
 30
0.0
  0
SPLINE
  5
197
100
AcDbEntity
  8
0
 62
7
100
AcDbSpline
 70
8
 71
3
 72
8
 73
4
 74
0
 40
0
 40
0
 40
0
 40
0
 40
1
 40
1
 40
1
 40
1
 10
497.416667
 20
70.908333
 30
0.0
 10
505.565833
 20
70.908333
 30
0.0
 10
506.236111
 20
70.873056
 30
0.0
 10
506.236111
 20
70.308611
 30
0.0
  0
SPLINE
  5
198
100
AcDbEntity
  8
0
 62
7
100
AcDbSpline
 70
8
 71
3
 72
8
 73
4
 74
0
 40
0
 40
0
 40
0
 40
0
 40
1
 40
1
 40
1
 40
1
 10
506.236111
 20
70.308611
 30
0.0
 10
506.236111
 20
69.955833
 30
0.0
 10
505.777500
 20
66.921944
 30
0.0
 10
505.213056
 20
63.570556
 30
0.0
  0
SPLINE
  5
199
100
AcDbEntity
  8
0
 62
7
100
AcDbSpline
 70
8
 71
3
 72
8
 73
4
 74
0
 40
0
 40
0
 40
0
 40
0
 40
1
 40
1
 40
1
 40
1
 10
505.213056
 20
63.570556
 30
0.0
 10
504.366389
 20
58.420000
 30
0.0
 10
503.978333
 20
57.008889
 30
0.0
 10
502.920000
 20
54.821667
 30
0.0
  0
SPLINE
  5
19a
100
AcDbEntity
  8
0
 62
7
100
AcDbSpline
 70
8
 71
3
 72
8
 73
4
 74
0
 40
0
 40
0
 40
0
 40
0
 40
1
 40
1
 40
1
 40
1
 10
502.920000
 20
54.821667
 30
0.0
 10
500.768056
 20
50.517778
 30
0.0
 10
496.323056
 20
46.319722
 30
0.0
 10
491.878056
 20
44.414722
 30
0.0
  0
SPLINE
  5
19b
100
AcDbEntity
  8
0
 62
7
100
AcDbSpline
 70
8
 71
3
 72
8
 73
4
 74
0
 40
0
 40
0
 40
0
 40
0
 40
1
 40
1
 40
1
 40
1
 10
491.878056
 20
44.414722
 30
0.0
 10
484.751944
 20
41.345556
 30
0.0
 10
474.133333
 20
40.569444
 30
0.0
 10
466.548611
 20
42.509722
 30
0.0
  0
SPLINE
  5
19c
100
AcDbEntity
  8
0
 62
7
100
AcDbSpline
 70
8
 71
3
 72
8
 73
4
 74
0
 40
0
 40
0
 40
0
 40
0
 40
1
 40
1
 40
1
 40
1
 10
466.548611
 20
42.509722
 30
0.0
 10
460.974722
 20
43.956111
 30
0.0
 10
456.635556
 20
47.060556
 30
0.0
 10
454.695278
 20
51.011667
 30
0.0
  0
SPLINE
  5
19d
100
AcDbEntity
  8
0
 62
7
100
AcDbSpline
 70
8
 71
3
 72
8
 73
4
 74
0
 40
0
 40
0
 40
0
 40
0
 40
1
 40
1
 40
1
 40
1
 10
454.695278
 20
51.011667
 30
0.0
 10
452.649167
 20
55.139167
 30
0.0
 10
452.684444
 20
55.562500
 30
0.0
 10
457.341111
 20
84.666667
 30
0.0
  0
LWPOLYLINE
  5
19e
100
AcDbEntity
  8
0
 62
7
100
AcDbPolyline
 90
3
 70
0
 10
488.420833
 20
70.132222
 30
0.0
 10
488.597222
 20
70.908333
 30
0.0
 10
497.416667
 20
70.908333
 30
0.0
  0
SPLINE
  5
19f
100
AcDbEntity
  8
0
 62
7
100
AcDbSpline
 70
8
 71
3
 72
8
 73
4
 74
0
 40
0
 40
0
 40
0
 40
0
 40
1
 40
1
 40
1
 40
1
 10
462.844444
 20
113.135833
 30
0.0
 10
466.054722
 20
119.626944
 30
0.0
 10
472.334167
 20
124.071944
 30
0.0
 10
481.012500
 20
125.941667
 30
0.0
  0
SPLINE
  5
1a0
100
AcDbEntity
  8
0
 62
7
100
AcDbSpline
 70
8
 71
3
 72
8
 73
4
 74
0
 40
0
 40
0
 40
0
 40
0
 40
1
 40
1
 40
1
 40
1
 10
481.012500
 20
125.941667
 30
0.0
 10
485.140000
 20
126.823611
 30
0.0
 10
495.194167
 20
126.753056
 30
0.0
 10
498.827778
 20
125.765278
 30
0.0
  0
LWPOLYLINE
  5
1a1
100
AcDbEntity
  8
0
 62
7
100
AcDbPolyline
 90
3
 70
0
 10
457.341111
 20
84.666667
 30
0.0
 10
461.433333
 20
110.243056
 30
0.0
 10
462.844444
 20
113.135833
 30
0.0
  0
SPLINE
  5
1a2
100
AcDbEntity
  8
0
 62
7
100
AcDbSpline
 70
8
 71
3
 72
8
 73
4
 74
0
 40
0
 40
0
 40
0
 40
0
 40
1
 40
1
 40
1
 40
1
 10
559.152778
 20
125.624167
 30
0.0
 10
564.973611
 20
123.895556
 30
0.0
 10
569.030556
 20
120.932222
 30
0.0
 10
571.006111
 20
116.910556
 30
0.0
  0
SPLINE
  5
1a3
100
AcDbEntity
  8
0
 62
7
100
AcDbSpline
 70
8
 71
3
 72
8
 73
4
 74
0
 40
0
 40
0
 40
0
 40
0
 40
1
 40
1
 40
1
 40
1
 10
571.006111
 20
116.910556
 30
0.0
 10
572.875833
 20
113.065278
 30
0.0
 10
572.805278
 20
111.830556
 30
0.0
 10
568.325000
 20
83.961111
 30
0.0
  0
SPLINE
  5
1a4
100
AcDbEntity
  8
0
 62
7
100
AcDbSpline
 70
8
 71
3
 72
8
 73
4
 74
0
 40
0
 40
0
 40
0
 40
0
 40
1
 40
1
 40
1
 40
1
 10
568.325000
 20
83.961111
 30
0.0
 10
566.173056
 20
70.485000
 30
0.0
 10
564.232778
 20
58.808056
 30
0.0
 10
564.056389
 20
58.031944
 30
0.0
  0
SPLINE
  5
1a5
100
AcDbEntity
  8
0
 62
7
100
AcDbSpline
 70
8
 71
3
 72
8
 73
4
 74
0
 40
0
 40
0
 40
0
 40
0
 40
1
 40
1
 40
1
 40
1
 10
564.056389
 20
58.031944
 30
0.0
 10
563.315556
 20
55.245000
 30
0.0
 10
561.163611
 20
51.752500
 30
0.0
 10
558.588333
 20
49.177222
 30
0.0
  0
SPLINE
  5
1a6
100
AcDbEntity
  8
0
 62
7
100
AcDbSpline
 70
8
 71
3
 72
8
 73
4
 74
0
 40
0
 40
0
 40
0
 40
0
 40
1
 40
1
 40
1
 40
1
 10
558.588333
 20
49.177222
 30
0.0
 10
552.979167
 20
43.532778
 30
0.0
 10
542.889722
 20
40.604722
 30
0.0
 10
532.376944
 20
41.592500
 30
0.0
  0
SPLINE
  5
1a7
100
AcDbEntity
  8
0
 62
7
100
AcDbSpline
 70
8
 71
3
 72
8
 73
4
 74
0
 40
0
 40
0
 40
0
 40
0
 40
1
 40
1
 40
1
 40
1
 10
532.376944
 20
41.592500
 30
0.0
 10
525.250833
 20
42.262778
 30
0.0
 10
520.523611
 20
44.061944
 30
0.0
 10
517.242778
 20
47.307500
 30
0.0
  0
SPLINE
  5
1a8
100
AcDbEntity
  8
0
 62
7
100
AcDbSpline
 70
8
 71
3
 72
8
 73
4
 74
0
 40
0
 40
0
 40
0
 40
0
 40
1
 40
1
 40
1
 40
1
 10
517.242778
 20
47.307500
 30
0.0
 10
513.679722
 20
50.870556
 30
0.0
 10
512.550833
 20
54.927500
 30
0.0
 10
513.468056
 20
60.924722
 30
0.0
  0
SPLINE
  5
1a9
100
AcDbEntity
  8
0
 62
7
100
AcDbSpline
 70
8
 71
3
 72
8
 73
4
 74
0
 40
0
 40
0
 40
0
 40
0
 40
1
 40
1
 40
1
 40
1
 10
513.468056
 20
60.924722
 30
0.0
 10
515.020278
 20
71.437500
 30
0.0
 10
521.123333
 20
109.043611
 30
0.0
 10
521.440833
 20
110.243056
 30
0.0
  0
SPLINE
  5
1aa
100
AcDbEntity
  8
0
 62
7
100
AcDbSpline
 70
8
 71
3
 72
8
 73
4
 74
0
 40
0
 40
0
 40
0
 40
0
 40
1
 40
1
 40
1
 40
1
 10
521.440833
 20
110.243056
 30
0.0
 10
522.675556
 20
114.829167
 30
0.0
 10
527.579167
 20
120.473611
 30
0.0
 10
532.518056
 20
123.013611
 30
0.0
  0
SPLINE
  5
1ab
100
AcDbEntity
  8
0
 62
7
100
AcDbSpline
 70
8
 71
3
 72
8
 73
4
 74
0
 40
0
 40
0
 40
0
 40
0
 40
1
 40
1
 40
1
 40
1
 10
532.518056
 20
123.013611
 30
0.0
 10
538.303611
 20
125.941667
 30
0.0
 10
541.901944
 20
126.647222
 30
0.0
 10
550.333333
 20
126.506111
 30
0.0
  0
SPLINE
  5
1ac
100
AcDbEntity
  8
0
 62
7
100
AcDbSpline
 70
8
 71
3
 72
8
 73
4
 74
0
 40
0
 40
0
 40
0
 40
0
 40
1
 40
1
 40
1
 40
1
 10
550.333333
 20
126.506111
 30
0.0
 10
555.413333
 20
126.400278
 30
0.0
 10
556.965556
 20
126.259167
 30
0.0
 10
559.152778
 20
125.624167
 30
0.0
  0
LWPOLYLINE
  5
1ad
100
AcDbEntity
  8
0
 62
7
100
AcDbPolyline
 90
1
 70
1
 10
498.827778
 20
125.765278
 30
0.0
  0
SPLINE
  5
1ae
100
AcDbEntity
  8
0
 62
7
100
AcDbSpline
 70
8
 71
3
 72
8
 73
4
 74
0
 40
0
 40
0
 40
0
 40
0
 40
1
 40
1
 40
1
 40
1
 10
126.823611
 20
125.236111
 30
0.0
 10
136.066389
 20
123.966111
 30
0.0
 10
142.698611
 20
120.579444
 30
0.0
 10
145.062222
 20
115.922778
 30
0.0
  0
SPLINE
  5
1af
100
AcDbEntity
  8
0
 62
7
100
AcDbSpline
 70
8
 71
3
 72
8
 73
4
 74
0
 40
0
 40
0
 40
0
 40
0
 40
1
 40
1
 40
1
 40
1
 10
145.062222
 20
115.922778
 30
0.0
 10
147.355278
 20
111.477778
 30
0.0
 10
147.320000
 20
104.492778
 30
0.0
 10
145.026944
 20
98.425000
 30
0.0
  0
SPLINE
  5
1b0
100
AcDbEntity
  8
0
 62
7
100
AcDbSpline
 70
8
 71
3
 72
8
 73
4
 74
0
 40
0
 40
0
 40
0
 40
0
 40
1
 40
1
 40
1
 40
1
 10
145.026944
 20
98.425000
 30
0.0
 10
143.580556
 20
94.650278
 30
0.0
 10
140.405556
 20
91.369444
 30
0.0
 10
134.972778
 20
88.194444
 30
0.0
  0
SPLINE
  5
1b1
100
AcDbEntity
  8
0
 62
7
100
AcDbSpline
 70
8
 71
3
 72
8
 73
4
 74
0
 40
0
 40
0
 40
0
 40
0
 40
1
 40
1
 40
1
 40
1
 10
134.972778
 20
88.194444
 30
0.0
 10
133.491111
 20
87.312500
 30
0.0
 10
132.291667
 20
86.536389
 30
0.0
 10
132.291667
 20
86.430556
 30
0.0
  0
SPLINE
  5
1b2
100
AcDbEntity
  8
0
 62
7
100
AcDbSpline
 70
8
 71
3
 72
8
 73
4
 74
0
 40
0
 40
0
 40
0
 40
0
 40
1
 40
1
 40
1
 40
1
 10
132.291667
 20
86.430556
 30
0.0
 10
132.291667
 20
86.324722
 30
0.0
 10
133.032500
 20
85.866111
 30
0.0
 10
133.949722
 20
85.372222
 30
0.0
  0
SPLINE
  5
1b3
100
AcDbEntity
  8
0
 62
7
100
AcDbSpline
 70
8
 71
3
 72
8
 73
4
 74
0
 40
0
 40
0
 40
0
 40
0
 40
1
 40
1
 40
1
 40
1
 10
133.949722
 20
85.372222
 30
0.0
 10
137.442222
 20
83.537778
 30
0.0
 10
140.476111
 20
79.410278
 30
0.0
 10
141.640278
 20
74.965278
 30
0.0
  0
SPLINE
  5
1b4
100
AcDbEntity
  8
0
 62
7
100
AcDbSpline
 70
8
 71
3
 72
8
 73
4
 74
0
 40
0
 40
0
 40
0
 40
0
 40
1
 40
1
 40
1
 40
1
 10
141.640278
 20
74.965278
 30
0.0
 10
142.698611
 20
70.873056
 30
0.0
 10
142.134167
 20
64.770000
 30
0.0
 10
140.193889
 20
59.654722
 30
0.0
  0
SPLINE
  5
1b5
100
AcDbEntity
  8
0
 62
7
100
AcDbSpline
 70
8
 71
3
 72
8
 73
4
 74
0
 40
0
 40
0
 40
0
 40
0
 40
1
 40
1
 40
1
 40
1
 10
140.193889
 20
59.654722
 30
0.0
 10
136.701389
 20
50.411944
 30
0.0
 10
127.952500
 20
44.555833
 30
0.0
 10
115.111389
 20
42.862500
 30
0.0
  0
SPLINE
  5
1b6
100
AcDbEntity
  8
0
 62
7
100
AcDbSpline
 70
8
 71
3
 72
8
 73
4
 74
0
 40
0
 40
0
 40
0
 40
0
 40
1
 40
1
 40
1
 40
1
 10
115.111389
 20
42.862500
 30
0.0
 10
110.101944
 20
42.192222
 30
0.0
 10
85.019444
 20
42.086389
 30
0.0
 10
85.019444
 20
42.721389
 30
0.0
  0
SPLINE
  5
1b7
100
AcDbEntity
  8
0
 62
7
100
AcDbSpline
 70
8
 71
3
 72
8
 73
4
 74
0
 40
0
 40
0
 40
0
 40
0
 40
1
 40
1
 40
1
 40
1
 10
85.019444
 20
42.721389
 30
0.0
 10
85.019444
 20
43.109444
 30
0.0
 10
97.013889
 20
119.415278
 30
0.0
 10
97.790000
 20
123.789722
 30
0.0
  0
LWPOLYLINE
  5
1b8
100
AcDbEntity
  8
0
 62
7
100
AcDbPolyline
 90
1
 70
1
 10
559.152778
 20
125.624167
 30
0.0
  0
SPLINE
  5
1b9
100
AcDbEntity
  8
0
 62
7
100
AcDbSpline
 70
8
 71
3
 72
8
 73
4
 74
0
 40
0
 40
0
 40
0
 40
0
 40
1
 40
1
 40
1
 40
1
 10
111.089722
 20
125.835833
 30
0.0
 10
118.180556
 20
125.730000
 30
0.0
 10
125.271389
 20
125.447778
 30
0.0
 10
126.823611
 20
125.236111
 30
0.0
  0
LWPOLYLINE
  5
1ba
100
AcDbEntity
  8
0
 62
7
100
AcDbPolyline
 90
3
 70
0
 10
97.790000
 20
123.789722
 30
0.0
 10
98.142778
 20
126.012222
 30
0.0
 10
111.089722
 20
125.835833
 30
0.0
  0
SPLINE
  5
1bb
100
AcDbEntity
  8
0
 62
7
100
AcDbSpline
 70
8
 71
3
 72
8
 73
4
 74
0
 40
0
 40
0
 40
0
 40
0
 40
1
 40
1
 40
1
 40
1
 10
178.858333
 20
125.483056
 30
0.0
 10
178.858333
 20
125.236111
 30
0.0
 10
175.930278
 20
106.574167
 30
0.0
 10
172.331944
 20
84.066944
 30
0.0
  0
SPLINE
  5
1bc
100
AcDbEntity
  8
0
 62
7
100
AcDbSpline
 70
8
 71
3
 72
8
 73
4
 74
0
 40
0
 40
0
 40
0
 40
0
 40
1
 40
1
 40
1
 40
1
 10
172.331944
 20
84.066944
 30
0.0
 10
168.733611
 20
61.559722
 30
0.0
 10
165.805556
 20
42.933056
 30
0.0
 10
165.805556
 20
42.721389
 30
0.0
  0
SPLINE
  5
1bd
100
AcDbEntity
  8
0
 62
7
100
AcDbSpline
 70
8
 71
3
 72
8
 73
4
 74
0
 40
0
 40
0
 40
0
 40
0
 40
1
 40
1
 40
1
 40
1
 10
165.805556
 20
42.721389
 30
0.0
 10
165.805556
 20
42.439167
 30
0.0
 10
163.053889
 20
42.333333
 30
0.0
 10
156.280556
 20
42.333333
 30
0.0
  0
SPLINE
  5
1be
100
AcDbEntity
  8
0
 62
7
100
AcDbSpline
 70
8
 71
3
 72
8
 73
4
 74
0
 40
0
 40
0
 40
0
 40
0
 40
1
 40
1
 40
1
 40
1
 10
156.280556
 20
42.333333
 30
0.0
 10
147.461111
 20
42.333333
 30
0.0
 10
146.755556
 20
42.368611
 30
0.0
 10
146.755556
 20
42.968333
 30
0.0
  0
SPLINE
  5
1bf
100
AcDbEntity
  8
0
 62
7
100
AcDbSpline
 70
8
 71
3
 72
8
 73
4
 74
0
 40
0
 40
0
 40
0
 40
0
 40
1
 40
1
 40
1
 40
1
 10
146.755556
 20
42.968333
 30
0.0
 10
146.755556
 20
43.568056
 30
0.0
 10
159.314444
 20
123.648611
 30
0.0
 10
159.631944
 20
125.165556
 30
0.0
  0
LWPOLYLINE
  5
1c0
100
AcDbEntity
  8
0
 62
7
100
AcDbPolyline
 90
1
 70
1
 10
126.823611
 20
125.236111
 30
0.0
  0
SPLINE
  5
1c1
100
AcDbEntity
  8
0
 62
7
100
AcDbSpline
 70
8
 71
3
 72
8
 73
4
 74
0
 40
0
 40
0
 40
0
 40
0
 40
1
 40
1
 40
1
 40
1
 10
169.333333
 20
125.941667
 30
0.0
 10
176.988611
 20
125.941667
 30
0.0
 10
178.858333
 20
125.835833
 30
0.0
 10
178.858333
 20
125.483056
 30
0.0
  0
LWPOLYLINE
  5
1c2
100
AcDbEntity
  8
0
 62
7
100
AcDbPolyline
 90
3
 70
0
 10
159.631944
 20
125.165556
 30
0.0
 10
159.808333
 20
125.941667
 30
0.0
 10
169.333333
 20
125.941667
 30
0.0
  0
SPLINE
  5
1c3
100
AcDbEntity
  8
0
 62
7
100
AcDbSpline
 70
8
 71
3
 72
8
 73
4
 74
0
 40
0
 40
0
 40
0
 40
0
 40
1
 40
1
 40
1
 40
1
 10
269.522222
 20
125.835833
 30
0.0
 10
269.522222
 20
125.765278
 30
0.0
 10
268.322778
 20
118.180556
 30
0.0
 10
266.876389
 20
109.008333
 30
0.0
  0
SPLINE
  5
1c4
100
AcDbEntity
  8
0
 62
7
100
AcDbSpline
 70
8
 71
3
 72
8
 73
4
 74
0
 40
0
 40
0
 40
0
 40
0
 40
1
 40
1
 40
1
 40
1
 10
266.876389
 20
109.008333
 30
0.0
 10
265.430000
 20
99.836111
 30
0.0
 10
264.230556
 20
92.110278
 30
0.0
 10
264.230556
 20
91.828056
 30
0.0
  0
SPLINE
  5
1c5
100
AcDbEntity
  8
0
 62
7
100
AcDbSpline
 70
8
 71
3
 72
8
 73
4
 74
0
 40
0
 40
0
 40
0
 40
0
 40
1
 40
1
 40
1
 40
1
 10
264.230556
 20
91.828056
 30
0.0
 10
264.230556
 20
91.475278
 30
0.0
 10
265.676944
 20
91.369444
 30
0.0
 10
271.638889
 20
91.369444
 30
0.0
  0
SPLINE
  5
1c6
100
AcDbEntity
  8
0
 62
7
100
AcDbSpline
 70
8
 71
3
 72
8
 73
4
 74
0
 40
0
 40
0
 40
0
 40
0
 40
1
 40
1
 40
1
 40
1
 10
271.638889
 20
91.369444
 30
0.0
 10
275.731111
 20
91.369444
 30
0.0
 10
279.047222
 20
91.440000
 30
0.0
 10
279.047222
 20
91.510556
 30
0.0
  0
SPLINE
  5
1c7
100
AcDbEntity
  8
0
 62
7
100
AcDbSpline
 70
8
 71
3
 72
8
 73
4
 74
0
 40
0
 40
0
 40
0
 40
0
 40
1
 40
1
 40
1
 40
1
 10
279.047222
 20
91.510556
 30
0.0
 10
279.047222
 20
91.616389
 30
0.0
 10
280.246667
 20
99.201111
 30
0.0
 10
281.693056
 20
108.408611
 30
0.0
  0
SPLINE
  5
1c8
100
AcDbEntity
  8
0
 62
7
100
AcDbSpline
 70
8
 71
3
 72
8
 73
4
 74
0
 40
0
 40
0
 40
0
 40
0
 40
1
 40
1
 40
1
 40
1
 10
281.693056
 20
108.408611
 30
0.0
 10
283.139444
 20
117.616111
 30
0.0
 10
284.338889
 20
125.341944
 30
0.0
 10
284.338889
 20
125.553611
 30
0.0
  0
SPLINE
  5
1c9
100
AcDbEntity
  8
0
 62
7
100
AcDbSpline
 70
8
 71
3
 72
8
 73
4
 74
0
 40
0
 40
0
 40
0
 40
0
 40
1
 40
1
 40
1
 40
1
 10
284.338889
 20
125.553611
 30
0.0
 10
284.338889
 20
125.835833
 30
0.0
 10
287.196389
 20
125.941667
 30
0.0
 10
294.040278
 20
125.941667
 30
0.0
  0
LWPOLYLINE
  5
1ca
100
AcDbEntity
  8
0
 62
7
100
AcDbPolyline
 90
1
 70
1
 10
178.858333
 20
125.483056
 30
0.0
  0
SPLINE
  5
1cb
100
AcDbEntity
  8
0
 62
7
100
AcDbSpline
 70
8
 71
3
 72
8
 73
4
 74
0
 40
0
 40
0
 40
0
 40
0
 40
1
 40
1
 40
1
 40
1
 10
303.565278
 20
125.165556
 30
0.0
 10
303.494722
 20
124.706944
 30
0.0
 10
300.531389
 20
106.256667
 30
0.0
 10
297.038889
 20
84.137500
 30
0.0
  0
SPLINE
  5
1cc
100
AcDbEntity
  8
0
 62
7
100
AcDbSpline
 70
8
 71
3
 72
8
 73
4
 74
0
 40
0
 40
0
 40
0
 40
0
 40
1
 40
1
 40
1
 40
1
 10
297.038889
 20
84.137500
 30
0.0
 10
293.546389
 20
62.018333
 30
0.0
 10
290.583056
 20
43.568056
 30
0.0
 10
290.512500
 20
43.144722
 30
0.0
  0
LWPOLYLINE
  5
1cd
100
AcDbEntity
  8
0
 62
7
100
AcDbPolyline
 90
3
 70
0
 10
294.040278
 20
125.941667
 30
0.0
 10
303.741667
 20
125.941667
 30
0.0
 10
303.565278
 20
125.165556
 30
0.0
  0
SPLINE
  5
1ce
100
AcDbEntity
  8
0
 62
7
100
AcDbSpline
 70
8
 71
3
 72
8
 73
4
 74
0
 40
0
 40
0
 40
0
 40
0
 40
1
 40
1
 40
1
 40
1
 10
280.811111
 20
42.333333
 30
0.0
 10
275.554722
 20
42.333333
 30
0.0
 10
271.286111
 20
42.403889
 30
0.0
 10
271.286111
 20
42.474444
 30
0.0
  0
SPLINE
  5
1cf
100
AcDbEntity
  8
0
 62
7
100
AcDbSpline
 70
8
 71
3
 72
8
 73
4
 74
0
 40
0
 40
0
 40
0
 40
0
 40
1
 40
1
 40
1
 40
1
 10
271.286111
 20
42.474444
 30
0.0
 10
271.286111
 20
42.650833
 30
0.0
 10
276.507222
 20
75.953056
 30
0.0
 10
276.754167
 20
77.540556
 30
0.0
  0
LWPOLYLINE
  5
1d0
100
AcDbEntity
  8
0
 62
7
100
AcDbPolyline
 90
3
 70
0
 10
290.512500
 20
43.144722
 30
0.0
 10
290.336111
 20
42.333333
 30
0.0
 10
280.811111
 20
42.333333
 30
0.0
  0
SPLINE
  5
1d1
100
AcDbEntity
  8
0
 62
7
100
AcDbSpline
 70
8
 71
3
 72
8
 73
4
 74
0
 40
0
 40
0
 40
0
 40
0
 40
1
 40
1
 40
1
 40
1
 10
269.522222
 20
78.669444
 30
0.0
 10
265.465278
 20
78.669444
 30
0.0
 10
262.113889
 20
78.634167
 30
0.0
 10
262.078611
 20
78.598889
 30
0.0
  0
SPLINE
  5
1d2
100
AcDbEntity
  8
0
 62
7
100
AcDbSpline
 70
8
 71
3
 72
8
 73
4
 74
0
 40
0
 40
0
 40
0
 40
0
 40
1
 40
1
 40
1
 40
1
 10
262.078611
 20
78.598889
 30
0.0
 10
262.078611
 20
78.528333
 30
0.0
 10
260.738056
 20
70.414444
 30
0.0
 10
259.150556
 20
60.501389
 30
0.0
  0
LWPOLYLINE
  5
1d3
100
AcDbEntity
  8
0
 62
7
100
AcDbPolyline
 90
3
 70
0
 10
276.754167
 20
77.540556
 30
0.0
 10
276.965833
 20
78.669444
 30
0.0
 10
269.522222
 20
78.669444
 30
0.0
  0
SPLINE
  5
1d4
100
AcDbEntity
  8
0
 62
7
100
AcDbSpline
 70
8
 71
3
 72
8
 73
4
 74
0
 40
0
 40
0
 40
0
 40
0
 40
1
 40
1
 40
1
 40
1
 10
237.243056
 20
43.109444
 30
0.0
 10
237.313611
 20
43.568056
 30
0.0
 10
240.276944
 20
62.194722
 30
0.0
 10
243.769444
 20
84.490278
 30
0.0
  0
SPLINE
  5
1d5
100
AcDbEntity
  8
0
 62
7
100
AcDbSpline
 70
8
 71
3
 72
8
 73
4
 74
0
 40
0
 40
0
 40
0
 40
0
 40
1
 40
1
 40
1
 40
1
 10
243.769444
 20
84.490278
 30
0.0
 10
247.297222
 20
106.821111
 30
0.0
 10
250.225278
 20
125.271389
 30
0.0
 10
250.295833
 20
125.518333
 30
0.0
  0
SPLINE
  5
1d6
100
AcDbEntity
  8
0
 62
7
100
AcDbSpline
 70
8
 71
3
 72
8
 73
4
 74
0
 40
0
 40
0
 40
0
 40
0
 40
1
 40
1
 40
1
 40
1
 10
250.295833
 20
125.518333
 30
0.0
 10
250.401667
 20
125.835833
 30
0.0
 10
252.659444
 20
125.941667
 30
0.0
 10
259.997222
 20
125.941667
 30
0.0
  0
SPLINE
  5
1d7
100
AcDbEntity
  8
0
 62
7
100
AcDbSpline
 70
8
 71
3
 72
8
 73
4
 74
0
 40
0
 40
0
 40
0
 40
0
 40
1
 40
1
 40
1
 40
1
 10
259.997222
 20
125.941667
 30
0.0
 10
265.218333
 20
125.941667
 30
0.0
 10
269.522222
 20
125.871111
 30
0.0
 10
269.522222
 20
125.835833
 30
0.0
  0
LWPOLYLINE
  5
1d8
100
AcDbEntity
  8
0
 62
7
100
AcDbPolyline
 90
5
 70
0
 10
259.150556
 20
60.501389
 30
0.0
 10
256.257778
 20
42.509722
 30
0.0
 10
246.662222
 20
42.403889
 30
0.0
 10
237.066667
 20
42.333333
 30
0.0
 10
237.243056
 20
43.109444
 30
0.0
  0
SPLINE
  5
1d9
100
AcDbEntity
  8
0
 62
7
100
AcDbSpline
 70
8
 71
3
 72
8
 73
4
 74
0
 40
0
 40
0
 40
0
 40
0
 40
1
 40
1
 40
1
 40
1
 10
331.611111
 20
125.377222
 30
0.0
 10
331.611111
 20
125.059722
 30
0.0
 10
328.683056
 20
106.362500
 30
0.0
 10
325.084722
 20
83.855278
 30
0.0
  0
SPLINE
  5
1da
100
AcDbEntity
  8
0
 62
7
100
AcDbSpline
 70
8
 71
3
 72
8
 73
4
 74
0
 40
0
 40
0
 40
0
 40
0
 40
1
 40
1
 40
1
 40
1
 10
325.084722
 20
83.855278
 30
0.0
 10
321.486389
 20
61.348056
 30
0.0
 10
318.558333
 20
42.791944
 30
0.0
 10
318.558333
 20
42.615556
 30
0.0
  0
SPLINE
  5
1db
100
AcDbEntity
  8
0
 62
7
100
AcDbSpline
 70
8
 71
3
 72
8
 73
4
 74
0
 40
0
 40
0
 40
0
 40
0
 40
1
 40
1
 40
1
 40
1
 10
318.558333
 20
42.615556
 30
0.0
 10
318.558333
 20
42.474444
 30
0.0
 10
314.289722
 20
42.333333
 30
0.0
 10
309.033333
 20
42.333333
 30
0.0
  0
SPLINE
  5
1dc
100
AcDbEntity
  8
0
 62
7
100
AcDbSpline
 70
8
 71
3
 72
8
 73
4
 74
0
 40
0
 40
0
 40
0
 40
0
 40
1
 40
1
 40
1
 40
1
 10
309.033333
 20
42.333333
 30
0.0
 10
301.025278
 20
42.333333
 30
0.0
 10
299.508333
 20
42.403889
 30
0.0
 10
299.508333
 20
42.827222
 30
0.0
  0
SPLINE
  5
1dd
100
AcDbEntity
  8
0
 62
7
100
AcDbSpline
 70
8
 71
3
 72
8
 73
4
 74
0
 40
0
 40
0
 40
0
 40
0
 40
1
 40
1
 40
1
 40
1
 10
299.508333
 20
42.827222
 30
0.0
 10
299.508333
 20
43.356389
 30
0.0
 10
312.067222
 20
123.260556
 30
0.0
 10
312.420000
 20
124.989167
 30
0.0
  0
LWPOLYLINE
  5
1de
100
AcDbEntity
  8
0
 62
7
100
AcDbPolyline
 90
1
 70
1
 10
269.522222
 20
125.835833
 30
0.0
  0
SPLINE
  5
1df
100
AcDbEntity
  8
0
 62
7
100
AcDbSpline
 70
8
 71
3
 72
8
 73
4
 74
0
 40
0
 40
0
 40
0
 40
0
 40
1
 40
1
 40
1
 40
1
 10
322.121389
 20
125.941667
 30
0.0
 10
330.623333
 20
125.941667
 30
0.0
 10
331.611111
 20
125.871111
 30
0.0
 10
331.611111
 20
125.377222
 30
0.0
  0
LWPOLYLINE
  5
1e0
100
AcDbEntity
  8
0
 62
7
100
AcDbPolyline
 90
3
 70
0
 10
312.420000
 20
124.989167
 30
0.0
 10
312.631667
 20
125.941667
 30
0.0
 10
322.121389
 20
125.941667
 30
0.0
  0
SPLINE
  5
1e1
100
AcDbEntity
  8
0
 62
7
100
AcDbSpline
 70
8
 71
3
 72
8
 73
4
 74
0
 40
0
 40
0
 40
0
 40
0
 40
1
 40
1
 40
1
 40
1
 10
404.212778
 20
125.095000
 30
0.0
 10
417.865278
 20
122.449167
 30
0.0
 10
424.568056
 20
115.252500
 30
0.0
 10
423.897778
 20
103.893056
 30
0.0
  0
SPLINE
  5
1e2
100
AcDbEntity
  8
0
 62
7
100
AcDbSpline
 70
8
 71
3
 72
8
 73
4
 74
0
 40
0
 40
0
 40
0
 40
0
 40
1
 40
1
 40
1
 40
1
 10
423.897778
 20
103.893056
 30
0.0
 10
423.051111
 20
88.935278
 30
0.0
 10
412.644167
 20
79.022222
 30
0.0
 10
395.005278
 20
76.411667
 30
0.0
  0
SPLINE
  5
1e3
100
AcDbEntity
  8
0
 62
7
100
AcDbSpline
 70
8
 71
3
 72
8
 73
4
 74
0
 40
0
 40
0
 40
0
 40
0
 40
1
 40
1
 40
1
 40
1
 10
395.005278
 20
76.411667
 30
0.0
 10
392.959167
 20
76.094167
 30
0.0
 10
390.101667
 20
75.847222
 30
0.0
 10
388.655278
 20
75.847222
 30
0.0
  0
SPLINE
  5
1e4
100
AcDbEntity
  8
0
 62
7
100
AcDbSpline
 70
8
 71
3
 72
8
 73
4
 74
0
 40
0
 40
0
 40
0
 40
0
 40
1
 40
1
 40
1
 40
1
 10
388.655278
 20
75.847222
 30
0.0
 10
386.044722
 20
75.847222
 30
0.0
 10
385.974167
 20
75.847222
 30
0.0
 10
385.797778
 20
74.894722
 30
0.0
  0
SPLINE
  5
1e5
100
AcDbEntity
  8
0
 62
7
100
AcDbSpline
 70
8
 71
3
 72
8
 73
4
 74
0
 40
0
 40
0
 40
0
 40
0
 40
1
 40
1
 40
1
 40
1
 10
385.797778
 20
74.894722
 30
0.0
 10
385.515556
 20
73.589444
 30
0.0
 10
380.647222
 20
43.003611
 30
0.0
 10
380.647222
 20
42.615556
 30
0.0
  0
SPLINE
  5
1e6
100
AcDbEntity
  8
0
 62
7
100
AcDbSpline
 70
8
 71
3
 72
8
 73
4
 74
0
 40
0
 40
0
 40
0
 40
0
 40
1
 40
1
 40
1
 40
1
 10
380.647222
 20
42.615556
 30
0.0
 10
380.647222
 20
42.474444
 30
0.0
 10
376.378611
 20
42.333333
 30
0.0
 10
371.122222
 20
42.333333
 30
0.0
  0
SPLINE
  5
1e7
100
AcDbEntity
  8
0
 62
7
100
AcDbSpline
 70
8
 71
3
 72
8
 73
4
 74
0
 40
0
 40
0
 40
0
 40
0
 40
1
 40
1
 40
1
 40
1
 10
371.122222
 20
42.333333
 30
0.0
 10
363.114167
 20
42.333333
 30
0.0
 10
361.597222
 20
42.403889
 30
0.0
 10
361.597222
 20
42.827222
 30
0.0
  0
SPLINE
  5
1e8
100
AcDbEntity
  8
0
 62
7
100
AcDbSpline
 70
8
 71
3
 72
8
 73
4
 74
0
 40
0
 40
0
 40
0
 40
0
 40
1
 40
1
 40
1
 40
1
 10
361.597222
 20
42.827222
 30
0.0
 10
361.597222
 20
43.356389
 30
0.0
 10
374.156111
 20
123.295833
 30
0.0
 10
374.508889
 20
125.024444
 30
0.0
  0
LWPOLYLINE
  5
1e9
100
AcDbEntity
  8
0
 62
7
100
AcDbPolyline
 90
1
 70
1
 10
331.611111
 20
125.377222
 30
0.0
  0
SPLINE
  5
1ea
100
AcDbEntity
  8
0
 62
7
100
AcDbSpline
 70
8
 71
3
 72
8
 73
4
 74
0
 40
0
 40
0
 40
0
 40
0
 40
1
 40
1
 40
1
 40
1
 10
388.020278
 20
125.835833
 30
0.0
 10
398.180278
 20
125.694722
 30
0.0
 10
401.990278
 20
125.518333
 30
0.0
 10
404.212778
 20
125.095000
 30
0.0
  0
LWPOLYLINE
  5
1eb
100
AcDbEntity
  8
0
 62
7
100
AcDbPolyline
 90
3
 70
0
 10
374.508889
 20
125.024444
 30
0.0
 10
374.720556
 20
126.012222
 30
0.0
 10
388.020278
 20
125.835833
 30
0.0
  0
SPLINE
  5
1ec
100
AcDbEntity
  8
0
 62
7
100
AcDbSpline
 70
8
 71
3
 72
8
 73
4
 74
0
 40
0
 40
0
 40
0
 40
0
 40
1
 40
1
 40
1
 40
1
 10
455.083333
 20
125.694722
 30
0.0
 10
455.083333
 20
125.518333
 30
0.0
 10
452.120000
 20
106.715278
 30
0.0
 10
448.486389
 20
83.890556
 30
0.0
  0
LWPOLYLINE
  5
1ed
100
AcDbEntity
  8
0
 62
7
100
AcDbPolyline
 90
1
 70
1
 10
404.212778
 20
125.095000
 30
0.0
  0
SPLINE
  5
1ee
100
AcDbEntity
  8
0
 62
7
100
AcDbSpline
 70
8
 71
3
 72
8
 73
4
 74
0
 40
0
 40
0
 40
0
 40
0
 40
1
 40
1
 40
1
 40
1
 10
429.365833
 20
84.066944
 30
0.0
 10
432.999444
 20
106.997500
 30
0.0
 10
435.998056
 20
125.800556
 30
0.0
 10
435.998056
 20
125.871111
 30
0.0
  0
SPLINE
  5
1ef
100
AcDbEntity
  8
0
 62
7
100
AcDbSpline
 70
8
 71
3
 72
8
 73
4
 74
0
 40
0
 40
0
 40
0
 40
0
 40
1
 40
1
 40
1
 40
1
 10
435.998056
 20
125.871111
 30
0.0
 10
436.068611
 20
126.082778
 30
0.0
 10
455.083333
 20
125.906389
 30
0.0
 10
455.083333
 20
125.694722
 30
0.0
  0
LWPOLYLINE
  5
1f0
100
AcDbEntity
  8
0
 62
7
100
AcDbPolyline
 90
5
 70
0
 10
448.486389
 20
83.890556
 30
0.0
 10
441.889444
 20
42.333333
 30
0.0
 10
432.329167
 20
42.333333
 30
0.0
 10
422.768889
 20
42.333333
 30
0.0
 10
429.365833
 20
84.066944
 30
0.0
  0
SPLINE
  5
1f1
100
AcDbEntity
  8
0
 62
7
100
AcDbSpline
 70
8
 71
3
 72
8
 73
4
 74
0
 40
0
 40
0
 40
0
 40
0
 40
1
 40
1
 40
1
 40
1
 10
546.981944
 20
114.829167
 30
0.0
 10
546.805556
 20
114.758611
 30
0.0
 10
546.029444
 20
114.617500
 30
0.0
 10
545.288611
 20
114.476389
 30
0.0
  0
SPLINE
  5
1f2
100
AcDbEntity
  8
0
 62
7
100
AcDbSpline
 70
8
 71
3
 72
8
 73
4
 74
0
 40
0
 40
0
 40
0
 40
0
 40
1
 40
1
 40
1
 40
1
 10
545.288611
 20
114.476389
 30
0.0
 10
543.701111
 20
114.229444
 30
0.0
 10
541.584444
 20
112.465556
 30
0.0
 10
540.914167
 20
110.878056
 30
0.0
  0
SPLINE
  5
1f3
100
AcDbEntity
  8
0
 62
7
100
AcDbSpline
 70
8
 71
3
 72
8
 73
4
 74
0
 40
0
 40
0
 40
0
 40
0
 40
1
 40
1
 40
1
 40
1
 10
540.914167
 20
110.878056
 30
0.0
 10
540.455556
 20
109.713889
 30
0.0
 10
532.341667
 20
59.795833
 30
0.0
 10
532.341667
 20
58.031944
 30
0.0
  0
SPLINE
  5
1f4
100
AcDbEntity
  8
0
 62
7
100
AcDbSpline
 70
8
 71
3
 72
8
 73
4
 74
0
 40
0
 40
0
 40
0
 40
0
 40
1
 40
1
 40
1
 40
1
 10
532.341667
 20
58.031944
 30
0.0
 10
532.341667
 20
55.103889
 30
0.0
 10
534.317222
 20
53.481111
 30
0.0
 10
537.986111
 20
53.445833
 30
0.0
  0
SPLINE
  5
1f5
100
AcDbEntity
  8
0
 62
7
100
AcDbSpline
 70
8
 71
3
 72
8
 73
4
 74
0
 40
0
 40
0
 40
0
 40
0
 40
1
 40
1
 40
1
 40
1
 10
537.986111
 20
53.445833
 30
0.0
 10
541.725556
 20
53.445833
 30
0.0
 10
544.159722
 20
55.209722
 30
0.0
 10
545.006389
 20
58.525833
 30
0.0
  0
SPLINE
  5
1f6
100
AcDbEntity
  8
0
 62
7
100
AcDbSpline
 70
8
 71
3
 72
8
 73
4
 74
0
 40
0
 40
0
 40
0
 40
0
 40
1
 40
1
 40
1
 40
1
 10
545.006389
 20
58.525833
 30
0.0
 10
545.500278
 20
60.325000
 30
0.0
 10
553.155556
 20
109.325833
 30
0.0
 10
553.155556
 20
110.525278
 30
0.0
  0
SPLINE
  5
1f7
100
AcDbEntity
  8
0
 62
7
100
AcDbSpline
 70
8
 71
3
 72
8
 73
4
 74
0
 40
0
 40
0
 40
0
 40
0
 40
1
 40
1
 40
1
 40
1
 10
553.155556
 20
110.525278
 30
0.0
 10
553.155556
 20
111.936389
 30
0.0
 10
552.238333
 20
113.488611
 30
0.0
 10
551.109444
 20
114.053056
 30
0.0
  0
SPLINE
  5
1f8
100
AcDbEntity
  8
0
 62
7
100
AcDbSpline
 70
8
 71
3
 72
8
 73
4
 74
0
 40
0
 40
0
 40
0
 40
0
 40
1
 40
1
 40
1
 40
1
 10
551.109444
 20
114.053056
 30
0.0
 10
550.121667
 20
114.582222
 30
0.0
 10
547.616944
 20
115.040833
 30
0.0
 10
546.981944
 20
114.829167
 30
0.0
  0
LWPOLYLINE
  5
1f9
100
AcDbEntity
  8
0
 62
7
100
AcDbPolyline
 90
1
 70
1
 10
455.083333
 20
125.694722
 30
0.0
  0
SPLINE
  5
1fa
100
AcDbEntity
  8
0
 62
7
100
AcDbSpline
 70
8
 71
3
 72
8
 73
4
 74
0
 40
0
 40
0
 40
0
 40
0
 40
1
 40
1
 40
1
 40
1
 10
115.217222
 20
112.500833
 30
0.0
 10
114.158889
 20
106.433056
 30
0.0
 10
111.901111
 20
91.510556
 30
0.0
 10
112.042222
 20
91.404722
 30
0.0
  0
SPLINE
  5
1fb
100
AcDbEntity
  8
0
 62
7
100
AcDbSpline
 70
8
 71
3
 72
8
 73
4
 74
0
 40
0
 40
0
 40
0
 40
0
 40
1
 40
1
 40
1
 40
1
 10
112.042222
 20
91.404722
 30
0.0
 10
112.359722
 20
91.087222
 30
0.0
 10
118.850833
 20
92.075000
 30
0.0
 10
120.367778
 20
92.674722
 30
0.0
  0
SPLINE
  5
1fc
100
AcDbEntity
  8
0
 62
7
100
AcDbSpline
 70
8
 71
3
 72
8
 73
4
 74
0
 40
0
 40
0
 40
0
 40
0
 40
1
 40
1
 40
1
 40
1
 10
120.367778
 20
92.674722
 30
0.0
 10
124.989167
 20
94.473889
 30
0.0
 10
127.352778
 20
98.036944
 30
0.0
 10
127.917222
 20
104.104722
 30
0.0
  0
SPLINE
  5
1fd
100
AcDbEntity
  8
0
 62
7
100
AcDbSpline
 70
8
 71
3
 72
8
 73
4
 74
0
 40
0
 40
0
 40
0
 40
0
 40
1
 40
1
 40
1
 40
1
 10
127.917222
 20
104.104722
 30
0.0
 10
128.481667
 20
109.996111
 30
0.0
 10
125.412500
 20
112.994722
 30
0.0
 10
118.286389
 20
113.488611
 30
0.0
  0
LWPOLYLINE
  5
1fe
100
AcDbEntity
  8
0
 62
7
100
AcDbPolyline
 90
1
 70
1
 10
546.981944
 20
114.829167
 30
0.0
  0
SPLINE
  5
1ff
100
AcDbEntity
  8
0
 62
7
100
AcDbSpline
 70
8
 71
3
 72
8
 73
4
 74
0
 40
0
 40
0
 40
0
 40
0
 40
1
 40
1
 40
1
 40
1
 10
110.066667
 20
80.010000
 30
0.0
 10
108.196944
 20
69.356111
 30
0.0
 10
106.045000
 20
54.574722
 30
0.0
 10
106.362500
 20
54.468889
 30
0.0
  0
SPLINE
  5
200
100
AcDbEntity
  8
0
 62
7
100
AcDbSpline
 70
8
 71
3
 72
8
 73
4
 74
0
 40
0
 40
0
 40
0
 40
0
 40
1
 40
1
 40
1
 40
1
 10
106.362500
 20
54.468889
 30
0.0
 10
106.574167
 20
54.363056
 30
0.0
 10
108.161667
 20
54.468889
 30
0.0
 10
109.925556
 20
54.680556
 30
0.0
  0
SPLINE
  5
201
100
AcDbEntity
  8
0
 62
7
100
AcDbSpline
 70
8
 71
3
 72
8
 73
4
 74
0
 40
0
 40
0
 40
0
 40
0
 40
1
 40
1
 40
1
 40
1
 10
109.925556
 20
54.680556
 30
0.0
 10
115.111389
 20
55.245000
 30
0.0
 10
118.427500
 20
57.361667
 30
0.0
 10
120.438333
 20
61.312778
 30
0.0
  0
SPLINE
  5
202
100
AcDbEntity
  8
0
 62
7
100
AcDbSpline
 70
8
 71
3
 72
8
 73
4
 74
0
 40
0
 40
0
 40
0
 40
0
 40
1
 40
1
 40
1
 40
1
 10
120.438333
 20
61.312778
 30
0.0
 10
122.237500
 20
64.840556
 30
0.0
 10
122.943056
 20
71.684444
 30
0.0
 10
121.849444
 20
74.894722
 30
0.0
  0
SPLINE
  5
203
100
AcDbEntity
  8
0
 62
7
100
AcDbSpline
 70
8
 71
3
 72
8
 73
4
 74
0
 40
0
 40
0
 40
0
 40
0
 40
1
 40
1
 40
1
 40
1
 10
121.849444
 20
74.894722
 30
0.0
 10
120.720556
 20
78.175556
 30
0.0
 10
117.298611
 20
80.080556
 30
0.0
 10
112.465556
 20
80.080556
 30
0.0
  0
SPLINE
  5
204
100
AcDbEntity
  8
0
 62
7
100
AcDbSpline
 70
8
 71
3
 72
8
 73
4
 74
0
 40
0
 40
0
 40
0
 40
0
 40
1
 40
1
 40
1
 40
1
 10
112.465556
 20
80.080556
 30
0.0
 10
111.160278
 20
80.080556
 30
0.0
 10
110.066667
 20
80.045278
 30
0.0
 10
110.066667
 20
80.010000
 30
0.0
  0
LWPOLYLINE
  5
205
100
AcDbEntity
  8
0
 62
7
100
AcDbPolyline
 90
4
 70
0
 10
118.286389
 20
113.488611
 30
0.0
 10
115.393611
 20
113.700278
 30
0.0
 10
115.217222
 20
112.500833
 30
0.0
 10
115.217222
 20
112.500833
 30
0.0
  0
SPLINE
  5
206
100
AcDbEntity
  8
0
 62
7
100
AcDbSpline
 70
8
 71
3
 72
8
 73
4
 74
0
 40
0
 40
0
 40
0
 40
0
 40
1
 40
1
 40
1
 40
1
 10
391.865556
 20
113.030000
 30
0.0
 10
391.477500
 20
112.359722
 30
0.0
 10
387.914444
 20
88.547222
 30
0.0
 10
388.161389
 20
88.300278
 30
0.0
  0
SPLINE
  5
207
100
AcDbEntity
  8
0
 62
7
100
AcDbSpline
 70
8
 71
3
 72
8
 73
4
 74
0
 40
0
 40
0
 40
0
 40
0
 40
1
 40
1
 40
1
 40
1
 10
388.161389
 20
88.300278
 30
0.0
 10
388.549444
 20
87.912222
 30
0.0
 10
395.393333
 20
88.794167
 30
0.0
 10
397.404167
 20
89.464444
 30
0.0
  0
SPLINE
  5
208
100
AcDbEntity
  8
0
 62
7
100
AcDbSpline
 70
8
 71
3
 72
8
 73
4
 74
0
 40
0
 40
0
 40
0
 40
0
 40
1
 40
1
 40
1
 40
1
 10
397.404167
 20
89.464444
 30
0.0
 10
399.697222
 20
90.275833
 30
0.0
 10
402.131389
 20
92.745278
 30
0.0
 10
402.978056
 20
95.073611
 30
0.0
  0
SPLINE
  5
209
100
AcDbEntity
  8
0
 62
7
100
AcDbSpline
 70
8
 71
3
 72
8
 73
4
 74
0
 40
0
 40
0
 40
0
 40
0
 40
1
 40
1
 40
1
 40
1
 10
402.978056
 20
95.073611
 30
0.0
 10
403.824722
 20
97.543056
 30
0.0
 10
404.636111
 20
102.411389
 30
0.0
 10
404.636111
 20
105.127778
 30
0.0
  0
SPLINE
  5
20a
100
AcDbEntity
  8
0
 62
7
100
AcDbSpline
 70
8
 71
3
 72
8
 73
4
 74
0
 40
0
 40
0
 40
0
 40
0
 40
1
 40
1
 40
1
 40
1
 10
404.636111
 20
105.127778
 30
0.0
 10
404.636111
 20
109.008333
 30
0.0
 10
402.836944
 20
111.513056
 30
0.0
 10
399.379722
 20
112.571389
 30
0.0
  0
SPLINE
  5
20b
100
AcDbEntity
  8
0
 62
7
100
AcDbSpline
 70
8
 71
3
 72
8
 73
4
 74
0
 40
0
 40
0
 40
0
 40
0
 40
1
 40
1
 40
1
 40
1
 10
399.379722
 20
112.571389
 30
0.0
 10
397.686389
 20
113.065278
 30
0.0
 10
392.077222
 20
113.418056
 30
0.0
 10
391.865556
 20
113.030000
 30
0.0
  0
LWPOLYLINE
  5
20c
100
AcDbEntity
  8
0
 62
7
100
AcDbPolyline
 90
1
 70
1
 10
110.066667
 20
80.010000
 30
0.0
  0
LWPOLYLINE
  5
20d
100
AcDbEntity
  8
0
 62
7
100
AcDbPolyline
 90
1
 70
1
 10
391.865556
 20
113.030000
 30
0.0
  0
ENDSEC
  0
SECTION
  2
OBJECTS
  0
DICTIONARY
  5
C
330
0
100
AcDbDictionary
  3
ACAD_GROUP
350
D
  3
ACAD_MLINESTYLE
350
17
  0
DICTIONARY
  5
D
330
C
100
AcDbDictionary
  0
DICTIONARY
  5
1A
330
C
100
AcDbDictionary
  0
DICTIONARY
  5
17
330
C
100
AcDbDictionary
  3
STANDARD
350
18
  0
DICTIONARY
  5
19
330
C
100
AcDbDictionary
  0
ENDSEC
  0
EOF
