  0
SECTION
  2
HEADER
  9
$ACADVER
  1
AC1014
  9
$HANDSEED
  5
FFFF
  9
$MEASUREMENT
 70
     1
  0
ENDSEC
  0
SECTION
  2
TABLES
  0
TABLE
  2
VPORT
  5
8
330
0
100
AcDbSymbolTable
 70
     4
  0
VPORT
  5
2E
330
8
100
AcDbSymbolTableRecord
100
AcDbViewportTableRecord
  2
*ACTIVE
 70
     0
 10
0.0
 20
0.0
 11
1.0
 21
1.0
 12
210.0
 22
148.5
 13
0.0
 23
0.0
 14
10.0
 24
10.0
 15
10.0
 25
10.0
 16
0.0
 26
0.0
 36
1.0
 17
0.0
 27
0.0
 37
0.0
 40
341.0
 41
1.24
 42
50.0
 43
0.0
 44
0.0
 50
0.0
 51
0.0
 71
     0
 72
   100
 73
     1
 74
     3
 75
     0
 76
     0
 77
     0
 78
     0
  0
ENDTAB
  0
TABLE
  2
LTYPE
  5
5
330
0
100
AcDbSymbolTable
 70
     1
  0
LTYPE
  5
14
330
5
100
AcDbSymbolTableRecord
100
AcDbLinetypeTableRecord
  2
BYBLOCK
 70
     0
  3

 72
    65
 73
     0
 40
0.0
  0
LTYPE
  5
15
330
5
100
AcDbSymbolTableRecord
100
AcDbLinetypeTableRecord
  2
BYLAYER
 70
     0
  3

 72
    65
 73
     0
 40
0.0
  0
LTYPE
  5
16
330
5
100
AcDbSymbolTableRecord
100
AcDbLinetypeTableRecord
  2
CONTINUOUS
 70
     0
  3
Solid line
 72
    65
 73
     0
 40
0.0
  0
ENDTAB
  0
TABLE
  2
LAYER
  5
2
100
AcDbSymbolTable
 70
1
  0
LAYER
  5
50
100
AcDbSymbolTableRecord
100
AcDbLayerTableRecord
  2
0
 70
0
  6
CONTINUOUS
  0
ENDTAB
  0
TABLE
  2
STYLE
  5
3
330
0
100
AcDbSymbolTable
 70
     1
  0
STYLE
  5
11
330
3
100
AcDbSymbolTableRecord
100
AcDbTextStyleTableRecord
  2
STANDARD
 70
     0
 40
0.0
 41
1.0
 50
0.0
 71
     0
 42
2.5
  3
txt
  4

  0
ENDTAB
  0
TABLE
  2
VIEW
  5
6
330
0
100
AcDbSymbolTable
 70
     0
  0
ENDTAB
  0
TABLE
  2
UCS
  5
7
330
0
100
AcDbSymbolTable
 70
     0
  0
ENDTAB
  0
TABLE
  2
APPID
  5
9
330
0
100
AcDbSymbolTable
 70
     2
  0
APPID
  5
12
330
9
100
AcDbSymbolTableRecord
100
AcDbRegAppTableRecord
  2
ACAD
 70
     0
  0
ENDTAB
  0
TABLE
  2
DIMSTYLE
  5
A
330
0
100
AcDbSymbolTable
 70
     1
  0
DIMSTYLE
105
27
330
A
100
AcDbSymbolTableRecord
100
AcDbDimStyleTableRecord
  2
ISO-25
 70
     0
  3

  4

  5

  6

  7

 40
1.0
 41
2.5
 42
0.625
 43
3.75
 44
1.25
 45
0.0
 46
0.0
 47
0.0
 48
0.0
140
2.5
141
2.5
142
0.0
143
0.03937007874016
144
1.0
145
0.0
146
1.0
147
0.625
 71
     0
 72
     0
 73
     0
 74
     0
 75
     0
 76
     0
 77
     1
 78
     8
170
     0
171
     3
172
     1
173
     0
174
     0
175
     0
176
     0
177
     0
178
     0
270
     2
271
     2
272
     2
273
     2
274
     3
340
11
275
     0
280
     0
281
     0
282
     0
283
     0
284
     8
285
     0
286
     0
287
     3
288
     0
  0
ENDTAB
  0
TABLE
  2
BLOCK_RECORD
  5
1
330
0
100
AcDbSymbolTable
 70
     1
  0
BLOCK_RECORD
  5
1F
330
1
100
AcDbSymbolTableRecord
100
AcDbBlockTableRecord
  2
*MODEL_SPACE
  0
BLOCK_RECORD
  5
1B
330
1
100
AcDbSymbolTableRecord
100
AcDbBlockTableRecord
  2
*PAPER_SPACE
  0
ENDTAB
  0
ENDSEC
  0
SECTION
  2
BLOCKS
  0
BLOCK
  5
20
330
1F
100
AcDbEntity
  8
0
100
AcDbBlockBegin
  2
*MODEL_SPACE
 70
     0
 10
0.0
 20
0.0
 30
0.0
  3
*MODEL_SPACE
  1

  0
ENDBLK
  5
21
330
1F
100
AcDbEntity
  8
0
100
AcDbBlockEnd
  0
BLOCK
  5
1C
330
1B
100
AcDbEntity
 67
     1
  8
0
100
AcDbBlockBegin
  2
*PAPER_SPACE
  1

  0
ENDBLK
  5
1D
330
1B
100
AcDbEntity
 67
     1
  8
0
100
AcDbBlockEnd
  0
ENDSEC
  0
SECTION
  2
ENTITIES
  0
SPLINE
  5
100
100
AcDbEntity
  8
0
 62
7
100
AcDbSpline
 70
8
 71
3
 72
8
 73
4
 74
0
 40
0
 40
0
 40
0
 40
0
 40
1
 40
1
 40
1
 40
1
 10
306.563889
 20
181.327778
 30
0.0
 10
321.945000
 20
180.869167
 30
0.0
 10
342.688333
 20
180.022500
 30
0.0
 10
355.070833
 20
179.387500
 30
0.0
  0
SPLINE
  5
101
100
AcDbEntity
  8
0
 62
7
100
AcDbSpline
 70
8
 71
3
 72
8
 73
4
 74
0
 40
0
 40
0
 40
0
 40
0
 40
1
 40
1
 40
1
 40
1
 10
355.070833
 20
179.387500
 30
0.0
 10
369.852222
 20
178.611389
 30
0.0
 10
382.693333
 20
177.835278
 30
0.0
 10
384.810000
 20
177.588333
 30
0.0
  0
LWPOLYLINE
  5
102
100
AcDbEntity
  8
0
 62
7
100
AcDbPolyline
 90
9
 70
1
 10
0.000000
 20
102.658333
 30
0.0
 10
0.000000
 20
0.000000
 30
0.0
 10
303.918056
 20
0.000000
 30
0.0
 10
607.836111
 20
0.000000
 30
0.0
 10
607.836111
 20
102.658333
 30
0.0
 10
607.836111
 20
205.316667
 30
0.0
 10
303.918056
 20
205.316667
 30
0.0
 10
0.000000
 20
205.316667
 30
0.0
 10
0.000000
 20
102.658333
 30
0.0
  0
SPLINE
  5
103
100
AcDbEntity
  8
0
 62
7
100
AcDbSpline
 70
8
 71
3
 72
8
 73
4
 74
0
 40
0
 40
0
 40
0
 40
0
 40
1
 40
1
 40
1
 40
1
 10
385.303889
 20
167.569444
 30
0.0
 10
384.563056
 20
167.569444
 30
0.0
 10
378.883333
 20
167.886944
 30
0.0
 10
372.709722
 20
168.275000
 30
0.0
  0
SPLINE
  5
104
100
AcDbEntity
  8
0
 62
7
100
AcDbSpline
 70
8
 71
3
 72
8
 73
4
 74
0
 40
0
 40
0
 40
0
 40
0
 40
1
 40
1
 40
1
 40
1
 10
372.709722
 20
168.275000
 30
0.0
 10
329.318056
 20
170.956111
 30
0.0
 10
292.170556
 20
171.979167
 30
0.0
 10
250.472222
 20
171.696944
 30
0.0
  0
SPLINE
  5
105
100
AcDbEntity
  8
0
 62
7
100
AcDbSpline
 70
8
 71
3
 72
8
 73
4
 74
0
 40
0
 40
0
 40
0
 40
0
 40
1
 40
1
 40
1
 40
1
 10
250.472222
 20
171.696944
 30
0.0
 10
222.885000
 20
171.485278
 30
0.0
 10
213.995000
 20
171.273611
 30
0.0
 10
195.474167
 20
170.215278
 30
0.0
  0
SPLINE
  5
106
100
AcDbEntity
  8
0
 62
7
100
AcDbSpline
 70
8
 71
3
 72
8
 73
4
 74
0
 40
0
 40
0
 40
0
 40
0
 40
1
 40
1
 40
1
 40
1
 10
195.474167
 20
170.215278
 30
0.0
 10
190.358889
 20
169.933056
 30
0.0
 10
186.125556
 20
169.721389
 30
0.0
 10
186.090278
 20
169.756667
 30
0.0
  0
SPLINE
  5
107
100
AcDbEntity
  8
0
 62
7
100
AcDbSpline
 70
8
 71
3
 72
8
 73
4
 74
0
 40
0
 40
0
 40
0
 40
0
 40
1
 40
1
 40
1
 40
1
 10
186.090278
 20
169.756667
 30
0.0
 10
186.019722
 20
169.827222
 30
0.0
 10
186.407778
 20
172.120278
 30
0.0
 10
186.901667
 20
174.836667
 30
0.0
  0
LWPOLYLINE
  5
108
100
AcDbEntity
  8
0
 62
7
100
AcDbPolyline
 90
5
 70
0
 10
384.810000
 20
177.588333
 30
0.0
 10
386.644444
 20
177.411944
 30
0.0
 10
386.644444
 20
172.473056
 30
0.0
 10
386.644444
 20
167.569444
 30
0.0
 10
385.303889
 20
167.569444
 30
0.0
  0
SPLINE
  5
109
100
AcDbEntity
  8
0
 62
7
100
AcDbSpline
 70
8
 71
3
 72
8
 73
4
 74
0
 40
0
 40
0
 40
0
 40
0
 40
1
 40
1
 40
1
 40
1
 10
190.464722
 20
180.057778
 30
0.0
 10
195.791667
 20
180.481111
 30
0.0
 10
217.769722
 20
181.363056
 30
0.0
 10
230.011111
 20
181.680556
 30
0.0
  0
SPLINE
  5
10a
100
AcDbEntity
  8
0
 62
7
100
AcDbSpline
 70
8
 71
3
 72
8
 73
4
 74
0
 40
0
 40
0
 40
0
 40
0
 40
1
 40
1
 40
1
 40
1
 10
230.011111
 20
181.680556
 30
0.0
 10
245.004167
 20
182.033333
 30
0.0
 10
290.018611
 20
181.821667
 30
0.0
 10
306.563889
 20
181.327778
 30
0.0
  0
LWPOLYLINE
  5
10b
100
AcDbEntity
  8
0
 62
7
100
AcDbPolyline
 90
3
 70
0
 10
186.901667
 20
174.836667
 30
0.0
 10
187.783611
 20
179.846111
 30
0.0
 10
190.464722
 20
180.057778
 30
0.0
  0
SPLINE
  5
10c
100
AcDbEntity
  8
0
 62
7
100
AcDbSpline
 70
8
 71
3
 72
8
 73
4
 74
0
 40
0
 40
0
 40
0
 40
0
 40
1
 40
1
 40
1
 40
1
 10
177.306111
 20
178.258611
 30
0.0
 10
177.200278
 20
177.694167
 30
0.0
 10
176.776944
 20
175.401111
 30
0.0
 10
176.353611
 20
173.143333
 30
0.0
  0
LWPOLYLINE
  5
10d
100
AcDbEntity
  8
0
 62
7
100
AcDbPolyline
 90
1
 70
1
 10
306.563889
 20
181.327778
 30
0.0
  0
SPLINE
  5
10e
100
AcDbEntity
  8
0
 62
7
100
AcDbSpline
 70
8
 71
3
 72
8
 73
4
 74
0
 40
0
 40
0
 40
0
 40
0
 40
1
 40
1
 40
1
 40
1
 10
174.307500
 20
168.839444
 30
0.0
 10
173.601944
 20
168.733611
 30
0.0
 10
171.520556
 20
168.557222
 30
0.0
 10
169.686111
 20
168.451389
 30
0.0
  0
SPLINE
  5
10f
100
AcDbEntity
  8
0
 62
7
100
AcDbSpline
 70
8
 71
3
 72
8
 73
4
 74
0
 40
0
 40
0
 40
0
 40
0
 40
1
 40
1
 40
1
 40
1
 10
169.686111
 20
168.451389
 30
0.0
 10
167.851667
 20
168.310278
 30
0.0
 10
166.052500
 20
168.133889
 30
0.0
 10
165.735000
 20
168.063333
 30
0.0
  0
SPLINE
  5
110
100
AcDbEntity
  8
0
 62
7
100
AcDbSpline
 70
8
 71
3
 72
8
 73
4
 74
0
 40
0
 40
0
 40
0
 40
0
 40
1
 40
1
 40
1
 40
1
 10
165.735000
 20
168.063333
 30
0.0
 10
165.135278
 20
167.886944
 30
0.0
 10
165.100000
 20
168.275000
 30
0.0
 10
165.100000
 20
173.002222
 30
0.0
  0
SPLINE
  5
111
100
AcDbEntity
  8
0
 62
7
100
AcDbSpline
 70
8
 71
3
 72
8
 73
4
 74
0
 40
0
 40
0
 40
0
 40
0
 40
1
 40
1
 40
1
 40
1
 10
165.100000
 20
173.002222
 30
0.0
 10
165.100000
 20
177.658889
 30
0.0
 10
165.170556
 20
178.152778
 30
0.0
 10
165.735000
 20
178.188056
 30
0.0
  0
SPLINE
  5
112
100
AcDbEntity
  8
0
 62
7
100
AcDbSpline
 70
8
 71
3
 72
8
 73
4
 74
0
 40
0
 40
0
 40
0
 40
0
 40
1
 40
1
 40
1
 40
1
 10
165.735000
 20
178.188056
 30
0.0
 10
166.052500
 20
178.188056
 30
0.0
 10
168.486667
 20
178.435000
 30
0.0
 10
171.097222
 20
178.681944
 30
0.0
  0
SPLINE
  5
113
100
AcDbEntity
  8
0
 62
7
100
AcDbSpline
 70
8
 71
3
 72
8
 73
4
 74
0
 40
0
 40
0
 40
0
 40
0
 40
1
 40
1
 40
1
 40
1
 10
171.097222
 20
178.681944
 30
0.0
 10
178.082222
 20
179.316944
 30
0.0
 10
177.553056
 20
179.387500
 30
0.0
 10
177.306111
 20
178.258611
 30
0.0
  0
LWPOLYLINE
  5
114
100
AcDbEntity
  8
0
 62
7
100
AcDbPolyline
 90
3
 70
0
 10
176.353611
 20
173.143333
 30
0.0
 10
175.612778
 20
169.015833
 30
0.0
 10
174.307500
 20
168.839444
 30
0.0
  0
LWPOLYLINE
  5
115
100
AcDbEntity
  8
0
 62
7
100
AcDbPolyline
 90
1
 70
1
 10
177.306111
 20
178.258611
 30
0.0
  0
SPLINE
  5
116
100
AcDbEntity
  8
0
 62
7
100
AcDbSpline
 70
8
 71
3
 72
8
 73
4
 74
0
 40
0
 40
0
 40
0
 40
0
 40
1
 40
1
 40
1
 40
1
 10
148.978056
 20
166.264167
 30
0.0
 10
145.697222
 20
165.876111
 30
0.0
 10
143.016111
 20
165.558611
 30
0.0
 10
142.945556
 20
165.629167
 30
0.0
  0
SPLINE
  5
117
100
AcDbEntity
  8
0
 62
7
100
AcDbSpline
 70
8
 71
3
 72
8
 73
4
 74
0
 40
0
 40
0
 40
0
 40
0
 40
1
 40
1
 40
1
 40
1
 10
142.945556
 20
165.629167
 30
0.0
 10
142.804444
 20
165.735000
 30
0.0
 10
141.816667
 20
173.601944
 30
0.0
 10
141.816667
 20
174.625000
 30
0.0
  0
LWPOLYLINE
  5
118
100
AcDbEntity
  8
0
 62
7
100
AcDbPolyline
 90
3
 70
0
 10
154.869444
 20
172.049722
 30
0.0
 10
154.869444
 20
167.005000
 30
0.0
 10
148.978056
 20
166.264167
 30
0.0
  0
SPLINE
  5
119
100
AcDbEntity
  8
0
 62
7
100
AcDbSpline
 70
8
 71
3
 72
8
 73
4
 74
0
 40
0
 40
0
 40
0
 40
0
 40
1
 40
1
 40
1
 40
1
 10
147.566944
 20
176.318333
 30
0.0
 10
150.706667
 20
176.706389
 30
0.0
 10
153.634722
 20
177.023889
 30
0.0
 10
154.093333
 20
177.059167
 30
0.0
  0
SPLINE
  5
11a
100
AcDbEntity
  8
0
 62
7
100
AcDbSpline
 70
8
 71
3
 72
8
 73
4
 74
0
 40
0
 40
0
 40
0
 40
0
 40
1
 40
1
 40
1
 40
1
 10
154.093333
 20
177.059167
 30
0.0
 10
154.869444
 20
177.094444
 30
0.0
 10
154.869444
 20
177.059167
 30
0.0
 10
154.869444
 20
172.049722
 30
0.0
  0
LWPOLYLINE
  5
11b
100
AcDbEntity
  8
0
 62
7
100
AcDbPolyline
 90
3
 70
0
 10
141.816667
 20
174.625000
 30
0.0
 10
141.816667
 20
175.577500
 30
0.0
 10
147.566944
 20
176.318333
 30
0.0
  0
SPLINE
  5
11c
100
AcDbEntity
  8
0
 62
7
100
AcDbSpline
 70
8
 71
3
 72
8
 73
4
 74
0
 40
0
 40
0
 40
0
 40
0
 40
1
 40
1
 40
1
 40
1
 10
403.401389
 20
176.353611
 30
0.0
 10
406.505833
 20
176.141944
 30
0.0
 10
409.151667
 20
175.859722
 30
0.0
 10
409.292778
 20
175.718611
 30
0.0
  0
SPLINE
  5
11d
100
AcDbEntity
  8
0
 62
7
100
AcDbSpline
 70
8
 71
3
 72
8
 73
4
 74
0
 40
0
 40
0
 40
0
 40
0
 40
1
 40
1
 40
1
 40
1
 10
409.292778
 20
175.718611
 30
0.0
 10
409.504444
 20
175.506944
 30
0.0
 10
408.728333
 20
166.264167
 30
0.0
 10
408.446111
 20
165.981944
 30
0.0
  0
SPLINE
  5
11e
100
AcDbEntity
  8
0
 62
7
100
AcDbSpline
 70
8
 71
3
 72
8
 73
4
 74
0
 40
0
 40
0
 40
0
 40
0
 40
1
 40
1
 40
1
 40
1
 10
408.446111
 20
165.981944
 30
0.0
 10
408.340278
 20
165.876111
 30
0.0
 10
405.659167
 20
166.017222
 30
0.0
 10
402.484167
 20
166.228889
 30
0.0
  0
LWPOLYLINE
  5
11f
100
AcDbEntity
  8
0
 62
7
100
AcDbPolyline
 90
1
 70
1
 10
154.869444
 20
172.049722
 30
0.0
  0
SPLINE
  5
120
100
AcDbEntity
  8
0
 62
7
100
AcDbSpline
 70
8
 71
3
 72
8
 73
4
 74
0
 40
0
 40
0
 40
0
 40
0
 40
1
 40
1
 40
1
 40
1
 10
396.592778
 20
171.732222
 30
0.0
 10
396.522222
 20
176.318333
 30
0.0
 10
396.557500
 20
176.741667
 30
0.0
 10
397.121944
 20
176.741667
 30
0.0
  0
SPLINE
  5
121
100
AcDbEntity
  8
0
 62
7
100
AcDbSpline
 70
8
 71
3
 72
8
 73
4
 74
0
 40
0
 40
0
 40
0
 40
0
 40
1
 40
1
 40
1
 40
1
 10
397.121944
 20
176.741667
 30
0.0
 10
397.474722
 20
176.741667
 30
0.0
 10
400.296944
 20
176.565278
 30
0.0
 10
403.401389
 20
176.353611
 30
0.0
  0
LWPOLYLINE
  5
122
100
AcDbEntity
  8
0
 62
7
100
AcDbPolyline
 90
3
 70
0
 10
402.484167
 20
166.228889
 30
0.0
 10
396.698611
 20
166.687500
 30
0.0
 10
396.592778
 20
171.732222
 30
0.0
  0
SPLINE
  5
123
100
AcDbEntity
  8
0
 62
7
100
AcDbSpline
 70
8
 71
3
 72
8
 73
4
 74
0
 40
0
 40
0
 40
0
 40
0
 40
1
 40
1
 40
1
 40
1
 10
428.025278
 20
174.307500
 30
0.0
 10
431.835278
 20
173.954722
 30
0.0
 10
435.045556
 20
173.601944
 30
0.0
 10
435.151389
 20
173.531389
 30
0.0
  0
SPLINE
  5
124
100
AcDbEntity
  8
0
 62
7
100
AcDbSpline
 70
8
 71
3
 72
8
 73
4
 74
0
 40
0
 40
0
 40
0
 40
0
 40
1
 40
1
 40
1
 40
1
 10
435.151389
 20
173.531389
 30
0.0
 10
435.327778
 20
173.319722
 30
0.0
 10
432.893611
 20
164.323889
 30
0.0
 10
432.576111
 20
164.006389
 30
0.0
  0
SPLINE
  5
125
100
AcDbEntity
  8
0
 62
7
100
AcDbSpline
 70
8
 71
3
 72
8
 73
4
 74
0
 40
0
 40
0
 40
0
 40
0
 40
1
 40
1
 40
1
 40
1
 10
432.576111
 20
164.006389
 30
0.0
 10
432.258611
 20
163.759444
 30
0.0
 10
419.241111
 20
164.853056
 30
0.0
 10
418.923611
 20
165.170556
 30
0.0
  0
SPLINE
  5
126
100
AcDbEntity
  8
0
 62
7
100
AcDbSpline
 70
8
 71
3
 72
8
 73
4
 74
0
 40
0
 40
0
 40
0
 40
0
 40
1
 40
1
 40
1
 40
1
 10
418.923611
 20
165.170556
 30
0.0
 10
418.782500
 20
165.276389
 30
0.0
 10
418.888333
 20
167.534167
 30
0.0
 10
419.135278
 20
170.180000
 30
0.0
  0
SPLINE
  5
127
100
AcDbEntity
  8
0
 62
7
100
AcDbSpline
 70
8
 71
3
 72
8
 73
4
 74
0
 40
0
 40
0
 40
0
 40
0
 40
1
 40
1
 40
1
 40
1
 10
419.135278
 20
170.180000
 30
0.0
 10
419.523333
 20
174.695556
 30
0.0
 10
419.593889
 20
174.977778
 30
0.0
 10
420.299444
 20
174.977778
 30
0.0
  0
SPLINE
  5
128
100
AcDbEntity
  8
0
 62
7
100
AcDbSpline
 70
8
 71
3
 72
8
 73
4
 74
0
 40
0
 40
0
 40
0
 40
0
 40
1
 40
1
 40
1
 40
1
 10
420.299444
 20
174.977778
 30
0.0
 10
420.722778
 20
174.942500
 30
0.0
 10
424.180000
 20
174.660278
 30
0.0
 10
428.025278
 20
174.307500
 30
0.0
  0
LWPOLYLINE
  5
129
100
AcDbEntity
  8
0
 62
7
100
AcDbPolyline
 90
1
 70
1
 10
403.401389
 20
176.353611
 30
0.0
  0
SPLINE
  5
12a
100
AcDbEntity
  8
0
 62
7
100
AcDbSpline
 70
8
 71
3
 72
8
 73
4
 74
0
 40
0
 40
0
 40
0
 40
0
 40
1
 40
1
 40
1
 40
1
 10
131.621389
 20
173.848889
 30
0.0
 10
131.691944
 20
173.531389
 30
0.0
 10
132.891389
 20
164.218056
 30
0.0
 10
132.856111
 20
164.147500
 30
0.0
  0
SPLINE
  5
12b
100
AcDbEntity
  8
0
 62
7
100
AcDbSpline
 70
8
 71
3
 72
8
 73
4
 74
0
 40
0
 40
0
 40
0
 40
0
 40
1
 40
1
 40
1
 40
1
 10
132.856111
 20
164.147500
 30
0.0
 10
132.820833
 20
164.112222
 30
0.0
 10
130.421944
 20
163.653611
 30
0.0
 10
127.529167
 20
163.159722
 30
0.0
  0
SPLINE
  5
12c
100
AcDbEntity
  8
0
 62
7
100
AcDbSpline
 70
8
 71
3
 72
8
 73
4
 74
0
 40
0
 40
0
 40
0
 40
0
 40
1
 40
1
 40
1
 40
1
 10
127.529167
 20
163.159722
 30
0.0
 10
106.856389
 20
159.561389
 30
0.0
 10
91.933889
 20
155.363333
 30
0.0
 10
80.433333
 20
149.860000
 30
0.0
  0
SPLINE
  5
12d
100
AcDbEntity
  8
0
 62
7
100
AcDbSpline
 70
8
 71
3
 72
8
 73
4
 74
0
 40
0
 40
0
 40
0
 40
0
 40
1
 40
1
 40
1
 40
1
 10
80.433333
 20
149.860000
 30
0.0
 10
73.836389
 20
146.720278
 30
0.0
 10
69.285556
 20
143.651111
 30
0.0
 10
65.898889
 20
140.123333
 30
0.0
  0
SPLINE
  5
12e
100
AcDbEntity
  8
0
 62
7
100
AcDbSpline
 70
8
 71
3
 72
8
 73
4
 74
0
 40
0
 40
0
 40
0
 40
0
 40
1
 40
1
 40
1
 40
1
 10
65.898889
 20
140.123333
 30
0.0
 10
61.665556
 20
135.678333
 30
0.0
 10
60.078056
 20
131.868333
 30
0.0
 10
60.430833
 20
126.858889
 30
0.0
  0
SPLINE
  5
12f
100
AcDbEntity
  8
0
 62
7
100
AcDbSpline
 70
8
 71
3
 72
8
 73
4
 74
0
 40
0
 40
0
 40
0
 40
0
 40
1
 40
1
 40
1
 40
1
 10
60.430833
 20
126.858889
 30
0.0
 10
60.713056
 20
122.131667
 30
0.0
 10
62.935556
 20
116.945833
 30
0.0
 10
66.957222
 20
111.336667
 30
0.0
  0
SPLINE
  5
130
100
AcDbEntity
  8
0
 62
7
100
AcDbSpline
 70
8
 71
3
 72
8
 73
4
 74
0
 40
0
 40
0
 40
0
 40
0
 40
1
 40
1
 40
1
 40
1
 10
66.957222
 20
111.336667
 30
0.0
 10
68.050833
 20
109.819722
 30
0.0
 10
69.497222
 20
107.879444
 30
0.0
 10
70.096944
 20
106.997500
 30
0.0
  0
SPLINE
  5
131
100
AcDbEntity
  8
0
 62
7
100
AcDbSpline
 70
8
 71
3
 72
8
 73
4
 74
0
 40
0
 40
0
 40
0
 40
0
 40
1
 40
1
 40
1
 40
1
 10
70.096944
 20
106.997500
 30
0.0
 10
72.178333
 20
104.140000
 30
0.0
 10
71.366944
 20
100.859167
 30
0.0
 10
68.333056
 20
99.483333
 30
0.0
  0
SPLINE
  5
132
100
AcDbEntity
  8
0
 62
7
100
AcDbSpline
 70
8
 71
3
 72
8
 73
4
 74
0
 40
0
 40
0
 40
0
 40
0
 40
1
 40
1
 40
1
 40
1
 10
68.333056
 20
99.483333
 30
0.0
 10
66.992500
 20
98.848333
 30
0.0
 10
65.934167
 20
98.777778
 30
0.0
 10
56.973611
 20
98.777778
 30
0.0
  0
LWPOLYLINE
  5
133
100
AcDbEntity
  8
0
 62
7
100
AcDbPolyline
 90
1
 70
1
 10
428.025278
 20
174.307500
 30
0.0
  0
SPLINE
  5
134
100
AcDbEntity
  8
0
 62
7
100
AcDbSpline
 70
8
 71
3
 72
8
 73
4
 74
0
 40
0
 40
0
 40
0
 40
0
 40
1
 40
1
 40
1
 40
1
 10
56.691389
 20
94.050556
 30
0.0
 10
67.098333
 20
88.935278
 30
0.0
 10
67.733333
 20
88.441389
 30
0.0
 10
67.733333
 20
85.760278
 30
0.0
  0
SPLINE
  5
135
100
AcDbEntity
  8
0
 62
7
100
AcDbSpline
 70
8
 71
3
 72
8
 73
4
 74
0
 40
0
 40
0
 40
0
 40
0
 40
1
 40
1
 40
1
 40
1
 10
67.733333
 20
85.760278
 30
0.0
 10
67.733333
 20
84.419722
 30
0.0
 10
61.947778
 20
53.833889
 30
0.0
 10
61.348056
 20
51.928889
 30
0.0
  0
SPLINE
  5
136
100
AcDbEntity
  8
0
 62
7
100
AcDbSpline
 70
8
 71
3
 72
8
 73
4
 74
0
 40
0
 40
0
 40
0
 40
0
 40
1
 40
1
 40
1
 40
1
 10
61.348056
 20
51.928889
 30
0.0
 10
60.960000
 20
50.729444
 30
0.0
 10
60.007500
 20
49.953333
 30
0.0
 10
45.684722
 20
38.981944
 30
0.0
  0
SPLINE
  5
137
100
AcDbEntity
  8
0
 62
7
100
AcDbSpline
 70
8
 71
3
 72
8
 73
4
 74
0
 40
0
 40
0
 40
0
 40
0
 40
1
 40
1
 40
1
 40
1
 10
45.684722
 20
38.981944
 30
0.0
 10
42.192222
 20
36.336111
 30
0.0
 10
39.299444
 20
34.043056
 30
0.0
 10
39.228889
 20
33.901944
 30
0.0
  0
SPLINE
  5
138
100
AcDbEntity
  8
0
 62
7
100
AcDbSpline
 70
8
 71
3
 72
8
 73
4
 74
0
 40
0
 40
0
 40
0
 40
0
 40
1
 40
1
 40
1
 40
1
 10
39.228889
 20
33.901944
 30
0.0
 10
39.193611
 20
33.796111
 30
0.0
 10
49.530000
 20
33.725556
 30
0.0
 10
62.159444
 20
33.760833
 30
0.0
  0
SPLINE
  5
139
100
AcDbEntity
  8
0
 62
7
100
AcDbSpline
 70
8
 71
3
 72
8
 73
4
 74
0
 40
0
 40
0
 40
0
 40
0
 40
1
 40
1
 40
1
 40
1
 10
62.159444
 20
33.760833
 30
0.0
 10
74.824167
 20
33.796111
 30
0.0
 10
163.547778
 20
34.007778
 30
0.0
 10
259.291667
 20
34.184167
 30
0.0
  0
SPLINE
  5
13a
100
AcDbEntity
  8
0
 62
7
100
AcDbSpline
 70
8
 71
3
 72
8
 73
4
 74
0
 40
0
 40
0
 40
0
 40
0
 40
1
 40
1
 40
1
 40
1
 10
259.291667
 20
34.184167
 30
0.0
 10
355.035556
 20
34.395833
 30
0.0
 10
459.069722
 20
34.678056
 30
0.0
 10
490.466944
 20
34.783889
 30
0.0
  0
LWPOLYLINE
  5
13b
100
AcDbEntity
  8
0
 62
7
100
AcDbPolyline
 90
3
 70
0
 10
56.973611
 20
98.777778
 30
0.0
 10
47.095833
 20
98.742500
 30
0.0
 10
56.691389
 20
94.050556
 30
0.0
  0
SPLINE
  5
13c
100
AcDbEntity
  8
0
 62
7
100
AcDbSpline
 70
8
 71
3
 72
8
 73
4
 74
0
 40
0
 40
0
 40
0
 40
0
 40
1
 40
1
 40
1
 40
1
 10
541.125833
 20
41.239722
 30
0.0
 10
535.869444
 20
46.355000
 30
0.0
 10
534.705278
 20
47.660278
 30
0.0
 10
534.458333
 20
48.753889
 30
0.0
  0
SPLINE
  5
13d
100
AcDbEntity
  8
0
 62
7
100
AcDbSpline
 70
8
 71
3
 72
8
 73
4
 74
0
 40
0
 40
0
 40
0
 40
0
 40
1
 40
1
 40
1
 40
1
 10
534.458333
 20
48.753889
 30
0.0
 10
534.246667
 20
49.776944
 30
0.0
 10
534.846389
 20
53.516389
 30
0.0
 10
537.104167
 20
65.510833
 30
0.0
  0
SPLINE
  5
13e
100
AcDbEntity
  8
0
 62
7
100
AcDbSpline
 70
8
 71
3
 72
8
 73
4
 74
0
 40
0
 40
0
 40
0
 40
0
 40
1
 40
1
 40
1
 40
1
 10
537.104167
 20
65.510833
 30
0.0
 10
538.726944
 20
74.012778
 30
0.0
 10
540.138056
 20
81.385833
 30
0.0
 10
540.279167
 20
81.915000
 30
0.0
  0
SPLINE
  5
13f
100
AcDbEntity
  8
0
 62
7
100
AcDbSpline
 70
8
 71
3
 72
8
 73
4
 74
0
 40
0
 40
0
 40
0
 40
0
 40
1
 40
1
 40
1
 40
1
 10
540.279167
 20
81.915000
 30
0.0
 10
540.667222
 20
83.467222
 30
0.0
 10
542.184167
 20
84.525556
 30
0.0
 10
551.215278
 20
89.605556
 30
0.0
  0
LWPOLYLINE
  5
140
100
AcDbEntity
  8
0
 62
7
100
AcDbPolyline
 90
3
 70
0
 10
490.466944
 20
34.783889
 30
0.0
 10
547.511111
 20
35.030833
 30
0.0
 10
541.125833
 20
41.239722
 30
0.0
  0
SPLINE
  5
141
100
AcDbEntity
  8
0
 62
7
100
AcDbSpline
 70
8
 71
3
 72
8
 73
4
 74
0
 40
0
 40
0
 40
0
 40
0
 40
1
 40
1
 40
1
 40
1
 10
544.159722
 20
96.026111
 30
0.0
 10
543.489444
 20
96.731667
 30
0.0
 10
542.854444
 20
97.754722
 30
0.0
 10
542.713333
 20
98.319167
 30
0.0
  0
SPLINE
  5
142
100
AcDbEntity
  8
0
 62
7
100
AcDbSpline
 70
8
 71
3
 72
8
 73
4
 74
0
 40
0
 40
0
 40
0
 40
0
 40
1
 40
1
 40
1
 40
1
 10
542.713333
 20
98.319167
 30
0.0
 10
542.536944
 20
98.918889
 30
0.0
 10
543.912778
 20
107.808889
 30
0.0
 10
546.593889
 20
123.295833
 30
0.0
  0
SPLINE
  5
143
100
AcDbEntity
  8
0
 62
7
100
AcDbSpline
 70
8
 71
3
 72
8
 73
4
 74
0
 40
0
 40
0
 40
0
 40
0
 40
1
 40
1
 40
1
 40
1
 10
546.593889
 20
123.295833
 30
0.0
 10
548.851667
 20
136.489722
 30
0.0
 10
550.721389
 20
147.390556
 30
0.0
 10
550.686111
 20
147.496389
 30
0.0
  0
SPLINE
  5
144
100
AcDbEntity
  8
0
 62
7
100
AcDbSpline
 70
8
 71
3
 72
8
 73
4
 74
0
 40
0
 40
0
 40
0
 40
0
 40
1
 40
1
 40
1
 40
1
 10
550.686111
 20
147.496389
 30
0.0
 10
550.686111
 20
147.637500
 30
0.0
 10
550.262778
 20
147.813889
 30
0.0
 10
549.733611
 20
147.919722
 30
0.0
  0
SPLINE
  5
145
100
AcDbEntity
  8
0
 62
7
100
AcDbSpline
 70
8
 71
3
 72
8
 73
4
 74
0
 40
0
 40
0
 40
0
 40
0
 40
1
 40
1
 40
1
 40
1
 10
549.733611
 20
147.919722
 30
0.0
 10
549.169167
 20
147.990278
 30
0.0
 10
545.570833
 20
148.731111
 30
0.0
 10
541.725556
 20
149.542500
 30
0.0
  0
SPLINE
  5
146
100
AcDbEntity
  8
0
 62
7
100
AcDbSpline
 70
8
 71
3
 72
8
 73
4
 74
0
 40
0
 40
0
 40
0
 40
0
 40
1
 40
1
 40
1
 40
1
 10
541.725556
 20
149.542500
 30
0.0
 10
522.040556
 20
153.634722
 30
0.0
 10
482.952778
 20
158.996944
 30
0.0
 10
449.721111
 20
162.136667
 30
0.0
  0
SPLINE
  5
147
100
AcDbEntity
  8
0
 62
7
100
AcDbSpline
 70
8
 71
3
 72
8
 73
4
 74
0
 40
0
 40
0
 40
0
 40
0
 40
1
 40
1
 40
1
 40
1
 10
449.721111
 20
162.136667
 30
0.0
 10
444.923333
 20
162.595278
 30
0.0
 10
443.088889
 20
162.912778
 30
0.0
 10
443.088889
 20
163.230278
 30
0.0
  0
SPLINE
  5
148
100
AcDbEntity
  8
0
 62
7
100
AcDbSpline
 70
8
 71
3
 72
8
 73
4
 74
0
 40
0
 40
0
 40
0
 40
0
 40
1
 40
1
 40
1
 40
1
 10
443.088889
 20
163.230278
 30
0.0
 10
443.088889
 20
163.724167
 30
0.0
 10
445.487778
 20
172.578889
 30
0.0
 10
445.628889
 20
172.684722
 30
0.0
  0
SPLINE
  5
149
100
AcDbEntity
  8
0
 62
7
100
AcDbSpline
 70
8
 71
3
 72
8
 73
4
 74
0
 40
0
 40
0
 40
0
 40
0
 40
1
 40
1
 40
1
 40
1
 10
445.628889
 20
172.684722
 30
0.0
 10
446.016944
 20
172.931667
 30
0.0
 10
483.975833
 20
168.627778
 30
0.0
 10
500.062500
 20
166.475833
 30
0.0
  0
SPLINE
  5
14a
100
AcDbEntity
  8
0
 62
7
100
AcDbSpline
 70
8
 71
3
 72
8
 73
4
 74
0
 40
0
 40
0
 40
0
 40
0
 40
1
 40
1
 40
1
 40
1
 10
500.062500
 20
166.475833
 30
0.0
 10
524.333611
 20
163.265556
 30
0.0
 10
547.581667
 20
159.138056
 30
0.0
 10
556.895000
 20
156.421667
 30
0.0
  0
SPLINE
  5
14b
100
AcDbEntity
  8
0
 62
7
100
AcDbSpline
 70
8
 71
3
 72
8
 73
4
 74
0
 40
0
 40
0
 40
0
 40
0
 40
1
 40
1
 40
1
 40
1
 10
556.895000
 20
156.421667
 30
0.0
 10
559.329167
 20
155.716111
 30
0.0
 10
561.093056
 20
154.128611
 30
0.0
 10
561.445833
 20
152.364722
 30
0.0
  0
SPLINE
  5
14c
100
AcDbEntity
  8
0
 62
7
100
AcDbSpline
 70
8
 71
3
 72
8
 73
4
 74
0
 40
0
 40
0
 40
0
 40
0
 40
1
 40
1
 40
1
 40
1
 10
561.445833
 20
152.364722
 30
0.0
 10
561.586944
 20
151.553333
 30
0.0
 10
560.387500
 20
143.827500
 30
0.0
 10
557.776944
 20
128.763889
 30
0.0
  0
SPLINE
  5
14d
100
AcDbEntity
  8
0
 62
7
100
AcDbSpline
 70
8
 71
3
 72
8
 73
4
 74
0
 40
0
 40
0
 40
0
 40
0
 40
1
 40
1
 40
1
 40
1
 10
557.776944
 20
128.763889
 30
0.0
 10
555.660278
 20
116.451944
 30
0.0
 10
553.861111
 20
105.974444
 30
0.0
 10
553.790556
 20
105.515833
 30
0.0
  0
LWPOLYLINE
  5
14e
100
AcDbEntity
  8
0
 62
7
100
AcDbPolyline
 90
5
 70
0
 10
551.215278
 20
89.605556
 30
0.0
 10
559.681944
 20
94.368056
 30
0.0
 10
552.520556
 20
94.544444
 30
0.0
 10
545.323889
 20
94.720833
 30
0.0
 10
544.159722
 20
96.026111
 30
0.0
  0
SPLINE
  5
14f
100
AcDbEntity
  8
0
 62
7
100
AcDbSpline
 70
8
 71
3
 72
8
 73
4
 74
0
 40
0
 40
0
 40
0
 40
0
 40
1
 40
1
 40
1
 40
1
 10
567.266667
 20
104.739722
 30
0.0
 10
580.390000
 20
104.810278
 30
0.0
 10
580.883889
 20
104.775000
 30
0.0
 10
582.012778
 20
104.104722
 30
0.0
  0
SPLINE
  5
150
100
AcDbEntity
  8
0
 62
7
100
AcDbSpline
 70
8
 71
3
 72
8
 73
4
 74
0
 40
0
 40
0
 40
0
 40
0
 40
1
 40
1
 40
1
 40
1
 10
582.012778
 20
104.104722
 30
0.0
 10
585.046667
 20
102.164444
 30
0.0
 10
585.364167
 20
97.613611
 30
0.0
 10
582.577222
 20
95.779167
 30
0.0
  0
SPLINE
  5
151
100
AcDbEntity
  8
0
 62
7
100
AcDbSpline
 70
8
 71
3
 72
8
 73
4
 74
0
 40
0
 40
0
 40
0
 40
0
 40
1
 40
1
 40
1
 40
1
 10
582.577222
 20
95.779167
 30
0.0
 10
582.118611
 20
95.496944
 30
0.0
 10
574.533889
 20
91.193056
 30
0.0
 10
565.785000
 20
86.218889
 30
0.0
  0
SPLINE
  5
152
100
AcDbEntity
  8
0
 62
7
100
AcDbSpline
 70
8
 71
3
 72
8
 73
4
 74
0
 40
0
 40
0
 40
0
 40
0
 40
1
 40
1
 40
1
 40
1
 10
565.785000
 20
86.218889
 30
0.0
 10
557.000833
 20
81.244722
 30
0.0
 10
549.733611
 20
77.152500
 30
0.0
 10
549.663056
 20
77.046667
 30
0.0
  0
SPLINE
  5
153
100
AcDbEntity
  8
0
 62
7
100
AcDbSpline
 70
8
 71
3
 72
8
 73
4
 74
0
 40
0
 40
0
 40
0
 40
0
 40
1
 40
1
 40
1
 40
1
 10
549.663056
 20
77.046667
 30
0.0
 10
549.592500
 20
76.976111
 30
0.0
 10
548.463611
 20
71.261111
 30
0.0
 10
547.158333
 20
64.346667
 30
0.0
  0
LWPOLYLINE
  5
154
100
AcDbEntity
  8
0
 62
7
100
AcDbPolyline
 90
3
 70
0
 10
553.790556
 20
105.515833
 30
0.0
 10
553.684722
 20
104.633889
 30
0.0
 10
567.266667
 20
104.739722
 30
0.0
  0
SPLINE
  5
155
100
AcDbEntity
  8
0
 62
7
100
AcDbSpline
 70
8
 71
3
 72
8
 73
4
 74
0
 40
0
 40
0
 40
0
 40
0
 40
1
 40
1
 40
1
 40
1
 10
551.356389
 20
45.367222
 30
0.0
 10
563.809444
 20
33.302222
 30
0.0
 10
564.726667
 20
32.349722
 30
0.0
 10
564.973611
 20
30.973889
 30
0.0
  0
SPLINE
  5
156
100
AcDbEntity
  8
0
 62
7
100
AcDbSpline
 70
8
 71
3
 72
8
 73
4
 74
0
 40
0
 40
0
 40
0
 40
0
 40
1
 40
1
 40
1
 40
1
 10
564.973611
 20
30.973889
 30
0.0
 10
565.467500
 20
28.398611
 30
0.0
 10
563.774167
 20
25.682222
 30
0.0
 10
561.304722
 20
25.082500
 30
0.0
  0
SPLINE
  5
157
100
AcDbEntity
  8
0
 62
7
100
AcDbSpline
 70
8
 71
3
 72
8
 73
4
 74
0
 40
0
 40
0
 40
0
 40
0
 40
1
 40
1
 40
1
 40
1
 10
561.304722
 20
25.082500
 30
0.0
 10
560.599167
 20
24.906111
 30
0.0
 10
444.817500
 20
24.518056
 30
0.0
 10
291.323889
 20
24.165278
 30
0.0
  0
SPLINE
  5
158
100
AcDbEntity
  8
0
 62
7
100
AcDbSpline
 70
8
 71
3
 72
8
 73
4
 74
0
 40
0
 40
0
 40
0
 40
0
 40
1
 40
1
 40
1
 40
1
 10
291.323889
 20
24.165278
 30
0.0
 10
30.127222
 20
23.600833
 30
0.0
 10
22.542500
 20
23.600833
 30
0.0
 10
21.484167
 20
24.235833
 30
0.0
  0
SPLINE
  5
159
100
AcDbEntity
  8
0
 62
7
100
AcDbSpline
 70
8
 71
3
 72
8
 73
4
 74
0
 40
0
 40
0
 40
0
 40
0
 40
1
 40
1
 40
1
 40
1
 10
21.484167
 20
24.235833
 30
0.0
 10
19.685000
 20
25.258889
 30
0.0
 10
18.908889
 20
26.564167
 30
0.0
 10
18.908889
 20
28.575000
 30
0.0
  0
SPLINE
  5
15a
100
AcDbEntity
  8
0
 62
7
100
AcDbSpline
 70
8
 71
3
 72
8
 73
4
 74
0
 40
0
 40
0
 40
0
 40
0
 40
1
 40
1
 40
1
 40
1
 10
18.908889
 20
28.575000
 30
0.0
 10
18.908889
 20
29.809722
 30
0.0
 10
19.120556
 20
30.621111
 30
0.0
 10
19.649722
 20
31.326667
 30
0.0
  0
SPLINE
  5
15b
100
AcDbEntity
  8
0
 62
7
100
AcDbSpline
 70
8
 71
3
 72
8
 73
4
 74
0
 40
0
 40
0
 40
0
 40
0
 40
1
 40
1
 40
1
 40
1
 10
19.649722
 20
31.326667
 30
0.0
 10
20.037778
 20
31.855833
 30
0.0
 10
27.481389
 20
37.747222
 30
0.0
 10
36.230278
 20
44.450000
 30
0.0
  0
LWPOLYLINE
  5
15c
100
AcDbEntity
  8
0
 62
7
100
AcDbPolyline
 90
3
 70
0
 10
547.158333
 20
64.346667
 30
0.0
 10
544.759444
 20
51.752500
 30
0.0
 10
551.356389
 20
45.367222
 30
0.0
  0
SPLINE
  5
15d
100
AcDbEntity
  8
0
 62
7
100
AcDbSpline
 70
8
 71
3
 72
8
 73
4
 74
0
 40
0
 40
0
 40
0
 40
0
 40
1
 40
1
 40
1
 40
1
 10
54.468889
 20
68.968056
 30
0.0
 10
55.774167
 20
75.776667
 30
0.0
 10
56.867778
 20
81.597500
 30
0.0
 10
56.903056
 20
81.985556
 30
0.0
  0
SPLINE
  5
15e
100
AcDbEntity
  8
0
 62
7
100
AcDbSpline
 70
8
 71
3
 72
8
 73
4
 74
0
 40
0
 40
0
 40
0
 40
0
 40
1
 40
1
 40
1
 40
1
 10
56.903056
 20
81.985556
 30
0.0
 10
56.973611
 20
82.514722
 30
0.0
 10
53.869167
 20
84.172778
 30
0.0
 10
40.216667
 20
90.875556
 30
0.0
  0
SPLINE
  5
15f
100
AcDbEntity
  8
0
 62
7
100
AcDbSpline
 70
8
 71
3
 72
8
 73
4
 74
0
 40
0
 40
0
 40
0
 40
0
 40
1
 40
1
 40
1
 40
1
 10
40.216667
 20
90.875556
 30
0.0
 10
30.056667
 20
95.885000
 30
0.0
 10
22.965833
 20
99.589167
 30
0.0
 10
22.154444
 20
100.294722
 30
0.0
  0
SPLINE
  5
160
100
AcDbEntity
  8
0
 62
7
100
AcDbSpline
 70
8
 71
3
 72
8
 73
4
 74
0
 40
0
 40
0
 40
0
 40
0
 40
1
 40
1
 40
1
 40
1
 10
22.154444
 20
100.294722
 30
0.0
 10
20.955000
 20
101.388333
 30
0.0
 10
20.813889
 20
101.670556
 30
0.0
 10
20.813889
 20
103.222778
 30
0.0
  0
SPLINE
  5
161
100
AcDbEntity
  8
0
 62
7
100
AcDbSpline
 70
8
 71
3
 72
8
 73
4
 74
0
 40
0
 40
0
 40
0
 40
0
 40
1
 40
1
 40
1
 40
1
 10
20.813889
 20
103.222778
 30
0.0
 10
20.813889
 20
105.304167
 30
0.0
 10
21.731111
 20
106.962222
 30
0.0
 10
23.353889
 20
107.808889
 30
0.0
  0
SPLINE
  5
162
100
AcDbEntity
  8
0
 62
7
100
AcDbSpline
 70
8
 71
3
 72
8
 73
4
 74
0
 40
0
 40
0
 40
0
 40
0
 40
1
 40
1
 40
1
 40
1
 10
23.353889
 20
107.808889
 30
0.0
 10
24.729722
 20
108.549722
 30
0.0
 10
33.266944
 20
108.937778
 30
0.0
 10
47.554444
 20
108.973056
 30
0.0
  0
SPLINE
  5
163
100
AcDbEntity
  8
0
 62
7
100
AcDbSpline
 70
8
 71
3
 72
8
 73
4
 74
0
 40
0
 40
0
 40
0
 40
0
 40
1
 40
1
 40
1
 40
1
 10
47.554444
 20
108.973056
 30
0.0
 10
52.281667
 20
109.008333
 30
0.0
 10
56.091667
 20
109.114167
 30
0.0
 10
56.021111
 20
109.290556
 30
0.0
  0
SPLINE
  5
164
100
AcDbEntity
  8
0
 62
7
100
AcDbSpline
 70
8
 71
3
 72
8
 73
4
 74
0
 40
0
 40
0
 40
0
 40
0
 40
1
 40
1
 40
1
 40
1
 10
56.021111
 20
109.290556
 30
0.0
 10
55.950556
 20
109.431667
 30
0.0
 10
55.103889
 20
111.195556
 30
0.0
 10
54.080833
 20
113.241667
 30
0.0
  0
SPLINE
  5
165
100
AcDbEntity
  8
0
 62
7
100
AcDbSpline
 70
8
 71
3
 72
8
 73
4
 74
0
 40
0
 40
0
 40
0
 40
0
 40
1
 40
1
 40
1
 40
1
 10
54.080833
 20
113.241667
 30
0.0
 10
49.565278
 20
122.484444
 30
0.0
 10
49.036111
 20
130.739444
 30
0.0
 10
52.528611
 20
138.430000
 30
0.0
  0
SPLINE
  5
166
100
AcDbEntity
  8
0
 62
7
100
AcDbSpline
 70
8
 71
3
 72
8
 73
4
 74
0
 40
0
 40
0
 40
0
 40
0
 40
1
 40
1
 40
1
 40
1
 10
52.528611
 20
138.430000
 30
0.0
 10
59.301944
 20
153.423056
 30
0.0
 10
81.315278
 20
164.570833
 30
0.0
 10
117.827778
 20
171.591111
 30
0.0
  0
SPLINE
  5
167
100
AcDbEntity
  8
0
 62
7
100
AcDbSpline
 70
8
 71
3
 72
8
 73
4
 74
0
 40
0
 40
0
 40
0
 40
0
 40
1
 40
1
 40
1
 40
1
 10
117.827778
 20
171.591111
 30
0.0
 10
129.681111
 20
173.884167
 30
0.0
 10
131.515556
 20
174.166389
 30
0.0
 10
131.621389
 20
173.848889
 30
0.0
  0
LWPOLYLINE
  5
168
100
AcDbEntity
  8
0
 62
7
100
AcDbPolyline
 90
3
 70
0
 10
36.230278
 20
44.450000
 30
0.0
 10
52.105278
 20
56.620833
 30
0.0
 10
54.468889
 20
68.968056
 30
0.0
  0
SPLINE
  5
169
100
AcDbEntity
  8
0
 62
7
100
AcDbSpline
 70
8
 71
3
 72
8
 73
4
 74
0
 40
0
 40
0
 40
0
 40
0
 40
1
 40
1
 40
1
 40
1
 10
208.985556
 20
139.523611
 30
0.0
 10
218.581111
 20
137.830278
 30
0.0
 10
223.449444
 20
132.715000
 30
0.0
 10
223.943333
 20
123.754444
 30
0.0
  0
SPLINE
  5
16a
100
AcDbEntity
  8
0
 62
7
100
AcDbSpline
 70
8
 71
3
 72
8
 73
4
 74
0
 40
0
 40
0
 40
0
 40
0
 40
1
 40
1
 40
1
 40
1
 10
223.943333
 20
123.754444
 30
0.0
 10
224.013889
 20
121.884722
 30
0.0
 10
224.013889
 20
119.803333
 30
0.0
 10
223.872778
 20
119.168333
 30
0.0
  0
LWPOLYLINE
  5
16b
100
AcDbEntity
  8
0
 62
7
100
AcDbPolyline
 90
1
 70
1
 10
131.621389
 20
173.848889
 30
0.0
  0
SPLINE
  5
16c
100
AcDbEntity
  8
0
 62
7
100
AcDbSpline
 70
8
 71
3
 72
8
 73
4
 74
0
 40
0
 40
0
 40
0
 40
0
 40
1
 40
1
 40
1
 40
1
 10
215.265000
 20
117.510278
 30
0.0
 10
210.678889
 20
117.263333
 30
0.0
 10
206.480833
 20
117.016389
 30
0.0
 10
205.986944
 20
116.910556
 30
0.0
  0
LWPOLYLINE
  5
16d
100
AcDbEntity
  8
0
 62
7
100
AcDbPolyline
 90
3
 70
0
 10
223.872778
 20
119.168333
 30
0.0
 10
223.661111
 20
117.933611
 30
0.0
 10
215.265000
 20
117.510278
 30
0.0
  0
SPLINE
  5
16e
100
AcDbEntity
  8
0
 62
7
100
AcDbSpline
 70
8
 71
3
 72
8
 73
4
 74
0
 40
0
 40
0
 40
0
 40
0
 40
1
 40
1
 40
1
 40
1
 10
204.928611
 20
120.896944
 30
0.0
 10
204.787500
 20
124.460000
 30
0.0
 10
204.681667
 20
125.236111
 30
0.0
 10
203.976111
 20
126.329722
 30
0.0
  0
SPLINE
  5
16f
100
AcDbEntity
  8
0
 62
7
100
AcDbSpline
 70
8
 71
3
 72
8
 73
4
 74
0
 40
0
 40
0
 40
0
 40
0
 40
1
 40
1
 40
1
 40
1
 10
203.976111
 20
126.329722
 30
0.0
 10
202.953056
 20
127.987778
 30
0.0
 10
201.330278
 20
128.763889
 30
0.0
 10
198.825556
 20
128.763889
 30
0.0
  0
SPLINE
  5
170
100
AcDbEntity
  8
0
 62
7
100
AcDbSpline
 70
8
 71
3
 72
8
 73
4
 74
0
 40
0
 40
0
 40
0
 40
0
 40
1
 40
1
 40
1
 40
1
 10
198.825556
 20
128.763889
 30
0.0
 10
195.227222
 20
128.763889
 30
0.0
 10
192.969444
 20
126.964722
 30
0.0
 10
191.734722
 20
123.154722
 30
0.0
  0
SPLINE
  5
171
100
AcDbEntity
  8
0
 62
7
100
AcDbSpline
 70
8
 71
3
 72
8
 73
4
 74
0
 40
0
 40
0
 40
0
 40
0
 40
1
 40
1
 40
1
 40
1
 10
191.734722
 20
123.154722
 30
0.0
 10
189.970833
 20
117.686667
 30
0.0
 10
191.593611
 20
114.370556
 30
0.0
 10
201.471389
 20
103.469722
 30
0.0
  0
SPLINE
  5
172
100
AcDbEntity
  8
0
 62
7
100
AcDbSpline
 70
8
 71
3
 72
8
 73
4
 74
0
 40
0
 40
0
 40
0
 40
0
 40
1
 40
1
 40
1
 40
1
 10
201.471389
 20
103.469722
 30
0.0
 10
212.513333
 20
91.263611
 30
0.0
 10
216.041111
 20
86.007222
 30
0.0
 10
216.993611
 20
80.151111
 30
0.0
  0
SPLINE
  5
173
100
AcDbEntity
  8
0
 62
7
100
AcDbSpline
 70
8
 71
3
 72
8
 73
4
 74
0
 40
0
 40
0
 40
0
 40
0
 40
1
 40
1
 40
1
 40
1
 10
216.993611
 20
80.151111
 30
0.0
 10
217.346389
 20
78.105000
 30
0.0
 10
217.311111
 20
77.223056
 30
0.0
 10
216.781944
 20
74.753611
 30
0.0
  0
SPLINE
  5
174
100
AcDbEntity
  8
0
 62
7
100
AcDbSpline
 70
8
 71
3
 72
8
 73
4
 74
0
 40
0
 40
0
 40
0
 40
0
 40
1
 40
1
 40
1
 40
1
 10
216.781944
 20
74.753611
 30
0.0
 10
214.418333
 20
62.865000
 30
0.0
 10
206.586667
 20
56.550278
 30
0.0
 10
192.369722
 20
54.998056
 30
0.0
  0
SPLINE
  5
175
100
AcDbEntity
  8
0
 62
7
100
AcDbSpline
 70
8
 71
3
 72
8
 73
4
 74
0
 40
0
 40
0
 40
0
 40
0
 40
1
 40
1
 40
1
 40
1
 10
192.369722
 20
54.998056
 30
0.0
 10
185.913889
 20
54.292500
 30
0.0
 10
177.270833
 20
55.103889
 30
0.0
 10
172.649444
 20
56.832500
 30
0.0
  0
SPLINE
  5
176
100
AcDbEntity
  8
0
 62
7
100
AcDbSpline
 70
8
 71
3
 72
8
 73
4
 74
0
 40
0
 40
0
 40
0
 40
0
 40
1
 40
1
 40
1
 40
1
 10
172.649444
 20
56.832500
 30
0.0
 10
165.064722
 20
59.690000
 30
0.0
 10
161.642778
 20
66.075278
 30
0.0
 10
162.630556
 20
75.565000
 30
0.0
  0
SPLINE
  5
177
100
AcDbEntity
  8
0
 62
7
100
AcDbSpline
 70
8
 71
3
 72
8
 73
4
 74
0
 40
0
 40
0
 40
0
 40
0
 40
1
 40
1
 40
1
 40
1
 10
162.630556
 20
75.565000
 30
0.0
 10
162.806944
 20
77.328889
 30
0.0
 10
163.018611
 20
78.810556
 30
0.0
 10
163.124444
 20
78.916389
 30
0.0
  0
SPLINE
  5
178
100
AcDbEntity
  8
0
 62
7
100
AcDbSpline
 70
8
 71
3
 72
8
 73
4
 74
0
 40
0
 40
0
 40
0
 40
0
 40
1
 40
1
 40
1
 40
1
 10
163.124444
 20
78.916389
 30
0.0
 10
163.300833
 20
79.092778
 30
0.0
 10
177.341389
 20
80.045278
 30
0.0
 10
180.198889
 20
80.080556
 30
0.0
  0
SPLINE
  5
179
100
AcDbEntity
  8
0
 62
7
100
AcDbSpline
 70
8
 71
3
 72
8
 73
4
 74
0
 40
0
 40
0
 40
0
 40
0
 40
1
 40
1
 40
1
 40
1
 10
180.198889
 20
80.080556
 30
0.0
 10
181.962778
 20
80.080556
 30
0.0
 10
182.068611
 20
80.045278
 30
0.0
 10
181.821667
 20
79.304444
 30
0.0
  0
SPLINE
  5
17a
100
AcDbEntity
  8
0
 62
7
100
AcDbSpline
 70
8
 71
3
 72
8
 73
4
 74
0
 40
0
 40
0
 40
0
 40
0
 40
1
 40
1
 40
1
 40
1
 10
181.821667
 20
79.304444
 30
0.0
 10
181.715833
 20
78.916389
 30
0.0
 10
181.574722
 20
76.940833
 30
0.0
 10
181.574722
 20
75.000556
 30
0.0
  0
SPLINE
  5
17b
100
AcDbEntity
  8
0
 62
7
100
AcDbSpline
 70
8
 71
3
 72
8
 73
4
 74
0
 40
0
 40
0
 40
0
 40
0
 40
1
 40
1
 40
1
 40
1
 10
181.574722
 20
75.000556
 30
0.0
 10
181.504167
 20
69.885278
 30
0.0
 10
182.668333
 20
67.592222
 30
0.0
 10
185.808056
 20
66.463333
 30
0.0
  0
SPLINE
  5
17c
100
AcDbEntity
  8
0
 62
7
100
AcDbSpline
 70
8
 71
3
 72
8
 73
4
 74
0
 40
0
 40
0
 40
0
 40
0
 40
1
 40
1
 40
1
 40
1
 10
185.808056
 20
66.463333
 30
0.0
 10
191.911111
 20
64.311389
 30
0.0
 10
197.978889
 20
69.038611
 30
0.0
 10
198.049444
 20
76.023611
 30
0.0
  0
SPLINE
  5
17d
100
AcDbEntity
  8
0
 62
7
100
AcDbSpline
 70
8
 71
3
 72
8
 73
4
 74
0
 40
0
 40
0
 40
0
 40
0
 40
1
 40
1
 40
1
 40
1
 10
198.049444
 20
76.023611
 30
0.0
 10
198.120000
 20
79.939444
 30
0.0
 10
195.791667
 20
83.537778
 30
0.0
 10
187.148611
 20
92.956944
 30
0.0
  0
SPLINE
  5
17e
100
AcDbEntity
  8
0
 62
7
100
AcDbSpline
 70
8
 71
3
 72
8
 73
4
 74
0
 40
0
 40
0
 40
0
 40
0
 40
1
 40
1
 40
1
 40
1
 10
187.148611
 20
92.956944
 30
0.0
 10
172.508333
 20
108.902500
 30
0.0
 10
169.403889
 20
117.016389
 30
0.0
 10
174.272222
 20
126.647222
 30
0.0
  0
SPLINE
  5
17f
100
AcDbEntity
  8
0
 62
7
100
AcDbSpline
 70
8
 71
3
 72
8
 73
4
 74
0
 40
0
 40
0
 40
0
 40
0
 40
1
 40
1
 40
1
 40
1
 10
174.272222
 20
126.647222
 30
0.0
 10
177.588333
 20
133.173611
 30
0.0
 10
184.679167
 20
137.936111
 30
0.0
 10
193.428056
 20
139.523611
 30
0.0
  0
SPLINE
  5
180
100
AcDbEntity
  8
0
 62
7
100
AcDbSpline
 70
8
 71
3
 72
8
 73
4
 74
0
 40
0
 40
0
 40
0
 40
0
 40
1
 40
1
 40
1
 40
1
 10
193.428056
 20
139.523611
 30
0.0
 10
196.991111
 20
140.158611
 30
0.0
 10
205.281389
 20
140.158611
 30
0.0
 10
208.985556
 20
139.523611
 30
0.0
  0
LWPOLYLINE
  5
181
100
AcDbEntity
  8
0
 62
7
100
AcDbPolyline
 90
3
 70
0
 10
205.986944
 20
116.910556
 30
0.0
 10
205.034444
 20
116.734167
 30
0.0
 10
204.928611
 20
120.896944
 30
0.0
  0
SPLINE
  5
182
100
AcDbEntity
  8
0
 62
7
100
AcDbSpline
 70
8
 71
3
 72
8
 73
4
 74
0
 40
0
 40
0
 40
0
 40
0
 40
1
 40
1
 40
1
 40
1
 10
462.138889
 20
138.994444
 30
0.0
 10
470.182222
 20
136.666111
 30
0.0
 10
474.733056
 20
131.833056
 30
0.0
 10
475.121111
 20
125.236111
 30
0.0
  0
SPLINE
  5
183
100
AcDbEntity
  8
0
 62
7
100
AcDbSpline
 70
8
 71
3
 72
8
 73
4
 74
0
 40
0
 40
0
 40
0
 40
0
 40
1
 40
1
 40
1
 40
1
 10
475.121111
 20
125.236111
 30
0.0
 10
475.262222
 20
122.872500
 30
0.0
 10
474.556667
 20
116.734167
 30
0.0
 10
473.568889
 20
111.760000
 30
0.0
  0
LWPOLYLINE
  5
184
100
AcDbEntity
  8
0
 62
7
100
AcDbPolyline
 90
1
 70
1
 10
208.985556
 20
139.523611
 30
0.0
  0
SPLINE
  5
185
100
AcDbEntity
  8
0
 62
7
100
AcDbSpline
 70
8
 71
3
 72
8
 73
4
 74
0
 40
0
 40
0
 40
0
 40
0
 40
1
 40
1
 40
1
 40
1
 10
455.612500
 20
111.936389
 30
0.0
 10
457.517500
 20
123.401667
 30
0.0
 10
457.588056
 20
124.636389
 30
0.0
 10
456.459167
 20
126.082778
 30
0.0
  0
SPLINE
  5
186
100
AcDbEntity
  8
0
 62
7
100
AcDbSpline
 70
8
 71
3
 72
8
 73
4
 74
0
 40
0
 40
0
 40
0
 40
0
 40
1
 40
1
 40
1
 40
1
 10
456.459167
 20
126.082778
 30
0.0
 10
456.071111
 20
126.576667
 30
0.0
 10
455.259722
 20
127.246944
 30
0.0
 10
454.695278
 20
127.564444
 30
0.0
  0
SPLINE
  5
187
100
AcDbEntity
  8
0
 62
7
100
AcDbSpline
 70
8
 71
3
 72
8
 73
4
 74
0
 40
0
 40
0
 40
0
 40
0
 40
1
 40
1
 40
1
 40
1
 10
454.695278
 20
127.564444
 30
0.0
 10
453.425278
 20
128.199444
 30
0.0
 10
449.685833
 20
128.305278
 30
0.0
 10
447.957222
 20
127.740833
 30
0.0
  0
SPLINE
  5
188
100
AcDbEntity
  8
0
 62
7
100
AcDbSpline
 70
8
 71
3
 72
8
 73
4
 74
0
 40
0
 40
0
 40
0
 40
0
 40
1
 40
1
 40
1
 40
1
 10
447.957222
 20
127.740833
 30
0.0
 10
446.334444
 20
127.211667
 30
0.0
 10
444.429444
 20
125.130278
 30
0.0
 10
443.688611
 20
123.084167
 30
0.0
  0
SPLINE
  5
189
100
AcDbEntity
  8
0
 62
7
100
AcDbSpline
 70
8
 71
3
 72
8
 73
4
 74
0
 40
0
 40
0
 40
0
 40
0
 40
1
 40
1
 40
1
 40
1
 10
443.688611
 20
123.084167
 30
0.0
 10
442.771389
 20
120.650000
 30
0.0
 10
435.186667
 20
72.248889
 30
0.0
 10
435.468889
 20
70.767222
 30
0.0
  0
SPLINE
  5
18a
100
AcDbEntity
  8
0
 62
7
100
AcDbSpline
 70
8
 71
3
 72
8
 73
4
 74
0
 40
0
 40
0
 40
0
 40
0
 40
1
 40
1
 40
1
 40
1
 10
435.468889
 20
70.767222
 30
0.0
 10
436.139167
 20
67.310000
 30
0.0
 10
440.019722
 20
65.793056
 30
0.0
 10
444.711667
 20
67.204167
 30
0.0
  0
SPLINE
  5
18b
100
AcDbEntity
  8
0
 62
7
100
AcDbSpline
 70
8
 71
3
 72
8
 73
4
 74
0
 40
0
 40
0
 40
0
 40
0
 40
1
 40
1
 40
1
 40
1
 10
444.711667
 20
67.204167
 30
0.0
 10
446.651944
 20
67.768611
 30
0.0
 10
448.063056
 20
69.038611
 30
0.0
 10
448.874444
 20
70.908333
 30
0.0
  0
SPLINE
  5
18c
100
AcDbEntity
  8
0
 62
7
100
AcDbSpline
 70
8
 71
3
 72
8
 73
4
 74
0
 40
0
 40
0
 40
0
 40
0
 40
1
 40
1
 40
1
 40
1
 10
448.874444
 20
70.908333
 30
0.0
 10
449.156667
 20
71.578611
 30
0.0
 10
449.791667
 20
74.894722
 30
0.0
 10
450.320833
 20
78.246111
 30
0.0
  0
LWPOLYLINE
  5
18d
100
AcDbEntity
  8
0
 62
7
100
AcDbPolyline
 90
5
 70
0
 10
473.568889
 20
111.760000
 30
0.0
 10
473.357222
 20
110.772222
 30
0.0
 10
464.396667
 20
110.772222
 30
0.0
 10
455.400833
 20
110.772222
 30
0.0
 10
455.612500
 20
111.936389
 30
0.0
  0
SPLINE
  5
18e
100
AcDbEntity
  8
0
 62
7
100
AcDbSpline
 70
8
 71
3
 72
8
 73
4
 74
0
 40
0
 40
0
 40
0
 40
0
 40
1
 40
1
 40
1
 40
1
 10
469.053333
 20
83.361389
 30
0.0
 10
468.947500
 20
82.796944
 30
0.0
 10
468.453611
 20
79.833611
 30
0.0
 10
467.959722
 20
76.729167
 30
0.0
  0
SPLINE
  5
18f
100
AcDbEntity
  8
0
 62
7
100
AcDbSpline
 70
8
 71
3
 72
8
 73
4
 74
0
 40
0
 40
0
 40
0
 40
0
 40
1
 40
1
 40
1
 40
1
 10
467.959722
 20
76.729167
 30
0.0
 10
467.183611
 20
71.825556
 30
0.0
 10
466.901389
 20
70.696667
 30
0.0
 10
465.631389
 20
68.121389
 30
0.0
  0
SPLINE
  5
190
100
AcDbEntity
  8
0
 62
7
100
AcDbSpline
 70
8
 71
3
 72
8
 73
4
 74
0
 40
0
 40
0
 40
0
 40
0
 40
1
 40
1
 40
1
 40
1
 10
465.631389
 20
68.121389
 30
0.0
 10
463.232500
 20
63.288333
 30
0.0
 10
458.928611
 20
59.443056
 30
0.0
 10
453.319444
 20
57.220556
 30
0.0
  0
SPLINE
  5
191
100
AcDbEntity
  8
0
 62
7
100
AcDbSpline
 70
8
 71
3
 72
8
 73
4
 74
0
 40
0
 40
0
 40
0
 40
0
 40
1
 40
1
 40
1
 40
1
 10
453.319444
 20
57.220556
 30
0.0
 10
448.168889
 20
55.174444
 30
0.0
 10
441.042778
 20
54.327778
 30
0.0
 10
434.763333
 20
54.962778
 30
0.0
  0
SPLINE
  5
192
100
AcDbEntity
  8
0
 62
7
100
AcDbSpline
 70
8
 71
3
 72
8
 73
4
 74
0
 40
0
 40
0
 40
0
 40
0
 40
1
 40
1
 40
1
 40
1
 10
434.763333
 20
54.962778
 30
0.0
 10
423.650833
 20
56.126944
 30
0.0
 10
417.406667
 20
60.748333
 30
0.0
 10
416.207222
 20
68.721111
 30
0.0
  0
SPLINE
  5
193
100
AcDbEntity
  8
0
 62
7
100
AcDbSpline
 70
8
 71
3
 72
8
 73
4
 74
0
 40
0
 40
0
 40
0
 40
0
 40
1
 40
1
 40
1
 40
1
 10
416.207222
 20
68.721111
 30
0.0
 10
415.889722
 20
70.908333
 30
0.0
 10
416.136667
 20
72.813333
 30
0.0
 10
419.981944
 20
96.837500
 30
0.0
  0
SPLINE
  5
194
100
AcDbEntity
  8
0
 62
7
100
AcDbSpline
 70
8
 71
3
 72
8
 73
4
 74
0
 40
0
 40
0
 40
0
 40
0
 40
1
 40
1
 40
1
 40
1
 10
419.981944
 20
96.837500
 30
0.0
 10
422.204444
 20
111.019167
 30
0.0
 10
424.285833
 20
123.295833
 30
0.0
 10
424.568056
 20
124.177778
 30
0.0
  0
SPLINE
  5
195
100
AcDbEntity
  8
0
 62
7
100
AcDbSpline
 70
8
 71
3
 72
8
 73
4
 74
0
 40
0
 40
0
 40
0
 40
0
 40
1
 40
1
 40
1
 40
1
 10
424.568056
 20
124.177778
 30
0.0
 10
427.037500
 20
131.691944
 30
0.0
 10
434.904444
 20
137.689167
 30
0.0
 10
444.605833
 20
139.558889
 30
0.0
  0
SPLINE
  5
196
100
AcDbEntity
  8
0
 62
7
100
AcDbSpline
 70
8
 71
3
 72
8
 73
4
 74
0
 40
0
 40
0
 40
0
 40
0
 40
1
 40
1
 40
1
 40
1
 10
444.605833
 20
139.558889
 30
0.0
 10
448.592222
 20
140.299722
 30
0.0
 10
458.752222
 20
139.982222
 30
0.0
 10
462.138889
 20
138.994444
 30
0.0
  0
LWPOLYLINE
  5
197
100
AcDbEntity
  8
0
 62
7
100
AcDbPolyline
 90
5
 70
0
 10
450.320833
 20
78.246111
 30
0.0
 10
451.308611
 20
84.313889
 30
0.0
 10
460.269167
 20
84.313889
 30
0.0
 10
469.265000
 20
84.313889
 30
0.0
 10
469.053333
 20
83.361389
 30
0.0
  0
SPLINE
  5
198
100
AcDbEntity
  8
0
 62
7
100
AcDbSpline
 70
8
 71
3
 72
8
 73
4
 74
0
 40
0
 40
0
 40
0
 40
0
 40
1
 40
1
 40
1
 40
1
 10
518.230556
 20
138.994444
 30
0.0
 10
524.016111
 20
137.336389
 30
0.0
 10
528.073056
 20
134.302500
 30
0.0
 10
530.013333
 20
130.175000
 30
0.0
  0
SPLINE
  5
199
100
AcDbEntity
  8
0
 62
7
100
AcDbSpline
 70
8
 71
3
 72
8
 73
4
 74
0
 40
0
 40
0
 40
0
 40
0
 40
1
 40
1
 40
1
 40
1
 10
530.013333
 20
130.175000
 30
0.0
 10
531.918333
 20
126.082778
 30
0.0
 10
531.883056
 20
125.624167
 30
0.0
 10
527.261667
 20
96.661111
 30
0.0
  0
LWPOLYLINE
  5
19a
100
AcDbEntity
  8
0
 62
7
100
AcDbPolyline
 90
1
 70
1
 10
462.138889
 20
138.994444
 30
0.0
  0
SPLINE
  5
19b
100
AcDbEntity
  8
0
 62
7
100
AcDbSpline
 70
8
 71
3
 72
8
 73
4
 74
0
 40
0
 40
0
 40
0
 40
0
 40
1
 40
1
 40
1
 40
1
 10
521.793611
 20
68.262500
 30
0.0
 10
518.724444
 20
62.088889
 30
0.0
 10
513.221111
 20
57.926111
 30
0.0
 10
505.354167
 20
55.915278
 30
0.0
  0
SPLINE
  5
19c
100
AcDbEntity
  8
0
 62
7
100
AcDbSpline
 70
8
 71
3
 72
8
 73
4
 74
0
 40
0
 40
0
 40
0
 40
0
 40
1
 40
1
 40
1
 40
1
 10
505.354167
 20
55.915278
 30
0.0
 10
501.438333
 20
54.927500
 30
0.0
 10
495.300000
 20
54.504167
 30
0.0
 10
490.855000
 20
54.962778
 30
0.0
  0
SPLINE
  5
19d
100
AcDbEntity
  8
0
 62
7
100
AcDbSpline
 70
8
 71
3
 72
8
 73
4
 74
0
 40
0
 40
0
 40
0
 40
0
 40
1
 40
1
 40
1
 40
1
 10
490.855000
 20
54.962778
 30
0.0
 10
479.742500
 20
56.126944
 30
0.0
 10
473.498333
 20
60.748333
 30
0.0
 10
472.298889
 20
68.721111
 30
0.0
  0
SPLINE
  5
19e
100
AcDbEntity
  8
0
 62
7
100
AcDbSpline
 70
8
 71
3
 72
8
 73
4
 74
0
 40
0
 40
0
 40
0
 40
0
 40
1
 40
1
 40
1
 40
1
 10
472.298889
 20
68.721111
 30
0.0
 10
471.981389
 20
70.908333
 30
0.0
 10
472.228333
 20
72.813333
 30
0.0
 10
476.073611
 20
96.837500
 30
0.0
  0
SPLINE
  5
19f
100
AcDbEntity
  8
0
 62
7
100
AcDbSpline
 70
8
 71
3
 72
8
 73
4
 74
0
 40
0
 40
0
 40
0
 40
0
 40
1
 40
1
 40
1
 40
1
 10
476.073611
 20
96.837500
 30
0.0
 10
478.296111
 20
111.019167
 30
0.0
 10
480.377500
 20
123.295833
 30
0.0
 10
480.659722
 20
124.177778
 30
0.0
  0
SPLINE
  5
1a0
100
AcDbEntity
  8
0
 62
7
100
AcDbSpline
 70
8
 71
3
 72
8
 73
4
 74
0
 40
0
 40
0
 40
0
 40
0
 40
1
 40
1
 40
1
 40
1
 10
480.659722
 20
124.177778
 30
0.0
 10
483.093889
 20
131.656667
 30
0.0
 10
490.996111
 20
137.689167
 30
0.0
 10
500.697500
 20
139.558889
 30
0.0
  0
SPLINE
  5
1a1
100
AcDbEntity
  8
0
 62
7
100
AcDbSpline
 70
8
 71
3
 72
8
 73
4
 74
0
 40
0
 40
0
 40
0
 40
0
 40
1
 40
1
 40
1
 40
1
 10
500.697500
 20
139.558889
 30
0.0
 10
504.683889
 20
140.299722
 30
0.0
 10
514.843889
 20
139.982222
 30
0.0
 10
518.230556
 20
138.994444
 30
0.0
  0
LWPOLYLINE
  5
1a2
100
AcDbEntity
  8
0
 62
7
100
AcDbPolyline
 90
3
 70
0
 10
527.261667
 20
96.661111
 30
0.0
 10
523.169444
 20
71.084722
 30
0.0
 10
521.793611
 20
68.262500
 30
0.0
  0
SPLINE
  5
1a3
100
AcDbEntity
  8
0
 62
7
100
AcDbSpline
 70
8
 71
3
 72
8
 73
4
 74
0
 40
0
 40
0
 40
0
 40
0
 40
1
 40
1
 40
1
 40
1
 10
115.534722
 20
138.994444
 30
0.0
 10
128.446389
 20
137.900833
 30
0.0
 10
135.501944
 20
134.584722
 30
0.0
 10
138.253611
 20
128.375833
 30
0.0
  0
SPLINE
  5
1a4
100
AcDbEntity
  8
0
 62
7
100
AcDbSpline
 70
8
 71
3
 72
8
 73
4
 74
0
 40
0
 40
0
 40
0
 40
0
 40
1
 40
1
 40
1
 40
1
 10
138.253611
 20
128.375833
 30
0.0
 10
140.440833
 20
123.436944
 30
0.0
 10
139.700000
 20
114.688056
 30
0.0
 10
136.666111
 20
109.502222
 30
0.0
  0
SPLINE
  5
1a5
100
AcDbEntity
  8
0
 62
7
100
AcDbSpline
 70
8
 71
3
 72
8
 73
4
 74
0
 40
0
 40
0
 40
0
 40
0
 40
1
 40
1
 40
1
 40
1
 10
136.666111
 20
109.502222
 30
0.0
 10
134.972778
 20
106.644722
 30
0.0
 10
130.139722
 20
102.552500
 30
0.0
 10
126.118056
 20
100.647500
 30
0.0
  0
SPLINE
  5
1a6
100
AcDbEntity
  8
0
 62
7
100
AcDbSpline
 70
8
 71
3
 72
8
 73
4
 74
0
 40
0
 40
0
 40
0
 40
0
 40
1
 40
1
 40
1
 40
1
 10
126.118056
 20
100.647500
 30
0.0
 10
125.447778
 20
100.330000
 30
0.0
 10
124.883333
 20
99.977222
 30
0.0
 10
124.883333
 20
99.871389
 30
0.0
  0
SPLINE
  5
1a7
100
AcDbEntity
  8
0
 62
7
100
AcDbSpline
 70
8
 71
3
 72
8
 73
4
 74
0
 40
0
 40
0
 40
0
 40
0
 40
1
 40
1
 40
1
 40
1
 10
124.883333
 20
99.871389
 30
0.0
 10
124.883333
 20
99.765556
 30
0.0
 10
125.765278
 20
99.201111
 30
0.0
 10
126.823611
 20
98.636667
 30
0.0
  0
SPLINE
  5
1a8
100
AcDbEntity
  8
0
 62
7
100
AcDbSpline
 70
8
 71
3
 72
8
 73
4
 74
0
 40
0
 40
0
 40
0
 40
0
 40
1
 40
1
 40
1
 40
1
 10
126.823611
 20
98.636667
 30
0.0
 10
133.455833
 20
95.179444
 30
0.0
 10
136.419167
 20
86.254167
 30
0.0
 10
134.090833
 20
76.729167
 30
0.0
  0
SPLINE
  5
1a9
100
AcDbEntity
  8
0
 62
7
100
AcDbSpline
 70
8
 71
3
 72
8
 73
4
 74
0
 40
0
 40
0
 40
0
 40
0
 40
1
 40
1
 40
1
 40
1
 10
134.090833
 20
76.729167
 30
0.0
 10
131.233333
 20
64.911111
 30
0.0
 10
122.166944
 20
57.926111
 30
0.0
 10
107.420833
 20
56.126944
 30
0.0
  0
SPLINE
  5
1aa
100
AcDbEntity
  8
0
 62
7
100
AcDbSpline
 70
8
 71
3
 72
8
 73
4
 74
0
 40
0
 40
0
 40
0
 40
0
 40
1
 40
1
 40
1
 40
1
 10
107.420833
 20
56.126944
 30
0.0
 10
105.621667
 20
55.915278
 30
0.0
 10
98.425000
 20
55.738889
 30
0.0
 10
90.910833
 20
55.738889
 30
0.0
  0
LWPOLYLINE
  5
1ab
100
AcDbEntity
  8
0
 62
7
100
AcDbPolyline
 90
1
 70
1
 10
518.230556
 20
138.994444
 30
0.0
  0
SPLINE
  5
1ac
100
AcDbEntity
  8
0
 62
7
100
AcDbSpline
 70
8
 71
3
 72
8
 73
4
 74
0
 40
0
 40
0
 40
0
 40
0
 40
1
 40
1
 40
1
 40
1
 10
77.787500
 20
56.550278
 30
0.0
 10
77.858056
 20
56.973611
 30
0.0
 10
80.821389
 20
75.600278
 30
0.0
 10
84.313889
 20
97.895833
 30
0.0
  0
SPLINE
  5
1ad
100
AcDbEntity
  8
0
 62
7
100
AcDbSpline
 70
8
 71
3
 72
8
 73
4
 74
0
 40
0
 40
0
 40
0
 40
0
 40
1
 40
1
 40
1
 40
1
 10
84.313889
 20
97.895833
 30
0.0
 10
87.841667
 20
120.226667
 30
0.0
 10
90.769722
 20
138.676944
 30
0.0
 10
90.840278
 20
138.923889
 30
0.0
  0
SPLINE
  5
1ae
100
AcDbEntity
  8
0
 62
7
100
AcDbSpline
 70
8
 71
3
 72
8
 73
4
 74
0
 40
0
 40
0
 40
0
 40
0
 40
1
 40
1
 40
1
 40
1
 10
90.840278
 20
138.923889
 30
0.0
 10
91.051944
 20
139.453056
 30
0.0
 10
109.184722
 20
139.523611
 30
0.0
 10
115.534722
 20
138.994444
 30
0.0
  0
LWPOLYLINE
  5
1af
100
AcDbEntity
  8
0
 62
7
100
AcDbPolyline
 90
3
 70
0
 10
90.910833
 20
55.738889
 30
0.0
 10
77.611111
 20
55.738889
 30
0.0
 10
77.787500
 20
56.550278
 30
0.0
  0
SPLINE
  5
1b0
100
AcDbEntity
  8
0
 62
7
100
AcDbSpline
 70
8
 71
3
 72
8
 73
4
 74
0
 40
0
 40
0
 40
0
 40
0
 40
1
 40
1
 40
1
 40
1
 10
167.851667
 20
138.394722
 30
0.0
 10
167.781111
 20
137.830278
 30
0.0
 10
164.782500
 20
119.027222
 30
0.0
 10
161.184167
 20
96.590556
 30
0.0
  0
LWPOLYLINE
  5
1b1
100
AcDbEntity
  8
0
 62
7
100
AcDbPolyline
 90
1
 70
1
 10
115.534722
 20
138.994444
 30
0.0
  0
SPLINE
  5
1b2
100
AcDbEntity
  8
0
 62
7
100
AcDbSpline
 70
8
 71
3
 72
8
 73
4
 74
0
 40
0
 40
0
 40
0
 40
0
 40
1
 40
1
 40
1
 40
1
 10
135.819444
 20
57.432222
 30
0.0
 10
135.995833
 20
58.349444
 30
0.0
 10
138.923889
 20
76.940833
 30
0.0
 10
142.345833
 20
98.777778
 30
0.0
  0
SPLINE
  5
1b3
100
AcDbEntity
  8
0
 62
7
100
AcDbSpline
 70
8
 71
3
 72
8
 73
4
 74
0
 40
0
 40
0
 40
0
 40
0
 40
1
 40
1
 40
1
 40
1
 10
142.345833
 20
98.777778
 30
0.0
 10
145.767778
 20
120.614722
 30
0.0
 10
148.625278
 20
138.676944
 30
0.0
 10
148.695833
 20
138.923889
 30
0.0
  0
SPLINE
  5
1b4
100
AcDbEntity
  8
0
 62
7
100
AcDbSpline
 70
8
 71
3
 72
8
 73
4
 74
0
 40
0
 40
0
 40
0
 40
0
 40
1
 40
1
 40
1
 40
1
 10
148.695833
 20
138.923889
 30
0.0
 10
148.801667
 20
139.241389
 30
0.0
 10
151.059444
 20
139.347222
 30
0.0
 10
158.432500
 20
139.347222
 30
0.0
  0
LWPOLYLINE
  5
1b5
100
AcDbEntity
  8
0
 62
7
100
AcDbPolyline
 90
5
 70
0
 10
161.184167
 20
96.590556
 30
0.0
 10
154.693056
 20
55.738889
 30
0.0
 10
145.132778
 20
55.738889
 30
0.0
 10
135.572500
 20
55.738889
 30
0.0
 10
135.819444
 20
57.432222
 30
0.0
  0
SPLINE
  5
1b6
100
AcDbEntity
  8
0
 62
7
100
AcDbSpline
 70
8
 71
3
 72
8
 73
4
 74
0
 40
0
 40
0
 40
0
 40
0
 40
1
 40
1
 40
1
 40
1
 10
250.825000
 20
138.606389
 30
0.0
 10
250.825000
 20
137.865556
 30
0.0
 10
246.062500
 20
107.103333
 30
0.0
 10
245.709722
 20
105.586389
 30
0.0
  0
LWPOLYLINE
  5
1b7
100
AcDbEntity
  8
0
 62
7
100
AcDbPolyline
 90
4
 70
0
 10
158.432500
 20
139.347222
 30
0.0
 10
167.992778
 20
139.347222
 30
0.0
 10
167.851667
 20
138.394722
 30
0.0
 10
167.851667
 20
138.394722
 30
0.0
  0
SPLINE
  5
1b8
100
AcDbEntity
  8
0
 62
7
100
AcDbSpline
 70
8
 71
3
 72
8
 73
4
 74
0
 40
0
 40
0
 40
0
 40
0
 40
1
 40
1
 40
1
 40
1
 10
263.136944
 20
121.461389
 30
0.0
 10
264.583333
 20
130.598333
 30
0.0
 10
265.818056
 20
138.394722
 30
0.0
 10
265.923889
 20
138.747500
 30
0.0
  0
SPLINE
  5
1b9
100
AcDbEntity
  8
0
 62
7
100
AcDbSpline
 70
8
 71
3
 72
8
 73
4
 74
0
 40
0
 40
0
 40
0
 40
0
 40
1
 40
1
 40
1
 40
1
 10
265.923889
 20
138.747500
 30
0.0
 10
266.065000
 20
139.311944
 30
0.0
 10
266.841111
 20
139.347222
 30
0.0
 10
275.554722
 20
139.347222
 30
0.0
  0
SPLINE
  5
1ba
100
AcDbEntity
  8
0
 62
7
100
AcDbSpline
 70
8
 71
3
 72
8
 73
4
 74
0
 40
0
 40
0
 40
0
 40
0
 40
1
 40
1
 40
1
 40
1
 10
275.554722
 20
139.347222
 30
0.0
 10
283.351111
 20
139.347222
 30
0.0
 10
285.044444
 20
139.276667
 30
0.0
 10
285.044444
 20
138.853333
 30
0.0
  0
SPLINE
  5
1bb
100
AcDbEntity
  8
0
 62
7
100
AcDbSpline
 70
8
 71
3
 72
8
 73
4
 74
0
 40
0
 40
0
 40
0
 40
0
 40
1
 40
1
 40
1
 40
1
 10
285.044444
 20
138.853333
 30
0.0
 10
285.044444
 20
138.606389
 30
0.0
 10
282.116389
 20
119.909167
 30
0.0
 10
278.518056
 20
97.366667
 30
0.0
  0
SPLINE
  5
1bc
100
AcDbEntity
  8
0
 62
7
100
AcDbSpline
 70
8
 71
3
 72
8
 73
4
 74
0
 40
0
 40
0
 40
0
 40
0
 40
1
 40
1
 40
1
 40
1
 10
278.518056
 20
97.366667
 30
0.0
 10
274.919722
 20
74.824167
 30
0.0
 10
271.991667
 20
56.197500
 30
0.0
 10
271.991667
 20
56.056389
 30
0.0
  0
SPLINE
  5
1bd
100
AcDbEntity
  8
0
 62
7
100
AcDbSpline
 70
8
 71
3
 72
8
 73
4
 74
0
 40
0
 40
0
 40
0
 40
0
 40
1
 40
1
 40
1
 40
1
 10
271.991667
 20
56.056389
 30
0.0
 10
271.991667
 20
55.880000
 30
0.0
 10
267.723056
 20
55.738889
 30
0.0
 10
262.466667
 20
55.738889
 30
0.0
  0
LWPOLYLINE
  5
1be
100
AcDbEntity
  8
0
 62
7
100
AcDbPolyline
 90
5
 70
0
 10
245.709722
 20
105.586389
 30
0.0
 10
245.533333
 20
104.775000
 30
0.0
 10
253.012222
 20
104.775000
 30
0.0
 10
260.526389
 20
104.775000
 30
0.0
 10
263.136944
 20
121.461389
 30
0.0
  0
SPLINE
  5
1bf
100
AcDbEntity
  8
0
 62
7
100
AcDbSpline
 70
8
 71
3
 72
8
 73
4
 74
0
 40
0
 40
0
 40
0
 40
0
 40
1
 40
1
 40
1
 40
1
 10
252.976944
 20
56.550278
 30
0.0
 10
252.976944
 20
56.973611
 30
0.0
 10
254.211667
 20
65.122778
 30
0.0
 10
255.693333
 20
74.612500
 30
0.0
  0
LWPOLYLINE
  5
1c0
100
AcDbEntity
  8
0
 62
7
100
AcDbPolyline
 90
3
 70
0
 10
262.466667
 20
55.738889
 30
0.0
 10
252.941667
 20
55.738889
 30
0.0
 10
252.976944
 20
56.550278
 30
0.0
  0
SPLINE
  5
1c1
100
AcDbEntity
  8
0
 62
7
100
AcDbSpline
 70
8
 71
3
 72
8
 73
4
 74
0
 40
0
 40
0
 40
0
 40
0
 40
1
 40
1
 40
1
 40
1
 10
251.036667
 20
92.004444
 30
0.0
 10
246.979722
 20
92.039722
 30
0.0
 10
243.628333
 20
92.039722
 30
0.0
 10
243.593056
 20
92.004444
 30
0.0
  0
SPLINE
  5
1c2
100
AcDbEntity
  8
0
 62
7
100
AcDbSpline
 70
8
 71
3
 72
8
 73
4
 74
0
 40
0
 40
0
 40
0
 40
0
 40
1
 40
1
 40
1
 40
1
 10
243.593056
 20
92.004444
 30
0.0
 10
243.557778
 20
91.933889
 30
0.0
 10
242.287778
 20
84.208056
 30
0.0
 10
240.806111
 20
74.788889
 30
0.0
  0
SPLINE
  5
1c3
100
AcDbEntity
  8
0
 62
7
100
AcDbSpline
 70
8
 71
3
 72
8
 73
4
 74
0
 40
0
 40
0
 40
0
 40
0
 40
1
 40
1
 40
1
 40
1
 10
240.806111
 20
74.788889
 30
0.0
 10
239.324444
 20
65.369722
 30
0.0
 10
238.019167
 20
57.255833
 30
0.0
 10
237.913333
 20
56.726667
 30
0.0
  0
LWPOLYLINE
  5
1c4
100
AcDbEntity
  8
0
 62
7
100
AcDbPolyline
 90
3
 70
0
 10
255.693333
 20
74.612500
 30
0.0
 10
258.409722
 20
91.898611
 30
0.0
 10
251.036667
 20
92.004444
 30
0.0
  0
SPLINE
  5
1c5
100
AcDbEntity
  8
0
 62
7
100
AcDbSpline
 70
8
 71
3
 72
8
 73
4
 74
0
 40
0
 40
0
 40
0
 40
0
 40
1
 40
1
 40
1
 40
1
 10
228.211944
 20
55.738889
 30
0.0
 10
222.990833
 20
55.738889
 30
0.0
 10
218.722222
 20
55.880000
 30
0.0
 10
218.722222
 20
56.021111
 30
0.0
  0
SPLINE
  5
1c6
100
AcDbEntity
  8
0
 62
7
100
AcDbSpline
 70
8
 71
3
 72
8
 73
4
 74
0
 40
0
 40
0
 40
0
 40
0
 40
1
 40
1
 40
1
 40
1
 10
218.722222
 20
56.021111
 30
0.0
 10
218.722222
 20
56.232778
 30
0.0
 10
230.505000
 20
131.056944
 30
0.0
 10
231.633889
 20
138.041944
 30
0.0
  0
LWPOLYLINE
  5
1c7
100
AcDbEntity
  8
0
 62
7
100
AcDbPolyline
 90
3
 70
0
 10
237.913333
 20
56.726667
 30
0.0
 10
237.701667
 20
55.738889
 30
0.0
 10
228.211944
 20
55.738889
 30
0.0
  0
SPLINE
  5
1c8
100
AcDbEntity
  8
0
 62
7
100
AcDbSpline
 70
8
 71
3
 72
8
 73
4
 74
0
 40
0
 40
0
 40
0
 40
0
 40
1
 40
1
 40
1
 40
1
 10
241.335278
 20
139.347222
 30
0.0
 10
250.754444
 20
139.347222
 30
0.0
 10
250.825000
 20
139.347222
 30
0.0
 10
250.825000
 20
138.606389
 30
0.0
  0
LWPOLYLINE
  5
1c9
100
AcDbEntity
  8
0
 62
7
100
AcDbPolyline
 90
3
 70
0
 10
231.633889
 20
138.041944
 30
0.0
 10
231.845556
 20
139.347222
 30
0.0
 10
241.335278
 20
139.347222
 30
0.0
  0
SPLINE
  5
1ca
100
AcDbEntity
  8
0
 62
7
100
AcDbSpline
 70
8
 71
3
 72
8
 73
4
 74
0
 40
0
 40
0
 40
0
 40
0
 40
1
 40
1
 40
1
 40
1
 10
309.386111
 20
138.818056
 30
0.0
 10
309.386111
 20
138.535833
 30
0.0
 10
306.458056
 20
119.873889
 30
0.0
 10
302.859722
 20
97.331389
 30
0.0
  0
SPLINE
  5
1cb
100
AcDbEntity
  8
0
 62
7
100
AcDbSpline
 70
8
 71
3
 72
8
 73
4
 74
0
 40
0
 40
0
 40
0
 40
0
 40
1
 40
1
 40
1
 40
1
 10
302.859722
 20
97.331389
 30
0.0
 10
299.261389
 20
74.753611
 30
0.0
 10
296.333333
 20
56.197500
 30
0.0
 10
296.333333
 20
56.021111
 30
0.0
  0
SPLINE
  5
1cc
100
AcDbEntity
  8
0
 62
7
100
AcDbSpline
 70
8
 71
3
 72
8
 73
4
 74
0
 40
0
 40
0
 40
0
 40
0
 40
1
 40
1
 40
1
 40
1
 10
296.333333
 20
56.021111
 30
0.0
 10
296.333333
 20
55.880000
 30
0.0
 10
292.064722
 20
55.738889
 30
0.0
 10
286.808333
 20
55.738889
 30
0.0
  0
SPLINE
  5
1cd
100
AcDbEntity
  8
0
 62
7
100
AcDbSpline
 70
8
 71
3
 72
8
 73
4
 74
0
 40
0
 40
0
 40
0
 40
0
 40
1
 40
1
 40
1
 40
1
 10
286.808333
 20
55.738889
 30
0.0
 10
278.800278
 20
55.738889
 30
0.0
 10
277.283333
 20
55.809444
 30
0.0
 10
277.283333
 20
56.232778
 30
0.0
  0
SPLINE
  5
1ce
100
AcDbEntity
  8
0
 62
7
100
AcDbSpline
 70
8
 71
3
 72
8
 73
4
 74
0
 40
0
 40
0
 40
0
 40
0
 40
1
 40
1
 40
1
 40
1
 10
277.283333
 20
56.232778
 30
0.0
 10
277.283333
 20
56.761944
 30
0.0
 10
289.842222
 20
136.666111
 30
0.0
 10
290.195000
 20
138.394722
 30
0.0
  0
LWPOLYLINE
  5
1cf
100
AcDbEntity
  8
0
 62
7
100
AcDbPolyline
 90
1
 70
1
 10
250.825000
 20
138.606389
 30
0.0
  0
SPLINE
  5
1d0
100
AcDbEntity
  8
0
 62
7
100
AcDbSpline
 70
8
 71
3
 72
8
 73
4
 74
0
 40
0
 40
0
 40
0
 40
0
 40
1
 40
1
 40
1
 40
1
 10
299.896389
 20
139.347222
 30
0.0
 10
307.975000
 20
139.347222
 30
0.0
 10
309.386111
 20
139.276667
 30
0.0
 10
309.386111
 20
138.818056
 30
0.0
  0
LWPOLYLINE
  5
1d1
100
AcDbEntity
  8
0
 62
7
100
AcDbPolyline
 90
3
 70
0
 10
290.195000
 20
138.394722
 30
0.0
 10
290.406667
 20
139.347222
 30
0.0
 10
299.896389
 20
139.347222
 30
0.0
  0
SPLINE
  5
1d2
100
AcDbEntity
  8
0
 62
7
100
AcDbSpline
 70
8
 71
3
 72
8
 73
4
 74
0
 40
0
 40
0
 40
0
 40
0
 40
1
 40
1
 40
1
 40
1
 10
374.473611
 20
138.500556
 30
0.0
 10
384.810000
 20
136.454444
 30
0.0
 10
390.877778
 20
132.080000
 30
0.0
 10
393.382500
 20
124.883333
 30
0.0
  0
SPLINE
  5
1d3
100
AcDbEntity
  8
0
 62
7
100
AcDbSpline
 70
8
 71
3
 72
8
 73
4
 74
0
 40
0
 40
0
 40
0
 40
0
 40
1
 40
1
 40
1
 40
1
 10
393.382500
 20
124.883333
 30
0.0
 10
394.017500
 20
123.013611
 30
0.0
 10
394.158611
 20
121.849444
 30
0.0
 10
394.158611
 20
118.533333
 30
0.0
  0
SPLINE
  5
1d4
100
AcDbEntity
  8
0
 62
7
100
AcDbSpline
 70
8
 71
3
 72
8
 73
4
 74
0
 40
0
 40
0
 40
0
 40
0
 40
1
 40
1
 40
1
 40
1
 10
394.158611
 20
118.533333
 30
0.0
 10
394.158611
 20
113.876667
 30
0.0
 10
393.382500
 20
110.384167
 30
0.0
 10
391.442222
 20
106.362500
 30
0.0
  0
SPLINE
  5
1d5
100
AcDbEntity
  8
0
 62
7
100
AcDbSpline
 70
8
 71
3
 72
8
 73
4
 74
0
 40
0
 40
0
 40
0
 40
0
 40
1
 40
1
 40
1
 40
1
 10
391.442222
 20
106.362500
 30
0.0
 10
386.609167
 20
96.237778
 30
0.0
 10
375.531944
 20
90.170000
 30
0.0
 10
360.468333
 20
89.323333
 30
0.0
  0
LWPOLYLINE
  5
1d6
100
AcDbEntity
  8
0
 62
7
100
AcDbPolyline
 90
1
 70
1
 10
309.386111
 20
138.818056
 30
0.0
  0
SPLINE
  5
1d7
100
AcDbEntity
  8
0
 62
7
100
AcDbSpline
 70
8
 71
3
 72
8
 73
4
 74
0
 40
0
 40
0
 40
0
 40
0
 40
1
 40
1
 40
1
 40
1
 10
341.277222
 20
55.738889
 30
0.0
 10
332.316667
 20
55.738889
 30
0.0
 10
331.681667
 20
55.774167
 30
0.0
 10
331.822778
 20
56.373889
 30
0.0
  0
SPLINE
  5
1d8
100
AcDbEntity
  8
0
 62
7
100
AcDbSpline
 70
8
 71
3
 72
8
 73
4
 74
0
 40
0
 40
0
 40
0
 40
0
 40
1
 40
1
 40
1
 40
1
 10
331.822778
 20
56.373889
 30
0.0
 10
331.893333
 20
56.691389
 30
0.0
 10
334.821389
 20
75.141667
 30
0.0
 10
338.313889
 20
97.366667
 30
0.0
  0
SPLINE
  5
1d9
100
AcDbEntity
  8
0
 62
7
100
AcDbSpline
 70
8
 71
3
 72
8
 73
4
 74
0
 40
0
 40
0
 40
0
 40
0
 40
1
 40
1
 40
1
 40
1
 10
338.313889
 20
97.366667
 30
0.0
 10
341.806389
 20
119.591667
 30
0.0
 10
344.734444
 20
138.147778
 30
0.0
 10
344.840278
 20
138.606389
 30
0.0
  0
LWPOLYLINE
  5
1da
100
AcDbEntity
  8
0
 62
7
100
AcDbPolyline
 90
5
 70
0
 10
360.468333
 20
89.323333
 30
0.0
 10
356.164444
 20
89.076389
 30
0.0
 10
353.518611
 20
72.425278
 30
0.0
 10
350.872778
 20
55.738889
 30
0.0
 10
341.277222
 20
55.738889
 30
0.0
  0
SPLINE
  5
1db
100
AcDbEntity
  8
0
 62
7
100
AcDbSpline
 70
8
 71
3
 72
8
 73
4
 74
0
 40
0
 40
0
 40
0
 40
0
 40
1
 40
1
 40
1
 40
1
 10
358.351667
 20
139.241389
 30
0.0
 10
368.370556
 20
139.100278
 30
0.0
 10
372.356944
 20
138.923889
 30
0.0
 10
374.473611
 20
138.500556
 30
0.0
  0
LWPOLYLINE
  5
1dc
100
AcDbEntity
  8
0
 62
7
100
AcDbPolyline
 90
3
 70
0
 10
344.840278
 20
138.606389
 30
0.0
 10
345.051944
 20
139.417778
 30
0.0
 10
358.351667
 20
139.241389
 30
0.0
  0
SPLINE
  5
1dd
100
AcDbEntity
  8
0
 62
7
100
AcDbSpline
 70
8
 71
3
 72
8
 73
4
 74
0
 40
0
 40
0
 40
0
 40
0
 40
1
 40
1
 40
1
 40
1
 10
421.569444
 20
138.818056
 30
0.0
 10
421.569444
 20
138.535833
 30
0.0
 10
418.641389
 20
119.838611
 30
0.0
 10
415.043056
 20
97.296111
 30
0.0
  0
SPLINE
  5
1de
100
AcDbEntity
  8
0
 62
7
100
AcDbSpline
 70
8
 71
3
 72
8
 73
4
 74
0
 40
0
 40
0
 40
0
 40
0
 40
1
 40
1
 40
1
 40
1
 10
415.043056
 20
97.296111
 30
0.0
 10
411.444722
 20
74.753611
 30
0.0
 10
408.516667
 20
56.197500
 30
0.0
 10
408.516667
 20
56.021111
 30
0.0
  0
SPLINE
  5
1df
100
AcDbEntity
  8
0
 62
7
100
AcDbSpline
 70
8
 71
3
 72
8
 73
4
 74
0
 40
0
 40
0
 40
0
 40
0
 40
1
 40
1
 40
1
 40
1
 10
408.516667
 20
56.021111
 30
0.0
 10
408.516667
 20
55.880000
 30
0.0
 10
404.248056
 20
55.738889
 30
0.0
 10
398.991667
 20
55.738889
 30
0.0
  0
SPLINE
  5
1e0
100
AcDbEntity
  8
0
 62
7
100
AcDbSpline
 70
8
 71
3
 72
8
 73
4
 74
0
 40
0
 40
0
 40
0
 40
0
 40
1
 40
1
 40
1
 40
1
 10
398.991667
 20
55.738889
 30
0.0
 10
390.983611
 20
55.738889
 30
0.0
 10
389.466667
 20
55.809444
 30
0.0
 10
389.466667
 20
56.232778
 30
0.0
  0
SPLINE
  5
1e1
100
AcDbEntity
  8
0
 62
7
100
AcDbSpline
 70
8
 71
3
 72
8
 73
4
 74
0
 40
0
 40
0
 40
0
 40
0
 40
1
 40
1
 40
1
 40
1
 10
389.466667
 20
56.232778
 30
0.0
 10
389.466667
 20
56.761944
 30
0.0
 10
402.025556
 20
136.666111
 30
0.0
 10
402.378333
 20
138.394722
 30
0.0
  0
LWPOLYLINE
  5
1e2
100
AcDbEntity
  8
0
 62
7
100
AcDbPolyline
 90
1
 70
1
 10
374.473611
 20
138.500556
 30
0.0
  0
SPLINE
  5
1e3
100
AcDbEntity
  8
0
 62
7
100
AcDbSpline
 70
8
 71
3
 72
8
 73
4
 74
0
 40
0
 40
0
 40
0
 40
0
 40
1
 40
1
 40
1
 40
1
 10
412.079722
 20
139.347222
 30
0.0
 10
420.264167
 20
139.347222
 30
0.0
 10
421.569444
 20
139.276667
 30
0.0
 10
421.569444
 20
138.818056
 30
0.0
  0
LWPOLYLINE
  5
1e4
100
AcDbEntity
  8
0
 62
7
100
AcDbPolyline
 90
3
 70
0
 10
402.378333
 20
138.394722
 30
0.0
 10
402.590000
 20
139.347222
 30
0.0
 10
412.079722
 20
139.347222
 30
0.0
  0
SPLINE
  5
1e5
100
AcDbEntity
  8
0
 62
7
100
AcDbSpline
 70
8
 71
3
 72
8
 73
4
 74
0
 40
0
 40
0
 40
0
 40
0
 40
1
 40
1
 40
1
 40
1
 10
506.059722
 20
128.199444
 30
0.0
 10
505.883333
 20
128.164167
 30
0.0
 10
505.107222
 20
128.023056
 30
0.0
 10
504.366389
 20
127.881944
 30
0.0
  0
SPLINE
  5
1e6
100
AcDbEntity
  8
0
 62
7
100
AcDbSpline
 70
8
 71
3
 72
8
 73
4
 74
0
 40
0
 40
0
 40
0
 40
0
 40
1
 40
1
 40
1
 40
1
 10
504.366389
 20
127.881944
 30
0.0
 10
502.778889
 20
127.635000
 30
0.0
 10
500.662222
 20
125.871111
 30
0.0
 10
499.991944
 20
124.213056
 30
0.0
  0
SPLINE
  5
1e7
100
AcDbEntity
  8
0
 62
7
100
AcDbSpline
 70
8
 71
3
 72
8
 73
4
 74
0
 40
0
 40
0
 40
0
 40
0
 40
1
 40
1
 40
1
 40
1
 10
499.991944
 20
124.213056
 30
0.0
 10
499.427500
 20
122.872500
 30
0.0
 10
491.419444
 20
73.342500
 30
0.0
 10
491.419444
 20
71.225833
 30
0.0
  0
SPLINE
  5
1e8
100
AcDbEntity
  8
0
 62
7
100
AcDbSpline
 70
8
 71
3
 72
8
 73
4
 74
0
 40
0
 40
0
 40
0
 40
0
 40
1
 40
1
 40
1
 40
1
 10
491.419444
 20
71.225833
 30
0.0
 10
491.419444
 20
69.532500
 30
0.0
 10
492.689444
 20
67.662778
 30
0.0
 10
494.241667
 20
67.133611
 30
0.0
  0
SPLINE
  5
1e9
100
AcDbEntity
  8
0
 62
7
100
AcDbSpline
 70
8
 71
3
 72
8
 73
4
 74
0
 40
0
 40
0
 40
0
 40
0
 40
1
 40
1
 40
1
 40
1
 10
494.241667
 20
67.133611
 30
0.0
 10
496.746389
 20
66.286944
 30
0.0
 10
500.415278
 20
66.816111
 30
0.0
 10
502.073333
 20
68.333056
 30
0.0
  0
SPLINE
  5
1ea
100
AcDbEntity
  8
0
 62
7
100
AcDbSpline
 70
8
 71
3
 72
8
 73
4
 74
0
 40
0
 40
0
 40
0
 40
0
 40
1
 40
1
 40
1
 40
1
 10
502.073333
 20
68.333056
 30
0.0
 10
503.801944
 20
69.885278
 30
0.0
 10
504.048889
 20
71.120000
 30
0.0
 10
508.176389
 20
97.366667
 30
0.0
  0
SPLINE
  5
1eb
100
AcDbEntity
  8
0
 62
7
100
AcDbSpline
 70
8
 71
3
 72
8
 73
4
 74
0
 40
0
 40
0
 40
0
 40
0
 40
1
 40
1
 40
1
 40
1
 10
508.176389
 20
97.366667
 30
0.0
 10
510.398889
 20
111.548333
 30
0.0
 10
512.233333
 20
123.472222
 30
0.0
 10
512.233333
 20
123.860278
 30
0.0
  0
SPLINE
  5
1ec
100
AcDbEntity
  8
0
 62
7
100
AcDbSpline
 70
8
 71
3
 72
8
 73
4
 74
0
 40
0
 40
0
 40
0
 40
0
 40
1
 40
1
 40
1
 40
1
 10
512.233333
 20
123.860278
 30
0.0
 10
512.233333
 20
125.059722
 30
0.0
 10
511.245556
 20
126.823611
 30
0.0
 10
510.187222
 20
127.423333
 30
0.0
  0
SPLINE
  5
1ed
100
AcDbEntity
  8
0
 62
7
100
AcDbSpline
 70
8
 71
3
 72
8
 73
4
 74
0
 40
0
 40
0
 40
0
 40
0
 40
1
 40
1
 40
1
 40
1
 10
510.187222
 20
127.423333
 30
0.0
 10
509.270000
 20
127.952500
 30
0.0
 10
506.800556
 20
128.411111
 30
0.0
 10
506.059722
 20
128.199444
 30
0.0
  0
LWPOLYLINE
  5
1ee
100
AcDbEntity
  8
0
 62
7
100
AcDbPolyline
 90
1
 70
1
 10
421.569444
 20
138.818056
 30
0.0
  0
SPLINE
  5
1ef
100
AcDbEntity
  8
0
 62
7
100
AcDbSpline
 70
8
 71
3
 72
8
 73
4
 74
0
 40
0
 40
0
 40
0
 40
0
 40
1
 40
1
 40
1
 40
1
 10
106.397778
 20
116.063889
 30
0.0
 10
105.445278
 20
110.031389
 30
0.0
 10
104.775000
 20
104.986667
 30
0.0
 10
104.916111
 20
104.880833
 30
0.0
  0
SPLINE
  5
1f0
100
AcDbEntity
  8
0
 62
7
100
AcDbSpline
 70
8
 71
3
 72
8
 73
4
 74
0
 40
0
 40
0
 40
0
 40
0
 40
1
 40
1
 40
1
 40
1
 10
104.916111
 20
104.880833
 30
0.0
 10
105.057222
 20
104.739722
 30
0.0
 10
106.680000
 20
104.810278
 30
0.0
 10
108.585000
 20
105.057222
 30
0.0
  0
SPLINE
  5
1f1
100
AcDbEntity
  8
0
 62
7
100
AcDbSpline
 70
8
 71
3
 72
8
 73
4
 74
0
 40
0
 40
0
 40
0
 40
0
 40
1
 40
1
 40
1
 40
1
 10
108.585000
 20
105.057222
 30
0.0
 10
116.275556
 20
106.009722
 30
0.0
 10
120.050278
 20
109.819722
 30
0.0
 10
120.544167
 20
117.157500
 30
0.0
  0
SPLINE
  5
1f2
100
AcDbEntity
  8
0
 62
7
100
AcDbSpline
 70
8
 71
3
 72
8
 73
4
 74
0
 40
0
 40
0
 40
0
 40
0
 40
1
 40
1
 40
1
 40
1
 10
120.544167
 20
117.157500
 30
0.0
 10
120.791111
 20
120.720556
 30
0.0
 10
120.508889
 20
122.166944
 30
0.0
 10
119.168333
 20
123.683889
 30
0.0
  0
SPLINE
  5
1f3
100
AcDbEntity
  8
0
 62
7
100
AcDbSpline
 70
8
 71
3
 72
8
 73
4
 74
0
 40
0
 40
0
 40
0
 40
0
 40
1
 40
1
 40
1
 40
1
 10
119.168333
 20
123.683889
 30
0.0
 10
117.298611
 20
125.800556
 30
0.0
 10
113.982500
 20
127.000000
 30
0.0
 10
109.960833
 20
127.000000
 30
0.0
  0
LWPOLYLINE
  5
1f4
100
AcDbEntity
  8
0
 62
7
100
AcDbPolyline
 90
1
 70
1
 10
506.059722
 20
128.199444
 30
0.0
  0
SPLINE
  5
1f5
100
AcDbEntity
  8
0
 62
7
100
AcDbSpline
 70
8
 71
3
 72
8
 73
4
 74
0
 40
0
 40
0
 40
0
 40
0
 40
1
 40
1
 40
1
 40
1
 10
102.658333
 20
93.133333
 30
0.0
 10
102.658333
 20
92.886389
 30
0.0
 10
101.776389
 20
87.206667
 30
0.0
 10
100.718056
 20
80.539167
 30
0.0
  0
SPLINE
  5
1f6
100
AcDbEntity
  8
0
 62
7
100
AcDbSpline
 70
8
 71
3
 72
8
 73
4
 74
0
 40
0
 40
0
 40
0
 40
0
 40
1
 40
1
 40
1
 40
1
 10
100.718056
 20
80.539167
 30
0.0
 10
99.659722
 20
73.836389
 30
0.0
 10
98.777778
 20
68.227222
 30
0.0
 10
98.777778
 20
68.050833
 30
0.0
  0
SPLINE
  5
1f7
100
AcDbEntity
  8
0
 62
7
100
AcDbSpline
 70
8
 71
3
 72
8
 73
4
 74
0
 40
0
 40
0
 40
0
 40
0
 40
1
 40
1
 40
1
 40
1
 10
98.777778
 20
68.050833
 30
0.0
 10
98.777778
 20
67.063056
 30
0.0
 10
106.080278
 20
68.262500
 30
0.0
 10
108.443889
 20
69.638333
 30
0.0
  0
SPLINE
  5
1f8
100
AcDbEntity
  8
0
 62
7
100
AcDbSpline
 70
8
 71
3
 72
8
 73
4
 74
0
 40
0
 40
0
 40
0
 40
0
 40
1
 40
1
 40
1
 40
1
 10
108.443889
 20
69.638333
 30
0.0
 10
112.712500
 20
72.143056
 30
0.0
 10
115.146667
 20
77.364167
 30
0.0
 10
115.181944
 20
84.137500
 30
0.0
  0
SPLINE
  5
1f9
100
AcDbEntity
  8
0
 62
7
100
AcDbSpline
 70
8
 71
3
 72
8
 73
4
 74
0
 40
0
 40
0
 40
0
 40
0
 40
1
 40
1
 40
1
 40
1
 10
115.181944
 20
84.137500
 30
0.0
 10
115.181944
 20
87.065556
 30
0.0
 10
115.076111
 20
87.488889
 30
0.0
 10
114.088333
 20
89.252778
 30
0.0
  0
SPLINE
  5
1fa
100
AcDbEntity
  8
0
 62
7
100
AcDbSpline
 70
8
 71
3
 72
8
 73
4
 74
0
 40
0
 40
0
 40
0
 40
0
 40
1
 40
1
 40
1
 40
1
 10
114.088333
 20
89.252778
 30
0.0
 10
112.536111
 20
92.004444
 30
0.0
 10
110.278333
 20
93.133333
 30
0.0
 10
105.868611
 20
93.415556
 30
0.0
  0
SPLINE
  5
1fb
100
AcDbEntity
  8
0
 62
7
100
AcDbSpline
 70
8
 71
3
 72
8
 73
4
 74
0
 40
0
 40
0
 40
0
 40
0
 40
1
 40
1
 40
1
 40
1
 10
105.868611
 20
93.415556
 30
0.0
 10
103.434444
 20
93.556667
 30
0.0
 10
102.658333
 20
93.486111
 30
0.0
 10
102.658333
 20
93.133333
 30
0.0
  0
LWPOLYLINE
  5
1fc
100
AcDbEntity
  8
0
 62
7
100
AcDbPolyline
 90
4
 70
0
 10
109.960833
 20
127.000000
 30
0.0
 10
108.091111
 20
127.000000
 30
0.0
 10
106.397778
 20
116.063889
 30
0.0
 10
106.397778
 20
116.063889
 30
0.0
  0
SPLINE
  5
1fd
100
AcDbEntity
  8
0
 62
7
100
AcDbSpline
 70
8
 71
3
 72
8
 73
4
 74
0
 40
0
 40
0
 40
0
 40
0
 40
1
 40
1
 40
1
 40
1
 10
360.221389
 20
114.793889
 30
0.0
 10
359.198333
 20
108.196944
 30
0.0
 10
358.281111
 20
102.517222
 30
0.0
 10
358.175278
 20
102.164444
 30
0.0
  0
SPLINE
  5
1fe
100
AcDbEntity
  8
0
 62
7
100
AcDbSpline
 70
8
 71
3
 72
8
 73
4
 74
0
 40
0
 40
0
 40
0
 40
0
 40
1
 40
1
 40
1
 40
1
 10
358.175278
 20
102.164444
 30
0.0
 10
357.998889
 20
101.529444
 30
0.0
 10
358.140000
 20
101.494167
 30
0.0
 10
361.350278
 20
101.741111
 30
0.0
  0
SPLINE
  5
1ff
100
AcDbEntity
  8
0
 62
7
100
AcDbSpline
 70
8
 71
3
 72
8
 73
4
 74
0
 40
0
 40
0
 40
0
 40
0
 40
1
 40
1
 40
1
 40
1
 10
361.350278
 20
101.741111
 30
0.0
 10
367.735556
 20
102.164444
 30
0.0
 10
371.298611
 20
103.998889
 30
0.0
 10
372.850833
 20
107.561944
 30
0.0
  0
SPLINE
  5
200
100
AcDbEntity
  8
0
 62
7
100
AcDbSpline
 70
8
 71
3
 72
8
 73
4
 74
0
 40
0
 40
0
 40
0
 40
0
 40
1
 40
1
 40
1
 40
1
 10
372.850833
 20
107.561944
 30
0.0
 10
374.403056
 20
111.195556
 30
0.0
 10
375.390833
 20
118.603889
 30
0.0
 10
374.685278
 20
121.249722
 30
0.0
  0
SPLINE
  5
201
100
AcDbEntity
  8
0
 62
7
100
AcDbSpline
 70
8
 71
3
 72
8
 73
4
 74
0
 40
0
 40
0
 40
0
 40
0
 40
1
 40
1
 40
1
 40
1
 10
374.685278
 20
121.249722
 30
0.0
 10
373.768056
 20
124.601111
 30
0.0
 10
370.875278
 20
126.223889
 30
0.0
 10
365.301389
 20
126.541389
 30
0.0
  0
LWPOLYLINE
  5
202
100
AcDbEntity
  8
0
 62
7
100
AcDbPolyline
 90
1
 70
1
 10
102.658333
 20
93.133333
 30
0.0
  0
LWPOLYLINE
  5
203
100
AcDbEntity
  8
0
 62
7
100
AcDbPolyline
 90
4
 70
0
 10
365.301389
 20
126.541389
 30
0.0
 10
362.091111
 20
126.753056
 30
0.0
 10
360.221389
 20
114.793889
 30
0.0
 10
360.221389
 20
114.793889
 30
0.0
  0
ENDSEC
  0
SECTION
  2
OBJECTS
  0
DICTIONARY
  5
C
330
0
100
AcDbDictionary
  3
ACAD_GROUP
350
D
  3
ACAD_MLINESTYLE
350
17
  0
DICTIONARY
  5
D
330
C
100
AcDbDictionary
  0
DICTIONARY
  5
1A
330
C
100
AcDbDictionary
  0
DICTIONARY
  5
17
330
C
100
AcDbDictionary
  3
STANDARD
350
18
  0
DICTIONARY
  5
19
330
C
100
AcDbDictionary
  0
ENDSEC
  0
EOF
