<?xml version="1.0" standalone="no"?>
<!DOCTYPE svg PUBLIC "-//W3C//DTD SVG 20010904//EN"
 "http://www.w3.org/TR/2001/REC-SVG-20010904/DTD/svg10.dtd">
<svg version="1.0" xmlns="http://www.w3.org/2000/svg"
 width="1829.000000pt" height="571.000000pt" viewBox="0 0 1829.000000 571.000000"
 preserveAspectRatio="xMidYMid meet">

<g transform="translate(0.000000,571.000000) scale(0.100000,-0.100000)"
fill="#000000" stroke="none">
<path d="M0 2855 l0 -2855 9145 0 9145 0 0 2855 0 2855 -9145 0 -9145 0 0
-2855z m9250 2196 c965 -37 1751 -79 2365 -126 105 -8 200 -15 213 -15 22 0
22 0 22 -180 0 -99 -3 -180 -7 -180 -5 0 -125 9 -268 20 -780 58 -1671 103
-2610 131 -799 24 -2233 14 -2900 -21 -93 -5 -171 -8 -171 -7 -1 1 12 81 29
177 l32 174 33 7 c18 4 198 12 400 18 202 7 399 13 437 15 163 7 2173 -3 2425
-13z m-3663 -63 c-3 -13 -18 -93 -33 -178 -15 -85 -28 -156 -28 -157 -1 -1
-64 -6 -141 -12 -77 -6 -168 -14 -202 -17 l-63 -6 0 181 0 181 33 1 c17 0 100
7 182 14 83 7 174 13 204 14 50 1 53 0 48 -21z m-817 -223 c0 -173 0 -175 -22
-179 -24 -5 -329 -39 -363 -40 -18 -1 -21 13 -41 169 -12 94 -19 173 -15 177
7 8 323 45 394 47 l47 1 0 -175z m7664 94 c105 -8 160 -17 163 -25 5 -13 -24
-334 -31 -341 -2 -2 -80 3 -174 11 -93 9 -172 16 -176 16 -3 0 -6 82 -6 181
l0 181 33 -5 c17 -3 103 -11 191 -18z m-8464 -19 c0 -6 9 -85 20 -177 12 -91
20 -167 18 -168 -2 -2 -77 -15 -168 -30 -1253 -206 -1985 -549 -2060 -963 -31
-174 70 -408 280 -650 101 -117 118 -169 85 -249 -21 -50 -42 -72 -90 -94 -35
-16 -68 -19 -254 -19 l-214 0 199 -99 c235 -116 274 -151 274 -241 0 -58 -180
-961 -197 -991 -10 -17 -127 -114 -262 -217 -134 -103 -256 -197 -270 -210
l-26 -23 949 5 c522 3 3962 6 7644 6 l6695 0 -50 53 c-118 125 -182 240 -204
363 -23 130 2 340 67 566 38 132 112 333 138 371 15 23 73 61 201 134 99 56
191 109 205 117 23 14 16 15 -103 16 -143 0 -178 9 -220 59 -56 68 -58 47 68
774 63 366 115 669 115 674 0 13 -338 93 -690 163 -557 112 -1231 217 -1985
310 -225 27 -428 52 -451 55 l-41 6 46 169 c26 93 49 171 51 174 5 5 640 -72
975 -119 558 -77 1008 -152 1475 -245 377 -75 838 -187 907 -221 56 -27 93
-87 93 -153 0 -25 -47 -320 -105 -654 -58 -334 -105 -614 -105 -622 0 -13 45
-15 357 -12 311 2 364 1 401 -14 115 -43 143 -207 50 -290 -12 -12 -201 -121
-418 -244 -217 -122 -427 -241 -467 -263 l-72 -40 -36 -101 c-93 -264 -130
-517 -87 -601 52 -104 200 -242 423 -397 141 -98 164 -129 157 -218 -5 -69
-36 -117 -95 -146 -37 -19 -219 -19 -8233 -22 -4507 -1 -8210 0 -8228 3 -40 7
-101 59 -118 102 -30 72 -11 146 52 203 21 19 229 181 462 358 232 178 422
326 422 329 0 3 29 159 65 346 37 186 65 341 63 342 -8 8 -814 401 -876 427
-44 19 -84 44 -102 64 -70 80 -59 196 25 259 49 38 113 44 528 51 l358 6 -26
43 c-54 93 -106 207 -132 291 -24 80 -27 104 -28 244 0 136 3 163 23 224 49
146 124 268 234 377 349 349 1014 600 2083 784 105 18 193 33 198 34 4 1 7 -4
7 -9z m9245 -56 c88 -9 161 -17 161 -18 2 -1 -88 -340 -91 -344 -2 -2 -82 5
-179 15 l-176 17 0 30 c0 37 19 248 26 294 5 34 5 34 52 28 26 -3 119 -13 207
-22z m-6815 -1219 c248 -66 369 -223 370 -477 0 -133 20 -123 -257 -137 -131
-7 -250 -14 -264 -17 l-25 -5 4 88 c5 107 -9 163 -52 210 -28 31 -40 37 -89
41 -81 7 -123 -4 -167 -44 -49 -45 -82 -127 -84 -209 -1 -110 54 -196 311
-481 254 -283 352 -419 400 -556 92 -266 -83 -610 -369 -726 -205 -82 -546
-102 -778 -46 -220 54 -343 180 -371 379 -11 81 -4 240 11 265 9 14 293 38
466 39 l71 1 -9 -62 c-5 -35 -7 -93 -4 -130 8 -111 49 -169 134 -194 127 -37
249 18 301 136 81 183 36 279 -308 652 -208 225 -316 382 -366 531 -112 334
145 671 574 752 106 20 411 14 501 -10z m7740 0 c167 -44 286 -129 344 -245
51 -102 54 -155 20 -376 l-29 -184 -252 0 c-234 0 -253 1 -253 18 0 9 12 94
27 188 26 170 26 170 7 210 -26 53 -76 77 -163 77 -103 0 -170 -43 -207 -132
-19 -45 -234 -1394 -234 -1467 0 -52 3 -59 38 -94 29 -29 49 -40 86 -45 58 -9
146 7 192 36 52 32 71 81 99 256 14 87 27 168 30 181 l5 22 250 0 c231 0 250
-1 250 -17 0 -10 -13 -96 -29 -191 -24 -146 -35 -186 -65 -248 -61 -122 -187
-241 -313 -295 -202 -87 -503 -109 -718 -54 -158 41 -281 129 -336 241 -58
117 -57 129 75 954 l116 725 40 82 c91 184 269 310 515 363 117 25 402 23 505
-5z m1710 -4 c165 -49 280 -133 336 -247 53 -109 51 -144 -76 -934 -61 -382
-116 -713 -121 -735 -21 -79 -82 -178 -155 -251 -159 -160 -445 -243 -743
-215 -202 19 -336 70 -429 162 -101 101 -133 216 -107 386 44 298 217 1364
226 1398 35 130 174 290 314 362 164 83 266 103 505 99 144 -3 188 -7 250 -25z
m-12255 -11 c262 -36 450 -132 517 -264 65 -126 64 -324 -1 -496 -41 -107
-131 -200 -285 -290 -42 -25 -76 -47 -76 -50 0 -3 21 -16 47 -30 99 -52 185
-169 218 -295 30 -116 14 -289 -41 -434 -99 -262 -347 -428 -711 -476 -142
-19 -853 -22 -853 -4 0 11 340 2174 362 2298 l10 63 367 -5 c201 -3 402 -11
446 -17z m1475 7 c0 -7 -83 -536 -185 -1174 -102 -638 -185 -1166 -185 -1172
0 -8 -78 -11 -270 -11 -250 0 -270 1 -270 18 0 17 356 2287 365 2330 l5 22
270 0 c217 0 270 -3 270 -13z m2570 10 c0 -2 -34 -217 -75 -477 -41 -260 -75
-479 -75 -487 0 -10 41 -13 210 -13 116 0 210 2 210 4 0 3 34 218 75 479 41
261 75 480 75 486 0 8 81 11 275 11 l275 0 -5 -22 c-2 -13 -86 -536 -185
-1163 -99 -627 -183 -1150 -185 -1162 l-5 -23 -270 0 c-149 0 -270 2 -270 4 0
5 148 949 155 994 l6 32 -211 0 c-115 0 -210 -1 -211 -2 0 -2 -38 -232 -83
-513 l-82 -510 -272 -3 -272 -2 5 22 c2 13 86 541 185 1173 100 633 183 1156
185 1163 3 9 67 12 275 12 148 0 270 -2 270 -3z m1760 -13 c0 -9 -83 -539
-185 -1177 -102 -638 -185 -1164 -185 -1169 0 -4 -121 -8 -270 -8 -227 0 -270
2 -270 14 0 15 356 2280 366 2329 l6 27 269 0 c241 0 269 -2 269 -16z m2058
-8 c387 -75 577 -279 558 -601 -24 -424 -319 -705 -819 -779 -58 -9 -139 -16
-180 -16 -74 0 -76 0 -81 -27 -8 -37 -146 -904 -146 -915 0 -4 -121 -8 -270
-8 -227 0 -270 2 -270 14 0 15 356 2281 366 2330 l6 28 377 -5 c288 -4 396 -9
459 -21z m1442 17 c0 -5 -84 -538 -187 -1185 l-187 -1178 -271 0 -271 0 187
1183 c103 650 188 1183 188 1185 2 6 541 1 541 -5z"/>
<path d="M15505 3255 c-5 -2 -27 -6 -48 -10 -45 -7 -105 -57 -124 -102 -13
-33 -243 -1448 -243 -1498 0 -83 56 -129 160 -130 106 0 175 50 199 144 14 51
231 1440 231 1474 0 40 -26 84 -58 100 -28 15 -99 28 -117 22z"/>
<path d="M3266 3189 c-30 -172 -94 -595 -90 -598 9 -9 193 19 236 36 131 51
198 152 214 324 16 167 -71 252 -273 266 l-82 6 -5 -34z"/>
<path d="M3120 2268 c-53 -302 -114 -721 -105 -724 6 -3 51 0 101 6 147 16
241 76 298 188 51 100 71 294 40 385 -32 93 -129 147 -266 147 -37 0 -68 -1
-68 -2z"/>
<path d="M11108 3204 c-11 -19 -112 -694 -105 -701 11 -11 205 14 262 33 65
23 134 93 158 159 24 70 47 208 47 285 0 110 -51 181 -149 211 -48 14 -207 24
-213 13z"/>
</g>
</svg>
