<?xml version="1.0" standalone="no"?>
<!DOCTYPE svg PUBLIC "-//W3C//DTD SVG 20010904//EN"
 "http://www.w3.org/TR/2001/REC-SVG-20010904/DTD/svg10.dtd">
<svg version="1.0" xmlns="http://www.w3.org/2000/svg"
 width="1723.000000pt" height="582.000000pt" viewBox="0 0 1723.000000 582.000000"
 preserveAspectRatio="xMidYMid meet">

<g transform="translate(0.000000,582.000000) scale(0.100000,-0.100000)"
fill="#000000" stroke="none">
<path d="M0 2910 l0 -2910 8615 0 8615 0 0 2910 0 2910 -8615 0 -8615 0 0
-2910z m8690 2230 c436 -13 1024 -37 1375 -55 419 -22 783 -44 843 -51 l52 -5
0 -140 0 -139 -38 0 c-21 0 -182 9 -357 20 -1230 76 -2283 105 -3465 97 -782
-6 -1034 -12 -1559 -42 -145 -8 -265 -14 -266 -13 -2 2 9 67 23 144 l25 142
76 6 c151 12 774 37 1121 46 425 10 1701 4 2170 -10z m-3664 -87 c-3 -16 -15
-81 -27 -145 l-21 -117 -37 -5 c-20 -3 -79 -8 -131 -11 -52 -4 -103 -9 -112
-11 -17 -5 -18 6 -18 140 0 132 2 146 18 147 9 0 78 7 152 14 198 18 183 20
176 -12z m-636 -176 l0 -143 -167 -21 c-93 -11 -169 -20 -171 -18 -4 3 -32
226 -32 255 l0 27 163 21 c89 11 172 20 185 21 22 1 22 0 22 -142z m7045 122
c88 -6 163 -14 167 -18 6 -6 -16 -268 -24 -276 -3 -3 -79 1 -169 7 l-164 13
-3 143 c-2 130 -1 142 15 142 10 0 90 -5 178 -11z m698 -58 c108 -10 199 -20
202 -22 5 -6 -64 -261 -73 -270 -9 -7 -378 24 -387 33 -4 3 -1 67 6 142 11
128 13 136 33 136 12 -1 110 -9 219 -19z m-8402 -13 c2 -9 36 -273 35 -275 -1
-1 -69 -14 -151 -28 -586 -102 -1009 -221 -1335 -377 -187 -89 -316 -176 -412
-276 -120 -126 -165 -234 -155 -376 8 -134 71 -281 185 -440 31 -43 72 -98 89
-123 59 -81 36 -174 -50 -213 -38 -18 -68 -20 -322 -20 l-280 -1 272 -133
c295 -145 313 -159 313 -235 0 -38 -164 -905 -181 -959 -11 -34 -38 -56 -444
-367 -99 -75 -181 -140 -183 -144 -1 -3 292 -5 650 -4 359 1 2874 7 5588 12
2714 6 5663 14 6553 17 l1617 7 -181 176 c-149 145 -182 182 -189 213 -6 29
11 135 75 475 46 241 86 450 90 465 11 44 54 74 310 218 l240 135 -203 5 -204
5 -33 37 c-19 20 -37 49 -41 65 -5 17 34 269 110 708 64 374 117 683 116 686
0 4 -12 9 -27 12 -16 2 -118 23 -227 46 -558 116 -1666 268 -2608 357 -136 13
-188 22 -188 31 0 14 68 265 72 268 11 7 1087 -115 1543 -176 688 -91 1347
-208 1611 -285 69 -20 119 -65 129 -115 4 -23 -30 -242 -104 -669 -60 -349
-111 -646 -113 -659 l-3 -25 385 3 c372 2 386 1 418 -18 86 -55 95 -184 16
-236 -13 -8 -228 -130 -476 -271 -249 -141 -455 -257 -457 -260 -2 -2 -34
-164 -71 -360 l-68 -357 187 -181 c353 -342 379 -369 386 -408 14 -73 -34
-150 -104 -167 -20 -5 -3302 -16 -7653 -26 -7404 -16 -7619 -16 -7649 2 -51
29 -73 66 -73 123 0 35 6 58 21 78 11 15 222 182 470 372 l450 345 67 350 c37
193 68 358 69 369 2 15 -86 62 -473 252 -288 142 -489 247 -512 267 -34 31
-38 39 -38 83 0 59 26 106 72 130 39 21 281 32 686 33 134 1 242 4 240 9 -2 4
-26 54 -55 112 -128 262 -143 496 -44 714 192 425 816 741 1851 940 336 65
388 73 391 64z m2193 -973 c272 -48 410 -193 424 -447 2 -53 2 -112 -2 -130
l-6 -35 -238 -12 c-130 -7 -249 -14 -263 -17 l-27 -5 -3 118 c-4 101 -7 123
-27 154 -29 47 -75 69 -146 69 -102 0 -166 -51 -201 -159 -50 -155 -4 -249
276 -558 313 -346 413 -495 440 -661 10 -58 9 -83 -6 -153 -67 -337 -289 -516
-692 -560 -183 -20 -428 3 -559 52 -215 81 -312 262 -284 531 5 50 11 92 14
95 5 5 403 32 484 33 50 0 53 -1 46 -22 -3 -11 -7 -67 -7 -122 -2 -145 31
-210 120 -242 173 -61 345 73 347 271 2 111 -64 213 -309 480 -415 452 -503
682 -365 955 94 185 295 320 543 365 101 18 336 18 441 0z m7176 -15 c228 -66
357 -203 368 -390 4 -67 -16 -241 -44 -382 l-6 -28 -254 0 -255 0 6 33 c54
325 56 360 24 401 -11 14 -34 33 -50 42 -36 18 -142 21 -191 5 -46 -15 -100
-74 -121 -132 -26 -69 -241 -1441 -233 -1483 19 -98 129 -141 262 -101 55 16
95 52 118 105 8 19 26 113 41 208 l28 172 254 0 255 0 -6 -27 c-3 -16 -17
-100 -31 -188 -22 -139 -30 -171 -66 -244 -68 -137 -190 -246 -349 -309 -146
-58 -348 -82 -526 -64 -315 33 -492 164 -526 390 -9 62 -2 116 107 797 63 402
122 750 130 775 70 213 293 383 568 436 113 21 401 12 497 -16z m1590 0 c164
-47 279 -133 334 -250 54 -116 53 -129 -78 -950 l-116 -725 -39 -80 c-87 -175
-243 -293 -466 -350 -111 -28 -285 -40 -411 -27 -315 33 -492 164 -526 390 -9
62 -2 116 107 797 63 402 122 750 130 775 69 212 293 383 568 436 113 21 401
12 497 -16z m-11415 0 c366 -31 566 -125 644 -301 62 -140 41 -388 -45 -535
-48 -81 -185 -197 -299 -251 -19 -9 -35 -19 -35 -22 0 -3 25 -19 55 -35 188
-98 272 -351 206 -621 -81 -335 -338 -533 -756 -584 -51 -6 -255 -11 -468 -11
l-377 0 5 23 c2 12 86 540 185 1172 100 633 183 1156 185 1163 6 15 520 17
700 2z m1483 -17 c-2 -16 -87 -549 -189 -1185 l-184 -1158 -271 0 -271 0 7 48
c5 26 88 553 185 1172 97 619 178 1131 180 1138 3 9 67 12 276 12 l271 0 -4
-27z m2352 6 c0 -21 -135 -893 -145 -936 l-5 -23 212 0 213 0 74 473 c41 259
76 480 79 490 4 16 26 17 273 17 221 0 269 -2 269 -14 0 -7 -83 -537 -185
-1176 -102 -639 -185 -1167 -185 -1171 0 -5 -121 -9 -270 -9 l-270 0 1 23 c0
12 35 243 77 512 l77 490 -209 3 c-115 1 -210 1 -211 0 -1 -2 -37 -221 -79
-488 -42 -267 -79 -497 -82 -512 l-6 -28 -269 0 c-148 0 -269 4 -269 8 0 6
334 2127 366 2325 l6 37 269 0 c267 0 269 0 269 -21z m1660 6 c0 -8 -83 -537
-185 -1176 -102 -640 -185 -1166 -185 -1171 0 -4 -121 -8 -270 -8 -227 0 -270
2 -270 14 0 15 356 2280 366 2329 l6 27 269 0 c229 0 269 -2 269 -15z m1845
-9 c293 -58 465 -182 536 -386 18 -53 22 -86 22 -180 0 -132 -22 -231 -77
-345 -137 -287 -451 -459 -878 -483 l-122 -7 -75 -472 -75 -473 -272 0 c-254
0 -272 1 -268 18 2 9 85 532 184 1162 99 630 182 1156 185 1169 l6 23 377 -5
c284 -4 397 -9 457 -21z m1335 9 c0 -8 -83 -538 -185 -1177 -102 -639 -185
-1165 -185 -1170 0 -4 -121 -8 -270 -8 -227 0 -270 2 -270 14 0 15 356 2280
366 2329 l6 27 269 0 c232 0 269 -2 269 -15z"/>
<path d="M14345 3634 c-5 -1 -27 -5 -48 -9 -45 -7 -105 -57 -124 -104 -16 -38
-243 -1442 -243 -1502 0 -48 36 -101 80 -116 71 -24 175 -9 222 34 49 44 56
79 173 823 63 402 115 740 115 751 0 34 -28 84 -58 101 -26 15 -96 28 -117 22z"/>
<path d="M3016 3290 c-27 -171 -46 -314 -42 -317 4 -4 50 -2 104 5 218 27 325
135 339 343 7 101 -1 142 -39 185 -53 60 -147 94 -261 94 l-53 0 -48 -310z"/>
<path d="M2910 2640 c0 -7 -25 -168 -55 -357 -30 -190 -55 -349 -55 -354 0
-28 207 6 274 45 121 71 190 219 191 411 0 83 -3 95 -31 145 -44 78 -108 110
-233 118 -69 4 -91 2 -91 -8z"/>
<path d="M10211 3254 c-29 -187 -55 -348 -58 -358 -5 -18 -1 -19 90 -12 181
12 282 64 326 165 44 103 72 313 52 388 -26 95 -108 141 -266 150 l-91 6 -53
-339z"/>
</g>
</svg>
